<?xml version="1.0" encoding="UTF-8"?>
<svg width="28px" height="28px" viewBox="0 0 28 28" version="1.1" xmlns="http://www.w3.org/2000/svg" xmlns:xlink="http://www.w3.org/1999/xlink">
    <!-- Generator: Sketch 58 (84663) - https://sketch.com -->
    <title>系统管理(1)</title>
    <desc>Created with Sketch.</desc>
    <g id="Page-1" stroke="none" stroke-width="1" fill="none" fill-rule="evenodd">
        <g id="Data--Copy-6" transform="translate(-329.000000, -185.000000)" fill-rule="nonzero">
            <g id="系统管理(1)" transform="translate(329.000000, 185.000000)">
                <path d="M16.5842567,22.7800578 C16.5482553,22.7498698 16.518533,22.724605 16.497948,22.7065301 C16.3848365,22.6072113 16.2861818,22.5134034 16.1911762,22.4128609 C15.967054,22.1721503 15.8247476,22.1260128 15.4881841,22.1915424 C9.90798254,23.2566914 4.93178999,18.5623803 5.66859326,12.9344517 C5.77904038,12.1089776 5.99763534,11.3222756 6.31788382,10.5892205 L6.6906164,9.73602831 L7.40671335,10.3310675 L10.8633707,13.2055677 C12.0404738,14.0527037 12.8585905,14.1049151 13.5235668,13.4871536 C14.1994603,12.8592501 14.2380499,12.1351564 13.6262648,11.1487686 C12.1607728,9.29752762 11.1316244,8.0312117 10.5519977,7.36524812 L9.90192006,6.61833973 L10.8228874,6.25461962 C12.1675055,5.72358593 13.6615457,5.5285132 15.2069322,5.69369017 C19.4381659,6.15153331 22.9465857,10.3178911 22.3016203,14.8104152 C22.1793758,15.6285389 22.3249256,16.0953152 22.8660891,16.5652263 C23.4730952,16.0529146 24.2087078,15.8481096 25.0249019,15.9425284 C25.3226474,15.9571617 25.6209321,15.9571617 25.9213452,15.9424024 C26.6536864,15.9092103 27.1533003,15.4820426 27.2470231,14.8191763 C27.3176655,14.3064827 27.3176655,13.7636956 27.2457577,13.2397603 C27.1620858,12.5627922 26.6939958,12.1609593 25.9285424,12.1265061 C25.7504093,12.1202685 25.5614455,12.1188161 25.313344,12.1207018 C25.182623,12.1218646 25.182623,12.1218646 25.0503373,12.1233867 C24.8185621,12.1260566 24.7175594,12.1269349 24.5895519,12.1269349 C23.587072,12.1269349 22.7687211,11.6419652 22.3325933,10.7720902 C21.8629556,9.85777803 22.0232317,8.87846589 22.6748489,8.07049026 C22.8733428,7.81617378 23.0721448,7.60689346 23.432453,7.25476173 C23.5520372,7.13811776 23.6096423,7.08182419 23.6663112,7.02579238 C23.696275,6.99611843 23.696275,6.99611843 23.7262307,6.96622918 C24.3342943,6.35944453 24.3643881,5.68710625 23.8185213,5.05629351 C22.7378771,3.80384426 21.9456716,3.57713004 21.2232162,4.12548165 C21.1499654,4.18311077 21.0680793,4.25716372 20.9600338,4.36219495 C20.9233814,4.39782488 20.8892862,4.43146333 20.8202053,4.49981093 C20.7326174,4.58761672 20.6804541,4.64120212 20.4918111,4.83620522 C20.3329475,5.0004249 20.2442236,5.09109678 20.138401,5.19602718 C19.3781852,5.93338058 18.4637818,6.15885621 17.4889998,5.77775158 C16.5278392,5.40351525 15.996675,4.62015875 15.9084193,3.59121904 C15.8835119,3.323778 15.8820455,3.10801763 15.8921475,2.67032745 C15.8923628,2.66100939 15.8923628,2.66100939 15.8925777,2.65171603 C15.900722,2.29966108 15.9010005,2.14813816 15.889374,1.96275234 C15.8579289,1.34554746 15.4290833,0.84202651 14.886954,0.76478657 L14.8809411,0.763903231 C14.3179591,0.678698923 13.7453588,0.678698923 13.1810873,0.764097173 C12.5692802,0.855525349 12.1531197,1.33412366 12.1087357,2.00290024 C12.0952571,2.22153525 12.0871098,2.44838608 12.0828253,2.7035556 C12.0792584,2.9159901 12.0785433,3.08707232 12.0783893,3.46434971 C12.0997862,4.48418543 11.565416,5.27857378 10.6288644,5.69058889 C9.67583549,6.09922879 8.70686112,5.92740765 7.92837361,5.21686593 C7.82504014,5.11800603 7.72620339,5.02138528 7.57704493,4.87410792 C7.49361058,4.79166969 7.49361058,4.79166969 7.41120957,4.7103301 C7.19240439,4.49459472 7.04731498,4.35511571 6.90180368,4.22263869 C6.30787656,3.68623175 5.65299344,3.66419943 5.05551002,4.149312 C3.80788208,5.1668418 3.54682316,5.89625054 3.98657929,6.62421957 C4.05648838,6.73477486 4.13935321,6.83658605 4.25164278,6.94576963 C4.54266065,7.24855779 4.83762673,7.54752695 5.13143443,7.83768255 C5.89245966,8.57416153 6.10821152,9.527052 5.73158236,10.4975167 C5.36489581,11.4435442 4.54914525,11.9800138 3.51203112,12.0450857 C3.2910848,12.0614398 3.08646234,12.0645287 2.75857112,12.061282 C2.7123052,12.0608066 2.7123052,12.0608066 2.66656761,12.0603025 C2.38634576,12.0572141 2.26493042,12.0572565 2.11432439,12.0625056 C1.23088105,12.086024 0.745810475,12.5621761 0.712337784,13.4435083 C0.695886973,13.7883816 0.695886973,14.151337 0.712117702,14.492444 C0.758022164,15.3438942 1.16646574,15.7537411 2.00798278,15.7973542 C2.1277757,15.8012242 2.22545115,15.8031078 2.44686389,15.8064161 C2.91198912,15.8133658 3.12224721,15.8200969 3.39303355,15.8426393 C3.52237214,15.8534065 3.64665062,15.8671987 3.7409249,15.8812631 C4.71210045,15.9819578 5.52563304,16.6606042 5.79532438,17.5864202 C6.08012935,18.5045942 5.85600224,19.3829556 5.17214987,20.0643438 C5.07075574,20.1652043 4.97598643,20.2562233 4.81464461,20.408955 C4.78364357,20.4382943 4.78364357,20.4382943 4.75284149,20.4674406 C4.46033226,20.7442738 4.31773562,20.8846067 4.16431154,21.0527548 C3.7438512,21.5058118 3.64767194,22.1574909 3.90648007,22.5062054 C4.32781446,23.0678124 4.82994044,23.5639882 5.39377448,23.9765952 C5.77876608,24.2554377 6.37780561,24.165944 6.88037677,23.7120795 C7.04556294,23.5679074 7.18691522,23.4314038 7.45599426,23.1613463 C7.49808653,23.1190876 7.49808653,23.1190876 7.54064611,23.0763786 C7.69321159,22.9233597 7.79243593,22.8254961 7.89569384,22.7273884 C8.66030019,21.9890708 9.61784531,21.8045107 10.5824986,22.2205303 C11.5370631,22.6323962 12.0580728,23.4323199 12.0793424,24.4715346 C12.0847109,24.6349523 12.0801303,24.7688941 12.0650825,25.029623 C12.0645877,25.0381912 12.0645877,25.0381912 12.0640949,25.0467151 C12.0408869,25.4481438 12.0443557,25.6073378 12.0805407,25.7298822 C12.3015139,26.4512525 12.4830497,26.8330976 12.6582188,26.945552 C13.3655218,27.4011094 14.2792376,27.4112341 15.2607388,27.0104033 C15.7812753,26.8057577 15.9671097,26.3331368 15.9080429,25.4198547 C15.8304317,24.2213952 15.9752961,23.3998198 16.5842567,22.7800578 Z" id="形状" stroke="#FFFFFF" stroke-width="1.4"></path>
                <path d="M10.5338713,14.0693354 C11.1151253,14.6762252 11.6953397,15.2975807 12.2904947,15.9044946 C13.4241128,17.0477078 14.8975916,17.076567 16.0018122,16.0028818 C17.1349227,14.9018828 17.1075801,13.448004 15.9301316,12.2774772 C15.3210273,11.6844737 14.683565,11.1187839 14.1177834,10.4546828 C15.6490418,10.0038987 17.0358753,10.2429355 18.268009,11.1192911 C20.2366041,12.4892245 20.9746369,14.8034957 20.167486,17.0492534 C20.0112149,17.4722408 20.1375808,17.6978985 20.407308,17.9529226 C21.8802791,19.3923839 23.3408723,20.818466 24.7989028,22.2723449 C25.6338798,23.1064621 25.5926362,24.094608 24.7143124,24.8565891 C24.0196023,25.4640101 23.1412785,25.4361893 22.4331751,24.7437602 C20.9602529,23.3133619 19.5014746,21.8685013 18.0570527,20.409389 C17.7166602,20.0698641 17.4618977,19.9864016 16.9652341,20.1543649 C15.0244652,20.8035172 13.2683494,20.409389 11.794363,19.0111277 C10.4054505,17.6978985 9.99593994,16.0456514 10.3224073,14.2120378 C10.3915253,14.1543435 10.4626983,14.1126123 10.5338713,14.0693354 L10.5338713,14.0693354 Z" id="路径" fill="#FFFFFF"></path>
            </g>
        </g>
    </g>
</svg>