<?xml version="1.0" encoding="UTF-8"?>
<svg width="30px" height="30px" viewBox="0 0 30 30" version="1.1" xmlns="http://www.w3.org/2000/svg" xmlns:xlink="http://www.w3.org/1999/xlink">
    <!-- Generator: Sketch 58 (84663) - https://sketch.com -->
    <title>避难所</title>
    <desc>Created with Sketch.</desc>
    <g id="Page-1" stroke="none" stroke-width="1" fill="none" fill-rule="evenodd">
        <g id="Data--Copy-6" transform="translate(-656.000000, -854.000000)" fill="#FFFFFF">
            <g id="避难所" transform="translate(656.000000, 854.000000)">
                <path d="M15,0 C6.71616793,0 0,6.71616793 0,15 C0,23.2838321 6.71616793,30 15,30 C23.2838321,30 30,23.2838321 30,15 C30,6.71616793 23.2838321,0 15,0 Z M15,28.1241626 C7.76462707,28.1241626 1.87583743,22.2353729 1.87583743,15 C1.87583743,7.76462707 7.76462707,1.87583743 15,1.87583743 C22.2353729,1.87583743 28.1241626,7.76462707 28.1241626,15 C28.1241626,22.2353729 22.2353729,28.1241626 15,28.1241626 Z" id="形状" fill-rule="nonzero"></path>
                <path d="M13,8 C13,9.1045695 13.8954305,10 15,10 C16.1045695,10 17,9.1045695 17,8 C17,6.8954305 16.1045695,6 15,6 C13.8954305,6 13,6.8954305 13,8 Z" id="路径"></path>
                <path d="M23.3536811,22.2364895 L18.0588141,20.4845913 L16.5705819,17.5301474 L16.8169332,17.4263064 C17.2657652,17.2353729 17.4952432,16.7295668 17.340008,16.2673068 L15.8652745,11.8758374 L17.9407004,11.8758374 L19.5537957,13.4769987 C19.7394029,13.6612327 19.9790049,13.7516749 20.2219816,13.7516749 C20.4649583,13.7516749 20.7045603,13.6612327 20.8901675,13.4769987 C21.2580072,13.1118803 21.2580072,12.5189817 20.8901675,12.1505136 L19.0003488,10.2746762 C18.8248656,10.1004913 18.5818889,10 18.3321629,10 L14.5559001,10 C14.495156,10 14.4411611,10.023448 14.3837916,10.0334971 C14.3399209,10.0401965 14.2994247,10.0435462 14.2555539,10.0602948 C14.1171922,10.1071907 13.9855798,10.1741849 13.8843396,10.2746762 L11.3330843,12.8137561 L7.94490935,12.8137561 C7.42183453,12.8137561 7,13.2324699 7,13.7516749 C7,14.2708799 7.42183453,14.6895936 7.94490935,14.6895936 L11.7211721,14.6895936 C11.9708981,14.6895936 12.2105001,14.5891023 12.389358,14.4149174 L14.140815,12.676418 L15.2713315,16.0428763 L9.46013899,18.514962 C9.17329151,18.6389013 8.96743626,18.8901295 8.90669208,19.1949531 L7.96178273,23.881197 C7.86054244,24.3870031 8.19126072,24.8827602 8.70083683,24.9832515 C8.76495568,24.9966503 8.82569985,25 8.88644403,25 C9.32852662,25 9.72336374,24.6918267 9.81110532,24.2463153 L10.6581491,20.0457794 L14.8292489,18.2704332 L16.5402098,21.6703886 C16.6515741,21.8914694 16.8473053,22.0623046 17.0869073,22.1393479 L22.7529888,24.0151854 C22.854229,24.0486824 22.9520947,24.0620813 23.0533349,24.0620813 C23.4481721,24.0620813 23.8160118,23.8142028 23.9509988,23.4222867 C24.116358,22.9332291 23.8497585,22.4006253 23.3536811,22.2364895 Z" id="路径"></path>
            </g>
        </g>
    </g>
</svg>