<?xml version="1.0" encoding="UTF-8"?>
<svg width="27px" height="26px" viewBox="0 0 27 26" version="1.1" xmlns="http://www.w3.org/2000/svg" xmlns:xlink="http://www.w3.org/1999/xlink">
    <!-- Generator: Sketch 58 (84663) - https://sketch.com -->
    <title>分组 10</title>
    <desc>Created with Sketch.</desc>
    <g id="Page-1" stroke="none" stroke-width="1" fill="none" fill-rule="evenodd" stroke-linecap="round" stroke-linejoin="round">
        <g id="Data--Copy-6" transform="translate(-657.000000, -55.000000)" fill-rule="nonzero" stroke="#FFFFFF" stroke-width="1.4">
            <g id="分组-10" transform="translate(658.000000, 56.000000)">
                <path d="M3,7.47597721 L0.382453475,9.5311408 C0.141000252,9.72071751 -9.80052739e-17,10.0106915 0,10.3176752 L0,22.1718019 C7.1562326e-16,22.7240866 0.44771525,23.1718019 1,23.1718019 C1.12278432,23.1718019 1.2445188,23.1491895 1.3591127,23.1050961 L8.23244801,20.4603759 L8.23244801,20.4603759 L16.4445197,23.6280551 L23.9162384,21.0924098 C24.3219488,20.9547256 24.5948741,20.5738908 24.5948741,20.1454542 L24.5948741,7.87888974 C24.5948741,7.32660499 24.1471588,6.87888974 23.5948741,6.87888974 C23.4461278,6.87888974 23.2992549,6.91207291 23.1649566,6.97602154 L20.2885404,8.34568053 L20.2885404,8.34568053" id="路径-55"></path>
                <path d="M7.86808988,10.6210079 L7.86808988,17.4467067" id="路径-56"></path>
                <path d="M16.0031565,13.3660089 L16.0031565,20.423289" id="路径-57"></path>
                <polygon id="路径-58" fill="#FFFFFF" points="8.05635574 6.66367686 12.622015 6.66367686 15.5833333 10.3035777 15.5833333 0.124764913"></polygon>
            </g>
        </g>
    </g>
</svg>