<?xml version="1.0" encoding="UTF-8"?>
<svg width="32px" height="28px" viewBox="0 0 32 28" version="1.1" xmlns="http://www.w3.org/2000/svg" xmlns:xlink="http://www.w3.org/1999/xlink">
    <!-- Generator: Sketch 58 (84663) - https://sketch.com -->
    <title>调度指挥</title>
    <desc>Created with Sketch.</desc>
    <g id="Page-1" stroke="none" stroke-width="1" fill="none" fill-rule="evenodd">
        <g id="Data--Copy-6" transform="translate(-1532.000000, -54.000000)" fill="#FFFFFF" fill-rule="nonzero">
            <g id="调度指挥" transform="translate(1532.000000, 54.000000)">
                <path d="M24.3934911,3.53788749 C23.1651023,3.53788749 22.0042251,3.81325306 20.9760693,4.30128498 L20.9760693,2.75169028 C20.9760693,1.23432963 19.6621055,0 18.0468506,0 L2.98257644,0 C1.36732156,0 0.0533577549,1.23432963 0.0533577549,2.75169028 L0.0533577549,7.34242687 C0.0533577549,7.70407759 0.365598509,7.99759123 0.750790788,7.99759123 C1.13598307,7.99759123 1.44822382,7.70407759 1.44822382,7.34242687 L1.44822382,2.75169028 C1.44822382,1.95677937 2.13638099,1.3103287 2.98257644,1.3103287 L18.0468506,1.3103287 C18.8930461,1.3103287 19.5812033,1.95677937 19.5812033,2.75169028 L19.5812033,5.15509517 C19.0515156,5.56308236 18.582389,6.03588166 18.1863372,6.5608813 L18.1863372,3.27582175 C18.1863372,2.9139745 17.8741662,2.62065739 17.4889042,2.62065739 L3.54052285,2.62065739 C3.1553306,2.62065739 2.84308982,2.91397446 2.84308985,3.27582175 L2.84308985,22.2699535 L1.54765217,24.250087 C1.4813666,23.2789297 1.44822382,22.4969809 1.44822382,21.9042407 L1.44822382,12.5837416 C1.44822382,12.2218944 1.13598307,11.9285773 0.750790788,11.9285773 C0.365598509,11.9285773 0.0533577549,12.2218944 0.0533577549,12.5837416 C0.0533577549,16.4852453 0.0533577549,18.821343 0.0533577549,19.5920347 L0.0533577549,24.6321485 C0.0533577549,26.3828863 2.2403725,27.3838388 2.84308985,27.3838388 C3.24490142,27.3838388 4.29395691,27.3838388 5.99025632,27.3838388 L18.0468506,27.3838388 C19.6621055,27.3838388 20.9760693,26.1495092 20.9760693,24.6321485 L20.9760693,17.0568108 C22.0042251,17.5448427 23.1651023,17.8204703 24.3934911,17.8204703 C26.2988781,17.8204703 28.0427396,17.1584267 29.3782541,16.0663988 C29.4163193,16.0406759 29.4514687,16.0113451 29.483148,15.9788688 C31.0251027,14.6710953 31.995511,12.7795703 31.995511,10.6791789 C31.995511,6.7413136 28.585482,3.53788749 24.3934911,3.53788749 Z M24.3934911,4.84821619 C27.8160739,4.84821619 30.600645,7.46402536 30.600645,10.6791789 C30.600645,12.0662929 30.081964,13.3417668 29.2177748,14.3437752 C28.6322797,13.2913847 27.6741463,12.4686293 26.5274966,12.0076557 C26.9802702,11.5319408 27.2565234,10.9043589 27.2565234,10.2172225 L27.2565234,9.70868396 C27.2565234,8.22591601 25.9722702,7.01949638 24.3935608,7.01949635 C22.814991,7.01949635 21.5307378,8.22591598 21.5307378,9.70868396 L21.5307378,10.2172225 C21.5307378,10.9043589 21.806712,11.5319408 22.2597645,12.0076557 C21.1128359,12.4686293 20.1547024,13.2913847 19.5694864,14.3437752 C18.7053669,13.3417668 18.1866162,12.0662929 18.1866162,10.6791789 C18.1863373,7.46402539 20.9709083,4.84821619 24.3934911,4.84821619 Z M22.9256038,9.70874948 C22.9256038,8.94836572 23.5841201,8.32982505 24.3934911,8.32982505 C25.2029319,8.32982505 25.8615876,8.94836572 25.8615876,9.70868396 L25.8615876,10.2172225 C25.8615876,10.9776063 25.2032108,11.596409 24.3934911,11.596409 C23.5841201,11.596409 22.9256038,10.9778683 22.9256038,10.217288 L22.9256038,9.70874948 Z M4.23795588,3.93098609 L16.7914712,3.93098609 L16.7914712,22.5373915 L4.23795588,22.5373915 L4.23795588,3.93098609 Z M18.0468506,26.0735101 L5.93522885,26.0735101 C4.9165444,26.0735101 3.09808584,26.3131801 1.84648524,24.8718841 C1.75039604,24.7612314 1.68197224,24.6427617 1.64121385,24.5164749 C1.63050797,24.4833036 1.59932075,24.3945076 1.54765217,24.250087 L2.84308985,22.2699535 C2.88372907,22.6805376 3.0293883,23.0471066 3.28006751,23.3696605 C3.64300996,23.8366658 4.25765035,23.8477203 4.72629706,23.8477203 L17.4891832,23.8477203 C17.8743754,23.8477203 18.1866162,23.5544687 18.1866162,23.1925559 L18.1866162,14.797542 C18.5120356,15.2288967 18.8869751,15.6253181 19.3046711,15.979655 C19.3360556,16.0114305 19.3706483,16.0403232 19.4082399,16.0659402 C19.4651504,16.1124569 19.5228979,16.1583183 19.5814823,16.2033281 L19.5814823,24.6322141 C19.5812033,25.4270594 18.8930461,26.0735101 18.0468506,26.0735101 Z M20.6301425,15.3124357 C21.232097,13.8776912 22.7213257,12.9067377 24.3934214,12.9067377 C26.0658657,12.9067377 27.5550247,13.8776912 28.1571186,15.3124357 C27.112364,16.063254 25.807676,16.5101416 24.3934911,16.5101416 C22.9795851,16.5101416 21.6748972,16.0633195 20.6301425,15.3124357 Z" id="形状"></path>
                <path d="M14.1045119,17.7833971 L6.20053156,17.7833971 C5.82419374,17.7833971 5.51913043,18.0617757 5.51913043,18.4051942 C5.51913043,18.7484262 5.82419371,19.0269913 6.20053156,19.0269913 L14.1045119,19.0269913 C14.4809179,19.0269913 14.785913,18.7484262 14.785913,18.4051942 C14.785913,18.0617757 14.4809179,17.7833971 14.1045119,17.7833971 Z M14.1045119,20.2705855 L6.20053156,20.2705855 C5.82419374,20.2705855 5.51913043,20.5489641 5.51913043,20.8923826 C5.51913043,21.2356146 5.82419371,21.5141797 6.20053156,21.5141797 L14.1045119,21.5141797 C14.4809179,21.5141797 14.785913,21.2356146 14.785913,20.8923826 C14.785913,20.5489641 14.4809179,20.2705855 14.1045119,20.2705855 L14.1045119,20.2705855 Z M10.1525218,24.250087 C9.9770346,24.2505952 9.8088553,24.3161585 9.68454924,24.4325222 C9.56080317,24.549251 9.49110604,24.7071461 9.4906087,24.8718841 C9.4906087,25.0356032 9.56116862,25.1959025 9.68454924,25.3114946 C9.80895099,25.4276929 9.97709104,25.4931516 10.1525218,25.4936812 C10.327865,25.4931064 10.495905,25.4276496 10.6202295,25.3114946 C10.7441005,25.1947222 10.8138938,25.0367356 10.8144348,24.8718841 C10.8144348,24.7084136 10.7436101,24.5481143 10.6202295,24.4325222 C10.4959966,24.3162076 10.32792,24.2506472 10.1525218,24.250087 L10.1525218,24.250087 Z M0.88573913,11.1923478 C1.05975608,11.1923478 1.23059581,11.1260643 1.35371164,11.0101613 C1.47740665,10.893299 1.54708846,10.7353493 1.54765217,10.5705507 C1.54704031,10.4058344 1.47736052,10.2479786 1.35371164,10.1311889 C1.22931245,10.0149563 1.0611932,9.9494164 0.88573913,9.94875362 C0.710251976,9.94926186 0.542072688,10.0148252 0.417766624,10.1311889 C0.294117742,10.2479786 0.22443795,10.4058344 0.223826087,10.5705507 C0.223826087,10.7342699 0.294650794,10.8945692 0.417766624,11.0101613 C0.542099517,11.1264567 0.710284012,11.1919327 0.88573913,11.1923478 Z" id="形状"></path>
                <path d="M10.6820522,13.0577391 C11.7768107,13.0577391 12.6677913,13.8944636 12.6677913,14.9231304 C12.6677913,15.95154 11.7768107,16.7885217 10.6820522,16.7885217 C9.58701978,16.7885217 8.69631304,15.9515399 8.69631304,14.9231304 C8.69631304,13.8944636 9.58701975,13.0577391 10.6820522,13.0577391 Z" id="路径"></path>
                <rect id="矩形" stroke="#FFFFFF" x="9.9906087" y="5.47437681" width="1.64765217" height="6.46156522" rx="0.823826087"></rect>
            </g>
        </g>
    </g>
</svg>