<?xml version="1.0" encoding="UTF-8"?>
<svg width="26px" height="26px" viewBox="0 0 26 26" version="1.1" xmlns="http://www.w3.org/2000/svg" xmlns:xlink="http://www.w3.org/1999/xlink">
    <!-- Generator: Sketch 58 (84663) - https://sketch.com -->
    <title>知识库</title>
    <desc>Created with Sketch.</desc>
    <g id="Page-1" stroke="none" stroke-width="1" fill="none" fill-rule="evenodd">
        <g id="Data--Copy-6" transform="translate(-330.000000, -385.000000)" fill="#FFFFFF" fill-rule="nonzero">
            <g id="知识库" transform="translate(330.000000, 384.241952)">
                <path d="M17.3949775,12.6170145 C17.3446929,12.6170145 17.2956195,12.6221214 17.2479052,12.6315929 C17.2148745,12.6222995 17.1799234,12.6170145 17.1448542,12.6170145 L9.84282396,12.6170145 C9.82119742,12.6170145 9.80033904,12.6192414 9.78013062,12.6225965 C9.7503498,12.6190632 9.71988949,12.6170145 9.68945868,12.6170145 C9.26109362,12.6170145 8.9141531,12.9749718 8.9141531,13.4165098 C8.9141531,13.8581665 9.26109364,14.2161238 9.68945868,14.2161238 C9.71988946,14.2161238 9.75020209,14.2140454 9.78013062,14.2103934 C9.80033901,14.2138969 9.82119742,14.2161238 9.84282396,14.2161238 L17.1448541,14.2161238 C17.1800711,14.2161238 17.2148745,14.21072 17.2479052,14.2015751 C17.29559,14.2110169 17.3446633,14.2161238 17.3949775,14.2161238 C17.8230176,14.2161238 18.1698695,13.8581665 18.1698695,13.4165098 C18.1698695,12.9749717 17.8230176,12.6170145 17.3949775,12.6170145 Z M20.3477094,16.003119 C20.2972475,16.003119 20.247731,16.0082556 20.1998394,16.0175193 C20.1674587,16.0082259 20.1326849,16.003119 20.0967884,16.003119 L9.84267625,16.003119 C9.82099062,16.003119 9.80033904,16.0053459 9.78016018,16.0085822 C9.75020212,16.0050786 9.71977131,16.003119 9.68931097,16.003119 C9.26094591,16.003119 8.91418267,16.3609575 8.91418267,16.8027034 C8.91418267,17.2441226 9.26112321,17.602258 9.68931097,17.602258 C9.71991902,17.602258 9.75020209,17.6000312 9.78016018,17.5964979 C9.80036858,17.6000312 9.82099062,17.602258 9.84267625,17.602258 L20.0967884,17.602258 C20.1326849,17.602258 20.1674883,17.5968245 20.1998394,17.5875015 C20.247731,17.5971511 20.2972475,17.602258 20.3477095,17.602258 C20.7756018,17.602258 21.1224242,17.2441226 21.1224242,16.8027034 C21.1224242,16.3609575 20.7757495,16.003119 20.3477094,16.003119 Z M20.3477094,19.3891938 C20.2972475,19.3891938 20.247731,19.3943007 20.1998394,19.4035941 C20.1674587,19.3943007 20.1326849,19.3891938 20.0967884,19.3891938 L9.84267625,19.3891938 C9.82099062,19.3891938 9.80033904,19.3910644 9.78016018,19.3946273 C9.75020212,19.3910941 9.71977131,19.3891938 9.68931097,19.3891938 C9.26094591,19.3891938 8.91418267,19.7469729 8.91418267,20.1887188 C8.91418267,20.6301083 9.26112321,20.9883031 9.68931097,20.9883031 C9.71991902,20.9883031 9.75020209,20.9860466 9.78016018,20.9825133 C9.80036858,20.9860465 9.82099062,20.9883031 9.84267625,20.9883031 L20.0967884,20.9883031 C20.1326849,20.9883031 20.1674883,20.9828102 20.1998394,20.9735762 C20.247731,20.9831665 20.2972475,20.9883031 20.3477095,20.9883031 C20.7756018,20.9883031 21.1224242,20.630138 21.1224242,20.1887188 C21.1224242,19.7469729 20.7757495,19.3891938 20.3477094,19.3891938 Z M25.9995341,25.136106 L25.9995341,2.37660478 C25.9995341,2.37660478 26.0421963,0.758047767 24.1557533,0.758047767 L1.84460824,0.758047767 C0.0420124201,0.758047767 3.55271368e-15,2.37660478 3.55271368e-15,2.37660478 L3.55271368e-15,25.1381546 C3.55271368e-15,25.1361356 -0.00573139534,26.7568898 1.84460824,26.7568898 L7.10529388,26.7568898 C7.12245921,26.7568898 7.13953591,26.7580478 7.1564058,26.7580478 C7.17534378,26.7580478 7.19392726,26.7568898 7.21298342,26.7568898 L24.155576,26.7568898 C26.079186,26.7568601 25.9995341,25.136106 25.9995341,25.136106 Z M5.65214985,25.2127093 L2.45473077,25.214758 C1.64704446,25.214758 1.55294538,24.4692116 1.55294538,24.4692116 L1.55294538,2.95528647 C1.55294538,2.24070809 2.4579511,2.33126629 2.4579511,2.33126629 L5.65214985,2.33126629 L5.65214985,25.2127093 L5.65214985,25.2127093 Z M23.6073787,25.1848589 L7.23195094,25.1848589 L7.23195094,2.33120689 L15.3734868,2.33120689 L15.3734868,9.27206199 L17.8180246,7.02802993 L20.2826821,9.27206199 L20.2826821,2.33120689 L23.5501511,2.33120689 C24.4658519,2.33120689 24.4196444,2.95828528 24.4196444,2.95828528 L24.4196444,24.5580477 C24.4196148,24.5580478 24.4643747,25.1848589 23.6073787,25.1848589 Z" id="形状"></path>
            </g>
        </g>
    </g>
</svg>