<?xml version="1.0" encoding="UTF-8"?>
<svg width="26px" height="26px" viewBox="0 0 26 26" version="1.1" xmlns="http://www.w3.org/2000/svg" xmlns:xlink="http://www.w3.org/1999/xlink">
    <!-- Generator: Sketch 58 (84663) - https://sketch.com -->
    <title>分组 4</title>
    <desc>Created with Sketch.</desc>
    <g id="Page-1" stroke="none" stroke-width="1" fill="none" fill-rule="evenodd">
        <g id="Data--Copy-6" transform="translate(-329.000000, -586.000000)" fill-rule="nonzero" stroke="#FFFFFF" stroke-width="1.4">
            <g id="分组-4" transform="translate(330.000000, 586.000000)">
                <path d="M19.3094904,9.20165846 L19.3094904,3.82115888 C19.3094904,2.16430463 17.9663446,0.821158883 16.3094904,0.821158883 L3.27799276,0.821158883 C1.62113852,0.821158883 0.277992765,2.16430463 0.277992765,3.82115888 L0.277992765,21.4515387 C0.277992765,23.1083929 1.62113852,24.4515387 3.27799276,24.4515387 L16.7562397,24.4515387 C18.1663611,24.4515387 19.3094904,23.3084094 19.3094904,21.898288 L19.3094904,21.898288 L19.3094904,21.898288" id="路径-27"></path>
                <path d="M4.32617663,5.65746641 L16.0943081,5.65746641" id="路径-28" stroke-linecap="round"></path>
                <path d="M4.28540354,9.71240629 L12.8287805,9.71240629" id="路径-29" stroke-linecap="round"></path>
                <path d="M4.32900809,14.0524746 L10,14.0524746" id="路径-30" stroke-linecap="round"></path>
                <circle id="椭圆形" cx="16" cy="16" r="5"></circle>
                <path d="M20,19 L23.9077037,21.771154" id="路径-31" stroke-linecap="round"></path>
            </g>
        </g>
    </g>
</svg>