<?xml version="1.0" encoding="UTF-8"?>
<svg width="28px" height="23px" viewBox="0 0 28 23" version="1.1" xmlns="http://www.w3.org/2000/svg" xmlns:xlink="http://www.w3.org/1999/xlink">
    <!-- Generator: Sketch 58 (84663) - https://sketch.com -->
    <title>船只管理</title>
    <desc>Created with Sketch.</desc>
    <g id="Page-1" stroke="none" stroke-width="1" fill="none" fill-rule="evenodd">
        <g id="Data--Copy-6" transform="translate(-657.000000, -523.000000)" fill="#FFFFFF">
            <g id="船只管理" transform="translate(670.423077, 534.500000) scale(-1, 1) translate(-670.423077, -534.500000) translate(656.423077, 523.000000)">
                <path d="M20.4330543,22.1153846 C20.3347588,22.1153846 20.2364633,22.0977713 20.1420995,22.0660674 C19.7410537,21.9251612 19.5405308,21.5130103 19.7017355,21.1536994 L23.8340801,11.7940007 L13.9573441,8.77156135 L13.9573441,20.2695125 C13.9573441,20.6570048 13.6034801,20.9740439 13.1709797,20.9740439 C12.7384793,20.9740439 12.3846154,20.6570048 12.3846154,20.2695125 L12.3846154,7.77817218 C12.3846154,7.55272216 12.5104337,7.3378401 12.7148884,7.20750181 C12.9193431,7.07364086 13.186707,7.04193695 13.4265481,7.11591274 L25.1237176,10.6984545 C25.3281723,10.7618623 25.4933088,10.8957233 25.5837407,11.0718561 C25.6702408,11.2479889 25.6781044,11.4452577 25.599468,11.6284359 L21.168305,21.6715299 C21.0464185,21.9462971 20.7476001,22.1153846 20.4330543,22.1153846 L20.4330543,22.1153846 Z" id="路径"></path>
                <path d="M6.24870104,23 C5.9381558,23 5.64333438,22.8245725 5.51754391,22.5395029 L0.941915404,11.7945702 C0.859365406,11.6081786 0.86722731,11.3998584 0.957639214,11.2171215 C1.04412016,11.0343845 1.21315111,10.8955044 1.41756064,10.8297191 L13.1121438,7.11650433 C13.3519319,7.03975481 13.6153057,7.0763022 13.8236462,7.21152754 C14.0319866,7.35040762 14.1538462,7.56969196 14.1538462,7.80359526 L14.1538462,20.6098007 C14.1538462,21.011822 13.8000604,21.3407485 13.3676557,21.3407485 C12.9352509,21.3407485 12.5814652,21.011822 12.5814652,20.6098007 L12.5814652,8.83057692 L2.706913,11.9699977 L6.97592722,22.0022563 C7.13709626,22.3750396 6.93661769,22.7989894 6.53566056,22.9488337 C6.4413177,22.9817263 6.34697485,23 6.24870104,23 L6.24870104,23 Z" id="路径"></path>
                <path d="M5.16990325,23 C2.73693618,23 1.10035767,22.0229864 0.264149675,21.3394347 C-0.110152951,21.0388152 -0.0822793514,20.5019945 0.319896875,20.2335842 C0.626506473,20.0295923 1.04461047,20.0474863 1.32732841,20.272951 C1.49457001,20.4089456 1.70959492,20.566413 1.97240315,20.7203016 C2.9161236,21.2785951 3.99124817,21.5613206 5.16592131,21.5613206 C6.84630118,21.5613206 8.2240534,21.2141766 9.68144448,20.8455597 C10.9277926,20.5342038 12.2179421,20.2085325 13.6673693,20.1333777 C15.0411395,20.0653804 16.1640474,20.3373695 17.3546483,20.6236739 C18.5173756,20.9028206 19.7199224,21.1962826 21.2927898,21.1783885 C22.4913546,21.1640733 23.6540819,20.8741902 24.7451342,20.3123179 C25.5654144,19.890019 26.0432476,19.46772 26.0591754,19.449826 C26.365785,19.1706793 26.8675098,19.1635217 27.1820832,19.4390896 C27.4966567,19.7182363 27.5046206,20.1691657 27.198011,20.4518912 C27.1064263,20.5377826 24.8645925,22.5705435 21.3087176,22.6063315 C19.5208252,22.6242255 18.1470549,22.2949755 16.9405263,22.0015136 C15.8335462,21.736682 14.8738979,21.5040598 13.754972,21.5613206 C12.4767684,21.6257391 11.3259869,21.9192011 10.1114943,22.2269782 C8.61826574,22.6063315 7.06928998,23 5.16990325,23 Z M4.66817845,11.0825813 C4.23016474,11.0825813 3.87178988,10.7604889 3.87178988,10.3668204 L3.87178988,4.25422242 C3.87178988,3.86055394 4.23016474,3.53846154 4.66817845,3.53846154 L21.7228396,3.53846154 C22.1608533,3.53846154 22.5192282,3.86055394 22.5192282,4.25422242 L22.5192282,6.13667355 C22.5192282,6.53034204 22.1608533,6.85243444 21.7228396,6.85243444 C21.2848259,6.85243444 20.926451,6.53034204 20.926451,6.13667355 L20.926451,4.96998331 L5.46456702,4.96998331 L5.46456702,10.3668204 C5.46456702,10.7604889 5.11017411,11.0825813 4.66817845,11.0825813 Z M21.7268216,11.0825813 C21.2888078,11.0825813 20.930433,10.7604889 20.930433,10.3668204 L20.930433,9.12855405 C20.930433,8.73488556 21.2888078,8.41279316 21.7268216,8.41279316 C22.1648353,8.41279316 22.5232101,8.73488556 22.5232101,9.12855405 L22.5232101,10.3668204 C22.5232101,10.7604889 22.1648353,11.0825813 21.7268216,11.0825813 Z" id="形状" fill-rule="nonzero"></path>
                <path d="M8.7446727,4.42307692 C8.31394887,4.42307692 7.96153846,4.12530548 7.96153846,3.75392762 L7.96153846,0.669149308 C7.96153846,0.301117188 8.31394887,0 8.7446727,0 L17.7937888,0 C18.2245127,0 18.5769231,0.301117188 18.5769231,0.669149308 L18.5769231,3.75392762 C18.5769231,4.12195973 18.2245127,4.42307692 17.7937888,4.42307692 C17.363065,4.42307692 17.0106546,4.12195973 17.0106546,3.75392762 L17.0106546,1.33829862 L9.52780694,1.33829862 L9.52780694,3.75392762 C9.52780694,4.12195973 9.17539653,4.42307692 8.7446727,4.42307692 Z" id="路径"></path>
            </g>
        </g>
    </g>
</svg>