<?xml version="1.0" encoding="UTF-8"?>
<svg width="25px" height="31px" viewBox="0 0 25 31" version="1.1" xmlns="http://www.w3.org/2000/svg" xmlns:xlink="http://www.w3.org/1999/xlink">
    <!-- Generator: Sketch 58 (84663) - https://sketch.com -->
    <title>分组 9</title>
    <desc>Created with Sketch.</desc>
    <g id="Page-1" stroke="none" stroke-width="1" fill="none" fill-rule="evenodd">
        <g id="Data--Copy-6" transform="translate(-658.000000, -183.000000)" fill-rule="nonzero" stroke="#FFFFFF" stroke-width="1.4">
            <g id="分组-9" transform="translate(658.000000, 184.000000)">
                <path d="M2,5.7 C1.28202983,5.7 0.7,6.28202983 0.7,7 L0.7,28 C0.7,28.7179702 1.28202983,29.3 2,29.3 L23,29.3 C23.7179702,29.3 24.3,28.7179702 24.3,28 L24.3,7 C24.3,6.28202983 23.7179702,5.7 23,5.7 L2,5.7 Z" id="矩形"></path>
                <polyline id="路径-59" stroke-linecap="round" stroke-linejoin="round" points="3.7268328 5.71538426 3.7268328 9.19581969 21.1390134 9.19581969 21.1390134 5.71538426"></polyline>
                <path d="M6,4.31767011 L8.22289859,4.31767011 C9.26180521,1.8297706 10.6510488,0.585820845 12.3906293,0.585820845 C14.1302098,0.585820845 15.5355971,1.8297706 16.6067912,4.31767011 L18.6919774,4.31767011" id="路径-60" stroke-linecap="round" stroke-linejoin="round"></path>
                <polyline id="路径-61" stroke-linecap="round" stroke-linejoin="round" points="10.4506176 12.3240658 5.44916408 12.3240658 5.44916408 17.7244567 9.00366069 17.7244567"></polyline>
                <polyline id="路径-62" stroke-linecap="round" stroke-linejoin="round" points="8.18446124 14.3328895 10.5991708 16.7475991 15.8679004 11.4788695"></polyline>
                <polyline id="路径-63" stroke-linecap="round" stroke-linejoin="round" points="10.5780859 20.2752602 5.36937659 20.2752602 5.36937659 25.704643 8.89200613 25.704643"></polyline>
                <polyline id="路径-64" stroke-linecap="round" stroke-linejoin="round" points="7.95228684 22.4865477 10.4954231 25.029684 15.5833333 19.9417738"></polyline>
            </g>
        </g>
    </g>
</svg>