<?xml version="1.0" encoding="UTF-8"?>
<svg width="27px" height="27px" viewBox="0 0 27 27" version="1.1" xmlns="http://www.w3.org/2000/svg" xmlns:xlink="http://www.w3.org/1999/xlink">
    <!-- Generator: Sketch 58 (84663) - https://sketch.com -->
    <title>环保</title>
    <desc>Created with Sketch.</desc>
    <g id="Page-1" stroke="none" stroke-width="1" fill="none" fill-rule="evenodd">
        <g id="Data--Copy-6" transform="translate(-50.000000, -519.000000)" fill="#FFFFFF" stroke="#FFFFFF" stroke-width="0.4">
            <g id="环保" transform="translate(51.000000, 520.000000)">
                <path d="M12.5,0 C5.59869739,0 0,5.59869739 0,12.5 C0,19.4013026 5.59869739,25 12.5,25 C19.4013026,25 25,19.4013026 25,12.5 C25,5.59869739 19.4013026,0 12.5,0 Z M20.4408818,20.4408818 C19.4138277,21.4679359 18.2114228,22.2820641 16.8712425,22.8456914 C15.493487,23.4343687 14.0155311,23.7224449 12.5,23.7224449 C10.9844689,23.7224449 9.51903808,23.4218437 8.12875752,22.8456914 C6.78857715,22.2820641 5.59869739,21.4679359 4.55911824,20.4408818 C3.53206413,19.4138277 2.71793587,18.2114228 2.15430862,16.8712425 C1.56563126,15.493487 1.27755511,14.0155311 1.27755511,12.5 C1.27755511,10.9844689 1.57815631,9.51903808 2.15430862,8.12875752 C2.71793587,6.78857715 3.53206413,5.59869739 4.55911824,4.55911824 C5.58617234,3.53206413 6.78857715,2.71793587 8.12875752,2.15430862 C9.50651303,1.56563126 10.9844689,1.27755511 12.5,1.27755511 C14.0155311,1.27755511 15.4809619,1.57815631 16.8712425,2.15430862 C18.2114228,2.71793587 19.4013026,3.53206413 20.4408818,4.55911824 C21.4679359,5.58617234 22.2820641,6.78857715 22.8456914,8.12875752 C23.4343687,9.50651303 23.7224449,10.9844689 23.7224449,12.5 C23.7224449,14.0155311 23.4218437,15.4809619 22.8456914,16.8712425 C22.2820641,18.1988978 21.4679359,19.4013026 20.4408818,20.4408818 Z" id="形状" fill-rule="nonzero"></path>
                <path d="M18.3020572,8 L17.5193176,8 C14.5318615,8 12.288008,8.02352941 10.5920723,8.4 C9.56146513,8.62352941 8.76567988,8.96470588 8.15253387,9.43529412 C7.47415956,9.95294118 7.01756147,10.6352941 6.75664827,11.4941176 C6.57400903,12.0705882 6.49573507,13.1176471 6.84796789,14.1411765 C6.95233317,14.4588235 7.10888108,14.7529412 7.31761164,15.0470588 C6.46964375,16.2705882 6,16.9411765 6,18.3764706 C6,18.7176471 6.31309584,19 6.69141997,19 C7.0697441,19 7.36979428,18.7176471 7.36979428,18.3882353 C7.36979428,16.2588235 8.5960863,15.2117647 9.57451079,14.3647059 C9.69192173,14.2588235 9.80933266,14.1529412 9.9267436,14.0588235 C10.6181636,13.4352941 11.3878575,12.9176471 12.1705971,12.5529412 C12.8750627,12.2235294 13.5403914,12.0352941 14.0361264,12.0352941 C14.4144506,12.0352941 14.7275464,11.7529412 14.7275464,11.4117647 C14.7275464,11.0705882 14.4144506,10.7882353 14.0361264,10.7882353 C13.3055695,10.7882353 12.4445559,11.0117647 11.5313598,11.4470588 C10.6181636,11.8470588 9.73105871,12.4470588 8.94831912,13.1529412 C8.67436026,13.4 8.42649272,13.6470588 8.20471651,13.8941176 C8.19167085,13.8470588 8.16557953,13.8117647 8.15253387,13.7647059 C7.87857501,12.9411765 7.96989463,12.1529412 8.07425991,11.8117647 C8.83090818,9.35294118 11.6618164,9.22352941 17.4801806,9.22352941 C16.7626693,12.3529412 15.5233317,14.3882353 13.7752132,15.2588235 C13.1490216,15.5764706 12.4576016,15.7294118 11.7270447,15.7294118 C10.8921224,15.7294118 10.2007025,15.5176471 9.8615153,15.4 C9.73105871,15.3529412 9.60060211,15.2941176 9.48319117,15.2352941 C9.18314099,15.0705882 8.7265429,15.1647059 8.54390366,15.4470588 C8.45258404,15.5882353 8.42649272,15.7529412 8.4656297,15.9176471 C8.50476668,16.0823529 8.62217762,16.2117647 8.77872554,16.2941176 C8.94831912,16.3882353 9.14400401,16.4705882 9.33968891,16.5411765 C9.74410437,16.6941176 10.409433,16.8823529 11.2052183,16.9411765 C11.3748118,16.9529412 11.5574511,16.9647059 11.7400903,16.9647059 C12.7054691,16.9647059 13.6186653,16.7529412 14.4405419,16.3411765 C15.4841947,15.8235294 16.3843452,14.9764706 17.1149022,13.8352941 C17.9498244,12.5294118 18.5890617,10.8 18.9934772,8.70588235 C19.0195685,8.52941176 18.9673859,8.34117647 18.8369293,8.2 C18.693427,8.07058824 18.5107878,8 18.3020572,8 L18.3020572,8 Z" id="路径"></path>
            </g>
        </g>
    </g>
</svg>