<?xml version="1.0" encoding="UTF-8"?>
<svg width="31px" height="31px" viewBox="0 0 31 31" version="1.1" xmlns="http://www.w3.org/2000/svg" xmlns:xlink="http://www.w3.org/1999/xlink">
    <!-- Generator: Sketch 58 (84663) - https://sketch.com -->
    <title>警报灯警报器</title>
    <desc>Created with Sketch.</desc>
    <g id="Page-1" stroke="none" stroke-width="1" fill="none" fill-rule="evenodd">
        <g id="Data--Copy-6" transform="translate(-910.000000, -717.000000)" fill="#FFFFFF">
            <g id="警报灯警报器" transform="translate(911.000000, 718.000000)">
                <path d="M24.9981969,22 L5.00179844,22 L5.00179844,9.22155688 C4.89725742,4.24753398 9.36332878,0.130302153 15.0046676,0 C20.6423272,0.134737864 25.1028089,4.2506597 24.9981969,9.22155688 L24.9981969,22 Z M6.86974787,20.3532934 L23.1302475,20.3532934 L23.1302475,9.22155688 C23.2351816,5.15988144 19.6107218,1.78107757 15.0046676,1.64670656 C10.3949278,1.77666599 6.76490018,5.15677503 6.86974787,9.22155688 L6.86974787,20.3532934 Z" id="形状" stroke="#FFFFFF" stroke-width="0.4" fill-rule="nonzero"></path>
                <path d="M28.0687219,22 L0.931278105,22 C0.41694741,22 0,21.5522847 0,21 C0,20.4477153 0.41694741,20 0.931278105,20 L28.0687219,20 C28.5830526,20 29,20.4477153 29,21 C29,21.5522847 28.5830526,22 28.0687219,22 L28.0687219,22 Z" id="路径" stroke="#FFFFFF" stroke-width="0.4"></path>
                <path d="M13.7033136,17 C13.7033136,17 8.15990021,16.0245536 10.6374754,11.1830357 C10.6374754,11.1830357 11.1999751,11.7209821 11.1226851,11.9799107 C11.1226851,11.9799107 11.5635245,10.7578125 12.5153371,10.0279018 C13.3326077,9.40066964 14.1627599,7.63727679 13.397016,7 C13.397016,7 17.1899532,7.63727679 17.6121858,10.8247768 C17.6121858,10.8247768 18.0973955,9.80915179 19.0935782,9.70870536 C19.0935782,9.70870536 18.7872806,10.2667411 19.0935782,11.1037946 C19.0935782,11.1037946 22.2352752,15.40625 16.8206785,16.8604911 C16.8206785,16.8604911 18.4437694,15.3861607 15.0015,12.8560268 C15.0015,12.8560268 14.1899546,14.2109375 13.7047449,14.6886161 C13.7033136,14.6897321 12.3493066,15.9040179 13.7033136,17 Z" id="路径"></path>
                <path d="M8.85608309,24 L10.1439169,24 L13,30 L11.7848665,30 L11.0890208,28.4537815 L7.90059347,28.4537815 L7.20474777,30 L6,30 L8.85608309,24 Z M9,27.75 L11,27.75 L10.0207469,25.5 L9.98755187,25.5 L9,27.75 Z M14,24 L17.2232305,24 C19.0744102,24 20,24.605042 20,25.8235294 C20,27.0504202 19.0635209,27.6638655 17.2014519,27.6638655 L15.1869328,27.6638655 L15.1869328,30 L14,30 L14,24 Z M15,24.75 L15,27 L16.6036036,27 C17.0900901,27 17.4414414,26.91 17.6666667,26.73 C17.8828829,26.55 18,26.262 18,25.866 C18,25.47 17.8828829,25.182 17.6576577,25.02 C17.4324324,24.84 17.0810811,24.75 16.6036036,24.75 L15,24.75 Z M21,24 L24.2232305,24 C26.0744102,24 27,24.605042 27,25.8235294 C27,27.0504202 26.0635209,27.6638655 24.2014519,27.6638655 L22.1869328,27.6638655 L22.1869328,30 L21,30 L21,24 Z M22,24.75 L22,27 L23.6036036,27 C24.0900901,27 24.4414414,26.91 24.6666667,26.73 C24.8828829,26.55 25,26.262 25,25.866 C25,25.47 24.8828829,25.182 24.6576577,25.02 C24.4324324,24.84 24.0810811,24.75 23.6036036,24.75 L22,24.75 Z" id="APP"></path>
            </g>
        </g>
    </g>
</svg>