<?xml version="1.0" encoding="UTF-8"?>
<svg width="27px" height="28px" viewBox="0 0 27 28" version="1.1" xmlns="http://www.w3.org/2000/svg" xmlns:xlink="http://www.w3.org/1999/xlink">
    <!-- Generator: Sketch 58 (84663) - https://sketch.com -->
    <title>应急(1)</title>
    <desc>Created with Sketch.</desc>
    <g id="Page-1" stroke="none" stroke-width="1" fill="none" fill-rule="evenodd">
        <g id="Data--Copy-6" transform="translate(-1245.000000, -922.000000)">
            <g id="应急(1)" transform="translate(1246.000000, 923.187804)">
                <path d="M15.86,12.0358594 L11.83,4.47585937 C11.6550618,4.18220449 11.3384787,4.00229955 10.996665,4.00229955 C10.6548514,4.00229955 10.3382682,4.18220449 10.1633301,4.47585937 L6.14,12.0358594 C5.95932719,12.3348031 5.95398083,12.7079632 6.12601515,13.0119602 C6.29804948,13.3159573 6.62070201,13.5035002 6.97,13.502533 L15.03,13.502533 C15.379298,13.5035002 15.7019505,13.3159573 15.8739848,13.0119602 C16.0460192,12.7079632 16.0406728,12.3348031 15.86,12.0358594 Z M11.0366602,6.39918945 C11.31963,6.39435268 11.5589228,6.60754082 11.5866602,6.88918945 L11.5266699,9.67918945 C11.5266699,9.94980898 11.3072894,10.1691895 11.0366699,10.1691895 C10.7660504,10.1691895 10.5466699,9.94980898 10.5466699,9.67918945 L10.4866699,6.88918945 C10.5159253,6.60831574 10.7542953,6.39594975 11.0366699,6.39918945 L11.0366602,6.39918945 Z M11.0366602,11.8291895 C10.7912842,11.8291895 10.5700697,11.681378 10.4761693,11.4546798 C10.3822689,11.2279816 10.4341748,10.9670413 10.6076832,10.7935357 C10.7811916,10.62003 11.0421328,10.5681284 11.2688295,10.6620324 C11.4955262,10.7559365 11.6433301,10.9771533 11.6433301,11.2225293 C11.6433301,11.5575762 11.3717168,11.8291895 11.0366699,11.8291895 L11.0366602,11.8291895 Z" id="形状" fill="#FFFFFF" fill-rule="nonzero"></path>
                <path d="M17.9935251,24.14292 L15.5855507,24.14292 C15.3197104,24.14292 15.1039558,23.9263097 15.1039558,23.659415 L15.1039558,21.2418901 C15.1039558,21.1132778 15.1550049,20.9904675 15.2445816,20.8995686 L21.9869099,14.130499 C22.1747319,13.9419321 22.4800631,13.9419321 22.6678851,14.130499 L24.1126697,15.5810139 C24.3004917,15.7695809 24.3004917,16.076123 24.1126697,16.2646899 C23.9248477,16.4532569 23.6195165,16.4532569 23.4316945,16.2646899 L22.3278791,15.1564966 L16.0671456,21.4420612 L16.0671456,23.17591 L17.7941449,23.17591 L25.3590373,15.5810139 C25.5468593,15.392447 25.8521904,15.392447 26.0400124,15.5810139 C26.2278344,15.7695809 26.2278344,16.076123 26.0400124,16.2646899 L18.3344943,24.0007695 C18.2439545,24.0916684 18.1216294,24.14292 17.9935251,24.14292 Z" id="路径" fill="#FFFFFF" transform="translate(20.642417, 19.065997) rotate(-12.000000) translate(-20.642417, -19.065997) "></path>
                <path d="M24.6003156,15.7479978 C24.48211,15.7479978 24.3639044,15.7027515 24.2734033,15.6131823 C24.0933245,15.4331204 24.0933245,15.1404044 24.2734033,14.9603425 C24.725909,14.5078793 24.725909,13.7700872 24.2734033,13.317624 C23.8208977,12.8660841 23.0839599,12.8651608 22.6314542,13.317624 C22.4513754,13.4976859 22.1586319,13.4976859 21.9785532,13.317624 C21.7984744,13.1375621 21.7984744,12.8448461 21.9785532,12.6647842 C22.7902929,11.8521972 24.1136411,11.8531206 24.9263043,12.6647842 C25.7389676,13.4782946 25.7389676,14.8005953 24.9263043,15.6131823 C24.8367267,15.7027515 24.7185211,15.7479978 24.6003156,15.7479978 Z" id="路径" fill="#FFFFFF" transform="translate(23.689648, 13.901844) rotate(-12.000000) translate(-23.689648, -13.901844) "></path>
                <path d="M13.7995262,25.1674327 L2.56807655,25.1674327 C1.46350705,25.1674327 0.568076553,24.2720022 0.568076553,23.1674327 L0.568076553,2.21225389 C0.568076553,1.10768439 1.46350705,0.212253892 2.56807655,0.212253892 L19.5,0.212253892 C20.6045695,0.212253892 21.5,1.10768439 21.5,2.21225389 L21.5,10.3670291 L21.5,10.3670291" id="路径-117" stroke="#FFFFFF" stroke-width="1.4" stroke-linecap="round" fill-rule="nonzero"></path>
                <path d="M4.26232213,17.0846597 L16.6263342,17.0846597" id="路径-118" stroke="#FFFFFF" stroke-width="1.4" stroke-linecap="round" fill-rule="nonzero"></path>
                <path d="M4.32632596,20.6576006 L14.299286,20.6576006" id="路径-119" stroke="#FFFFFF" stroke-width="1.4" stroke-linecap="round" fill-rule="nonzero"></path>
            </g>
        </g>
    </g>
</svg>