<?xml version="1.0" encoding="UTF-8"?>
<svg width="25px" height="25px" viewBox="0 0 25 25" version="1.1" xmlns="http://www.w3.org/2000/svg" xmlns:xlink="http://www.w3.org/1999/xlink">
    <!-- Generator: Sketch 58 (84663) - https://sketch.com -->
    <title>w0809011道路</title>
    <desc>Created with Sketch.</desc>
    <g id="Page-1" stroke="none" stroke-width="1" fill="none" fill-rule="evenodd">
        <g id="Data--Copy-6" transform="translate(-657.000000, -657.000000)" fill="#FFFFFF" fill-rule="nonzero">
            <g id="w0809011道路" transform="translate(657.000000, 657.000000)">
                <path d="M3.75566406,0 L21.2443359,0 C22.550293,0 23.0238281,0.1359375 23.5011719,0.391308594 C23.9787109,0.646679688 24.3533203,1.02128906 24.6086914,1.49873047 C24.8640625,1.97626953 25,2.44970703 25,3.75566406 L25,21.2443359 C25,22.550293 24.8640625,23.0238281 24.6086914,23.5011719 C24.3533203,23.9787109 23.9787109,24.3533203 23.5012695,24.6086914 C23.0237305,24.8640625 22.550293,25 21.2443359,25 L3.75566406,25 C2.44970703,25 1.97617187,24.8640625 1.49882812,24.6086914 C1.02128906,24.3533203 0.646679687,23.9787109 0.391308594,23.5012695 C0.1359375,23.0237305 0,22.550293 0,21.2443359 L0,3.75566406 C0,2.44970703 0.1359375,1.97617187 0.391308594,1.49882812 C0.646679688,1.02128906 1.02128906,0.646679687 1.49873047,0.391308594 C1.97626953,0.1359375 2.44970703,0 3.75566406,0 Z M3.81591797,1.5625 C3.03232422,1.5625 2.74824219,1.64404297 2.46171875,1.79726563 C2.1786207,1.94711588 1.94711588,2.1786207 1.79726562,2.46171875 C1.64404297,2.74824219 1.5625,3.03232422 1.5625,3.81591797 L1.5625,21.184082 C1.5625,21.9676758 1.64404297,22.2517578 1.79726563,22.5382813 C1.94711588,22.8213793 2.1786207,23.0528841 2.46171875,23.2027344 C2.74824219,23.355957 3.03232422,23.4375 3.81591797,23.4375 L21.184082,23.4375 C21.9676758,23.4375 22.2517578,23.355957 22.5382813,23.2027344 C22.8213793,23.0528841 23.0528841,22.8213793 23.2027344,22.5382813 C23.355957,22.2517578 23.4375,21.9676758 23.4375,21.184082 L23.4375,3.81591797 C23.4375,3.03232422 23.355957,2.74824219 23.2027344,2.46171875 C23.0528841,2.1786207 22.8213793,1.94711588 22.5382813,1.79726563 C22.2517578,1.64404297 21.9676758,1.5625 21.184082,1.5625 L3.81591797,1.5625 Z" id="形状"></path>
                <path d="M9.84892578,5.76171875 L8.65683594,19.8242188 L5.17578125,19.8242188 C4.63642578,19.8242188 4.19921875,19.3870117 4.19921875,18.8476563 C4.19921875,18.7908868 4.20420208,18.7342269 4.2140625,18.6783203 L6.34648438,6.56894531 C6.42868124,6.10209581 6.83427042,5.76171875 7.30830078,5.76171875 L9.84892578,5.76171875 L9.84892578,5.76171875 Z M15.671875,5.76171875 L18.1750977,5.76171875 C18.649128,5.76171875 19.0547172,6.10209581 19.1369141,6.56894531 L21.2694336,18.6783203 C21.3628906,19.2094727 21.0082031,19.715918 20.4769531,19.809375 C20.4210466,19.8192354 20.3643867,19.8242188 20.3076172,19.8242188 L16.8242188,19.8242188 L15.671875,5.76171875 L15.671875,5.76171875 Z M13.496875,16.1132812 L12.0890625,16.1132812 L12.1500977,13.1835938 L13.4358398,13.1835938 L13.496875,16.1132812 Z M13.5131836,16.8945312 L13.5742188,19.8242188 L12.0117188,19.8242188 L12.0727539,16.8945312 L13.5131836,16.8945312 Z M13.3585938,9.47265625 L13.4196289,12.4023438 L12.1663086,12.4023438 L12.2273437,9.47265625 L13.3585938,9.47265625 Z M13.3422852,8.69140625 L12.2436523,8.69140625 L12.3046875,5.76171875 L13.28125,5.76171875 L13.3422852,8.69140625 Z" id="形状"></path>
            </g>
        </g>
    </g>
</svg>