<?xml version="1.0" encoding="UTF-8"?>
<svg width="25px" height="30px" viewBox="0 0 25 30" version="1.1" xmlns="http://www.w3.org/2000/svg" xmlns:xlink="http://www.w3.org/1999/xlink">
    <!-- Generator: Sketch 58 (84663) - https://sketch.com -->
    <title>角色管理</title>
    <desc>Created with Sketch.</desc>
    <g id="Page-1" stroke="none" stroke-width="1" fill="none" fill-rule="evenodd">
        <g id="Data--Copy-6" transform="translate(-330.000000, -251.000000)" fill="#FFFFFF" fill-rule="nonzero">
            <g id="角色管理" transform="translate(330.000000, 251.000000)">
                <path d="M7.33769816,30 L7.33769816,20.9662577 L8.23802922,20.9662577 C9.07833822,20.9662577 9.73858099,20.2760736 9.73858099,19.4325153 L9.73858099,13.0214724 C9.73858099,12.1625767 9.0633327,11.4877301 8.23802922,11.4877301 L3.43626356,11.4877301 C2.61096008,11.4877301 1.93571178,12.1779141 1.93571178,13.0214724 L1.93571178,19.4325153 C1.93571178,20.2760736 2.61096008,20.9662577 3.43626356,20.9662577 L4.33659462,20.9662577 L4.33659462,30 L2.38587732,30 L2.38587732,22.7760736 C0.960353134,22.3006135 0,20.9509202 0,19.4325153 L0,13.0214724 C0,11.0889571 1.54556832,9.50920245 3.43626356,9.50920245 L8.23802922,9.50920245 C10.1287245,9.50920245 11.6892983,11.0889571 11.6892983,13.0214724 L11.6892983,19.4325153 C11.6742928,20.9509202 10.7139396,22.3006135 9.30342098,22.7760736 L9.30342098,30 L7.33769816,30 Z M23.0784862,27.4079755 C22.058111,27.4079755 21.217802,26.5644172 21.217802,25.506135 C21.217802,24.4631902 22.0431055,23.6042945 23.0784862,23.6042945 C24.113867,23.6042945 24.9391704,24.4478528 24.9391704,25.506135 C24.9391704,26.5644172 24.0988614,27.4079755 23.0784862,27.4079755 L23.0784862,27.4079755 Z M15.8008102,26.5030675 L15.8008102,26.3343558 C15.6357495,26.2269939 15.5157053,26.0736196 15.4406777,25.8895706 C15.3806557,25.7515337 15.3506446,25.6134969 15.3356391,25.4754601 L15.3356391,16.0276074 L13.940126,16.0276074 C13.6850322,16.0122699 13.4449439,15.8895706 13.2648777,15.7055215 C13.0848114,15.5214724 12.9947783,15.2607362 13.0247894,15 C13.0397949,14.493865 13.4449439,14.0797546 13.940126,14.0644172 L15.3356391,14.0644172 L15.3356391,4.60122699 C15.3356391,4.40184049 15.3806557,4.20245399 15.5157053,4.03374233 C15.710777,3.74233129 16.0108874,3.55828221 16.3260033,3.55828221 L18.8019137,3.55828221 C19.0870185,3.55828221 19.3121013,3.6809816 19.4921675,3.86503067 C19.6722337,4.04907975 19.7622668,4.32515337 19.7622668,4.57055215 C19.7472613,5.09202454 19.3421123,5.50613497 18.8319247,5.53680982 L17.2863564,5.53680982 L17.2863564,14.0490798 L18.8319247,14.0490798 C19.3571178,14.0490798 19.8072834,14.493865 19.8072834,15.0460123 C19.8072834,15.5828221 19.3721234,16.0429448 18.8319247,16.0429448 L17.2863564,16.0429448 L17.2863564,24.5245399 L18.8169192,24.5245399 C19.3421123,24.5245399 19.7922779,24.9846626 19.7922779,25.5214724 C19.7922779,26.0582822 19.3571178,26.5184049 18.8169192,26.5184049 L15.8008102,26.5030675 L15.8008102,26.5030675 Z M23.0784862,16.9325153 C22.058111,16.9325153 21.217802,16.0736196 21.217802,15.0306748 C21.217802,13.9877301 22.058111,13.1288344 23.0784862,13.1288344 C24.0988614,13.1288344 24.9391704,13.9877301 24.9391704,15.0306748 C24.9391704,16.0889571 24.0988614,16.9325153 23.0784862,16.9325153 Z M5.83714639,8.12883436 C3.63133529,8.12883436 1.8606842,6.30368098 1.8606842,4.06441718 C1.8606842,1.82515337 3.6463408,0 5.83714639,0 C8.02795198,0 9.81360858,1.82515337 9.81360858,4.06441718 C9.79860307,6.3190184 8.02795198,8.12883436 5.83714639,8.12883436 Z M5.83714639,1.99386503 C4.72673808,1.99386503 3.79639598,2.92944785 3.79639598,4.0797546 C3.79639598,5.21472393 4.71173256,6.16564417 5.83714639,6.16564417 C6.96256022,6.16564417 7.8778968,5.21472393 7.8778968,4.0797546 C7.8778968,2.94478528 6.9475547,1.99386503 5.83714639,1.99386503 L5.83714639,1.99386503 Z M23.0784862,6.45705521 C22.058111,6.48773006 21.187791,5.6595092 21.15778,4.61656442 C21.1277689,3.57361963 21.9380669,2.68404908 22.9584421,2.65337423 L23.0784862,2.65337423 C24.0988614,2.62269939 24.9691815,3.45092025 24.9991925,4.49386503 C25.0292035,5.53680982 24.2189056,6.42638037 23.1985304,6.45705521 L23.0784862,6.45705521 L23.0784862,6.45705521 Z" id="形状"></path>
            </g>
        </g>
    </g>
</svg>