<?xml version="1.0" encoding="UTF-8"?>
<svg width="33px" height="27px" viewBox="0 0 33 27" version="1.1" xmlns="http://www.w3.org/2000/svg" xmlns:xlink="http://www.w3.org/1999/xlink">
    <!-- Generator: Sketch 58 (84663) - https://sketch.com -->
    <title>分组 15</title>
    <desc>Created with Sketch.</desc>
    <g id="Page-1" stroke="none" stroke-width="1" fill="none" fill-rule="evenodd">
        <g id="Data--Copy-6" transform="translate(-1242.000000, -53.000000)">
            <g id="分组-15" transform="translate(1242.000000, 54.000000)">
                <path d="M3.18,14.86 L4.42,14.86 L7.17,22 L6,22 L5.33,20.16 L2.26,20.16 L1.59,22 L0.43,22 L3.18,14.86 Z M2.59,19.26 L5,19.26 L3.82,16.03 L3.78,16.03 L2.59,19.26 Z M7.99,14.86 L10.95,14.86 C12.65,14.86 13.5,15.58 13.5,17.03 C13.5,18.49 12.64,19.22 10.93,19.22 L9.08,19.22 L9.08,22 L7.99,22 L7.99,14.86 Z M9.08,15.79 L9.08,18.29 L10.86,18.29 C11.4,18.29 11.79,18.19 12.04,17.99 C12.28,17.79 12.41,17.47 12.41,17.03 C12.41,16.59 12.28,16.27 12.03,16.09 C11.78,15.89 11.39,15.79 10.86,15.79 L9.08,15.79 Z M14.63,14.86 L17.59,14.86 C19.29,14.86 20.14,15.58 20.14,17.03 C20.14,18.49 19.28,19.22 17.57,19.22 L15.72,19.22 L15.72,22 L14.63,22 L14.63,14.86 Z M15.72,15.79 L15.72,18.29 L17.5,18.29 C18.04,18.29 18.43,18.19 18.68,17.99 C18.92,17.79 19.05,17.47 19.05,17.03 C19.05,16.59 18.92,16.27 18.67,16.09 C18.42,15.89 18.03,15.79 17.5,15.79 L15.72,15.79 Z" id="APP" fill="#FFFFFF"></path>
                <path d="M7.59185818,10.8026366 L20.9263379,10.8026366 C22.0309074,10.8026366 22.9263379,11.6980671 22.9263379,12.8026366 L22.9263379,25.1393366 L22.9263379,25.1393366" id="路径-95" stroke="#FFFFFF" stroke-width="1.2" stroke-linecap="round" stroke-linejoin="round" fill-rule="nonzero"></path>
                <polyline id="路径-96" stroke="#FFFFFF" stroke-width="1.2" stroke-linecap="round" stroke-linejoin="round" fill-rule="nonzero" points="7.33685264 3.91748685 11.1215234 10.6792064 12.8432808 10.6792064 12.8432808 7.29834662"></polyline>
                <polyline id="路径-97" stroke="#FFFFFF" stroke-width="1.2" stroke-linecap="round" stroke-linejoin="round" fill-rule="nonzero" points="14.6690453 1.3166809 14.6690453 10.8098419 16.6780755 10.8098419 16.6780755 7.66268501 17.8644465 7.66268501"></polyline>
                <path d="M18.8559607,10.7847799 L18.8559607,4.74108584" id="路径-98" stroke="#FFFFFF" stroke-width="1.2" stroke-linecap="round" stroke-linejoin="round" fill-rule="nonzero"></path>
                <polyline id="路径-99" stroke="#FFFFFF" stroke-width="1.2" stroke-linecap="round" stroke-linejoin="round" fill-rule="nonzero" points="25.9965785 16.910552 22.933295 16.910552 22.933295 15.7348323 28.130456 10.3624857"></polyline>
                <polyline id="路径-100" stroke="#FFFFFF" stroke-width="1.2" stroke-linecap="round" stroke-linejoin="round" fill-rule="nonzero" points="31.2976625 18.3625799 23.1437505 18.3625799 23.1437505 20.6682812 25.9337743 20.6682812"></polyline>
                <path d="M28.2469942,22.52412 L23.0312849,22.52412" id="路径-101" stroke="#FFFFFF" stroke-width="1.2" stroke-linecap="round" stroke-linejoin="round" fill-rule="nonzero"></path>
                <circle id="椭圆形" stroke="#FFFFFF" stroke-width="1.2" stroke-linecap="round" stroke-linejoin="round" fill-rule="nonzero" cx="6.1" cy="2.2" r="2"></circle>
                <circle id="椭圆形" stroke="#FFFFFF" stroke-width="1.2" stroke-linecap="round" stroke-linejoin="round" fill-rule="nonzero" cx="18.8" cy="3.2" r="1.5"></circle>
                <circle id="椭圆形" stroke="#FFFFFF" stroke-width="1.2" stroke-linecap="round" stroke-linejoin="round" fill-rule="nonzero" cx="30" cy="9" r="2"></circle>
                <circle id="椭圆形-copy-9" stroke="#FFFFFF" stroke-width="1.2" stroke-linecap="round" stroke-linejoin="round" fill-rule="nonzero" cx="29.5" cy="22.5" r="1.5"></circle>
            </g>
        </g>
    </g>
</svg>