<?xml version="1.0" encoding="UTF-8"?>
<svg width="27px" height="26px" viewBox="0 0 27 26" version="1.1" xmlns="http://www.w3.org/2000/svg" xmlns:xlink="http://www.w3.org/1999/xlink">
    <!-- Generator: Sketch 58 (84663) - https://sketch.com -->
    <title>分组 8</title>
    <desc>Created with Sketch.</desc>
    <g id="Page-1" stroke="none" stroke-width="1" fill="none" fill-rule="evenodd" stroke-linecap="round" stroke-linejoin="round">
        <g id="Data--Copy-6" transform="translate(-330.000000, -987.000000)" fill-rule="nonzero" stroke="#FFFFFF" stroke-width="1.4">
            <g id="分组-8" transform="translate(331.000000, 988.000000)">
                <path d="M14.0879555,18.8692236 C8.09498323,18.8692236 4.51992388,18.8692236 3.36277743,18.8692236 C1.78997673,18.8692236 0.778049442,18.3355098 0.601942049,16.7498043 C0.583699918,16.5855486 0.574426057,16.4100051 0.574426057,16.2225978 C0.574426057,14.8915208 1.50387652,14.16409 3.36277743,14.0403055" id="路径-53"></path>
                <path d="M24.5135294,23.8289181 C14.9727218,23.8289181 9.2812298,23.8289181 7.43905345,23.8289181 C4.93515582,23.8289181 3,23.3405629 3,21.1822923 C3,19.4648475 4.37939719,18.6064163 7.13819158,18.6069987" id="路径-53" transform="translate(13.756765, 21.217958) scale(-1, 1) translate(-13.756765, -21.217958) "></path>
                <polygon id="路径-54" points="5.62567588 12.3217505 12.898713 12.3217505 17.9561664 17.2709919 18.3788647 0.271715471"></polygon>
            </g>
        </g>
    </g>
</svg>