<?xml version="1.0" encoding="UTF-8"?>
<svg width="31px" height="30px" viewBox="0 0 31 30" version="1.1" xmlns="http://www.w3.org/2000/svg" xmlns:xlink="http://www.w3.org/1999/xlink">
    <!-- Generator: Sketch 58 (84663) - https://sketch.com -->
    <title>取证</title>
    <desc>Created with Sketch.</desc>
    <g id="Page-1" stroke="none" stroke-width="1" fill="none" fill-rule="evenodd">
        <g id="Data--Copy-6" transform="translate(-655.000000, -252.000000)" fill="#FFFFFF" stroke="#FFFFFF" stroke-width="0.4">
            <g id="取证" transform="translate(656.000000, 253.000000)">
                <path d="M12.0826916,16.5816653 C12.0967478,16.539644 12.0967478,16.5116297 12.110804,16.4696084 C12.3638158,15.4050678 12.4903217,14.2985059 12.5465466,13.1639298 L12.5465466,13.1499227 C12.5465466,12.9818373 12.5465466,12.813752 12.5606028,12.6596737 C12.5606028,12.5196026 12.5324904,12.3935386 12.4903217,12.2814817 C12.4059845,12.0573679 12.2373099,11.9313038 11.9983544,11.9313038 C11.6469491,11.9172967 11.4220497,12.2114461 11.4079935,12.6596737 C11.3798811,13.2479725 11.3798811,13.8362712 11.3096,14.4245699 C10.9581948,17.5061347 9.84775413,20.2375217 7.38791727,22.2965673 C7.12084927,22.5206811 7.05056821,22.8148305 7.20518653,23.0529514 C7.23329895,23.0949727 7.24735516,23.122987 7.28952379,23.1650083 C7.51442316,23.4171363 7.83771601,23.4311434 8.16100885,23.1510012 C8.47024549,22.8708589 8.79353833,22.6047238 9.08871875,22.2965673 C10.6770706,20.6157138 11.6047805,18.6827322 12.0967478,16.5956724 C12.0826916,16.5956724 12.0826916,16.5816653 12.0826916,16.5816653 L12.0826916,16.5816653 Z M13.4039754,21.2740481 C13.2634133,21.1199698 13.1369074,20.9098631 12.9401205,20.8118134 C12.6589963,20.6857493 12.4340969,20.8398276 12.2513661,21.0919556 C11.773455,21.7783041 11.2955438,22.4506456 10.7895202,23.122987 C10.5365084,23.4731648 10.508396,23.7953284 10.775464,24.0194422 L10.775464,24.0334493 C10.8035765,24.0614635 10.8316889,24.0754706 10.8598013,24.0894777 C11.1128131,24.2295489 11.4220497,24.1595133 11.6469491,23.8653639 C12.1810851,23.1650083 12.6730525,22.4506456 13.179076,21.7362828 C13.2212447,21.6662472 13.2493571,21.5962117 13.2774695,21.4981619 C13.3336944,21.4561405 13.3618068,21.3720979 13.4039754,21.2740481 C13.4039754,21.2880552 13.4039754,21.2880552 13.4039754,21.2740481 L13.4039754,21.2740481 Z M11.7875112,1.14582701 C13.5445375,1.13181989 15.0907207,1.42596926 16.5385104,2.07029645 C18.4923237,2.95274456 20.0385068,4.17136337 21.1770599,5.72615289 C22.0626012,6.93076459 22.6951306,8.34548298 23.1027608,9.95630095 C23.1308732,10.082365 23.1730418,10.1944219 23.2152104,10.2784645 C23.3557725,10.5445997 23.5525595,10.6426495 23.8477399,10.586621 C24.1991452,10.5165855 24.3256511,10.2224361 24.2272576,9.74619426 C23.8617961,8.13537629 23.2152104,6.67863656 22.2734443,5.37597507 C21.9360953,4.89973323 21.5425214,4.43749851 21.1208351,4.00327801 C18.0425249,0.837670526 14.2614043,-0.563040753 9.84775413,0.20735045 C5.74334062,0.90770609 2.72125534,3.24689392 0.753385849,6.90275036 C0.458205425,7.44902776 0.247362266,8.02331938 0.0365191065,8.59761101 C-0.00564952543,8.70966791 -0.00564952543,8.82172481 0.0084066852,8.9197746 C0.0365191065,9.08785995 0.148968792,9.2419382 0.359811951,9.32598087 C0.654992374,9.45204489 0.964229008,9.31197376 1.10479111,9.00381728 C1.16101596,8.86374615 1.2172408,8.73768214 1.25940943,8.59761101 C2.9320985,4.07331358 7.12084927,1.15983412 11.7875112,1.14582701 Z M28.8517509,27.0309714 C28.7674136,26.9189145 28.6690202,26.8068576 28.5706267,26.6948007 C27.8115913,25.8123526 27.0525559,24.9299045 26.2654081,24.0054351 C26.4340827,23.8233426 26.5605886,23.6832715 26.6870945,23.5291932 C28.1770528,21.7502899 28.7955261,19.7332657 28.2613901,17.4641134 C27.4320736,13.8642854 24.0445269,11.4970834 20.4742494,11.9873323 C15.6810815,12.6456666 12.574659,18.0664192 15.3718449,22.5907167 C17.3959392,25.8683811 21.6268586,26.974943 24.8457309,25.0559685 C25.3939231,24.7338049 25.3939231,24.7338049 25.8015532,25.2100468 C26.5184199,26.0644806 27.2493429,26.9049074 27.9802658,27.7453342 C28.2332776,28.0394836 28.5425143,28.0815049 28.8095823,27.8573911 C29.0485379,27.6752986 29.0625941,27.3251208 28.8517509,27.0309714 L28.8517509,27.0309714 Z M21.317622,24.8879413 C17.9863001,24.8598689 15.3999573,22.2265317 15.442126,18.9488674 C15.4842946,15.5591461 18.0706373,13.0518729 21.4722403,13.0938942 C24.8035622,13.1359155 27.3336802,15.7132243 27.2915115,19.03291 C27.3055677,22.38061 24.6348877,24.9018903 21.317622,24.8879413 L21.317622,24.8879413 Z" id="形状" fill-rule="nonzero"></path>
                <path d="M11.2013681,4.15486159 C13.4015438,4.15486159 15.0016716,4.59145561 16.4446439,5.53506203 C18.016198,6.56317053 19.1162859,7.97153832 19.7734812,9.70383071 C19.8020549,9.7742491 19.8163418,9.85875117 19.8592024,9.92916956 C19.9020629,10.0277553 19.9449235,10.0981737 19.9877841,10.1685921 L20.0735052,10.2530942 C20.1878,10.3516799 20.3306686,10.3939309 20.487824,10.3657636 C20.5306846,10.3657636 20.5592583,10.3516799 20.6021188,10.3375962 C20.9450034,10.2249268 21.0878719,9.91508588 20.9450034,9.53482658 C20.6592663,8.6898059 20.2592343,7.90111993 19.7591944,7.18285236 C19.4591704,6.74625834 19.1162859,6.35191536 18.7162539,5.97165605 C18.5733854,5.83081927 18.41623,5.68998249 18.2590746,5.54914571 C16.4303571,3.92952275 14.3301894,3.02816736 11.9585714,3 L11.6585474,3 C11.4585314,3 11.2585155,3.01408368 11.0584995,3.02816736 C10.8584835,3.04225103 10.6441807,3.07041839 10.4441647,3.09858575 C10.3441567,3.11266942 10.2298619,3.1267531 10.1298539,3.14083678 C7.2867697,3.60559815 5.12945455,5.14071905 3.54361361,7.47860959 C2.5578206,8.9433121 2.05778066,10.5770187 2.00063324,12.3374785 C1.98634639,12.7599888 2.21493607,12.9994114 2.57210745,12.9994114 C2.92927884,13.013495 3.14358166,12.7740725 3.17215538,12.3656458 C3.18644223,12.0558049 3.20072909,11.7318803 3.24358965,11.4220394 C3.78649015,7.23918707 7.38677769,4.14077792 11.2013681,4.15486159 L11.2013681,4.15486159 Z" id="路径"></path>
                <path d="M6.60061004,13.2309992 C6.61438749,13.0383992 6.61438749,12.8457992 6.62816494,12.6531991 C6.62816494,12.5981706 6.62816494,12.5568991 6.64194239,12.4881134 C6.64194239,10.5483561 7.55125411,8.911256 9.03921874,7.96201307 C9.5765393,7.61808447 10.1965246,7.37045588 10.8853971,7.23288444 C13.4066705,6.71011297 15.8452792,8.01704164 16.8648105,10.4107847 C16.9061428,10.5208418 16.9474752,10.6721704 17.0163624,10.7134419 C17.2230242,10.8097419 17.4847958,10.9335562 17.6639026,10.8785276 C17.705235,10.8647704 17.7465673,10.8372561 17.7741222,10.7959847 C17.8843418,10.6859276 17.9670065,10.4933275 17.9945614,10.341999 C18.0221163,10.2181847 17.9394516,10.0530989 17.8705644,9.9155275 C16.7132585,7.50802732 14.7844155,6.15982721 12.1253676,6.00849863 C10.3756314,5.91219862 8.72233738,6.64132725 7.49614431,7.83819877 C6.26995123,9.03507029 5.48463657,10.6996847 5.47085912,12.4743563 C5.47085912,13.1897278 5.38819442,13.9050992 5.26419736,14.6067136 C5.09886796,15.5146851 4.7268768,16.3401137 4.14822389,17.0692423 C3.91400724,17.3581424 3.96911704,17.6883138 4.23088859,17.8809138 C4.4513278,18.0459996 4.71309935,18.0459996 4.93353856,17.8396424 C4.96109346,17.8121281 4.98864836,17.7846138 5.01620326,17.7433424 C5.22286501,17.4957138 5.41574932,17.2343281 5.56730127,16.9591852 C6.22861888,15.8035851 6.51794534,14.5379279 6.60061004,13.2309992 L6.60061004,13.2309992 Z" id="路径"></path>
                <path d="M15.1844375,12.9109634 C15.4013199,12.8552913 15.5459082,12.7300292 15.5892846,12.5212589 C15.6326611,12.3959967 15.6326611,12.2568165 15.6037435,12.0758823 C15.3724023,10.4057199 13.6951786,9.01391802 11.9456608,9 C10.4564019,9 8.98160173,10.0577695 8.49000169,11.4356534 C8.41770756,11.6305056 8.35987227,11.8392759 8.33095462,12.0480462 C8.22974284,12.7717832 8.25866049,13.4955202 8.17190754,14.2192572 C8.07069577,15.0543384 7.89718987,15.8615835 7.6224722,16.6131566 C7.15978981,17.8796963 6.42238975,19.0209739 5.26568377,19.9673992 C5.15001317,20.0648253 5.07771905,20.1761695 5.03434258,20.2735956 C4.96204845,20.4545299 5.00542493,20.6354641 5.15001317,20.8024804 C5.36689554,21.0390867 5.71390734,21.0808407 6.00308383,20.8303164 C6.3356368,20.551956 6.6826486,20.2596776 6.95736627,19.9395632 C8.70688406,17.9214504 9.32861352,15.527551 9.4298253,12.9805535 L9.4298253,12.5351769 C9.44428412,12.2289805 9.4876606,11.9367021 9.57441354,11.6861777 C9.77683709,11.1155389 10.1816842,10.6701623 10.8467901,10.3918019 C11.844449,9.97426135 12.8131903,10.0856055 13.6373433,10.7815065 C14.1289433,11.185129 14.3458257,11.7140138 14.403661,12.3264066 C14.4759551,12.7717832 14.7940493,13.0083896 15.1844375,12.9109634 L15.1844375,12.9109634 Z M21.3005204,14.8734041 C19.2329085,15.0125843 17.4255554,16.8358449 17.3821789,18.8817937 C17.3821789,18.8817937 17.3821789,18.9374658 17.3677201,19.0209739 C17.3821789,19.4524325 17.5556848,19.6751208 17.9316142,19.6890388 C18.3075437,19.7029568 18.5099672,19.4802685 18.5244261,19.0209739 C18.5967202,17.2394674 19.5943791,16.195616 21.4017322,16.0007637 C21.8210381,15.9590096 22.0379205,15.7224033 21.994544,15.3744528 C21.9656263,15.0404204 21.6909087,14.8455681 21.3005204,14.8734041 Z" id="形状" fill-rule="nonzero"></path>
            </g>
        </g>
    </g>
</svg>