<?xml version="1.0" encoding="UTF-8"?>
<svg width="28px" height="26px" viewBox="0 0 28 26" version="1.1" xmlns="http://www.w3.org/2000/svg" xmlns:xlink="http://www.w3.org/1999/xlink">
    <!-- Generator: Sketch 58 (84663) - https://sketch.com -->
    <title>积分商城代运营-01</title>
    <desc>Created with Sketch.</desc>
    <g id="Page-1" stroke="none" stroke-width="1" fill="none" fill-rule="evenodd">
        <g id="Data--Copy-6" transform="translate(-329.000000, -50.000000)" fill="#FFFFFF" fill-rule="nonzero" stroke="#FFFFFF" stroke-width="0.5">
            <g id="积分商城代运营-01" transform="translate(330.000000, 51.000000)">
                <path d="M23.4552715,15.3731598 C23.59155,14.0622777 23.4870915,12.7862151 23.1827144,11.6060039 C23.1159444,11.3334468 22.8607319,11.1477429 22.5765683,11.1477429 C22.4133996,11.1465626 22.2564897,11.2104657 22.1405718,11.3253067 C22.0246538,11.4401477 21.959289,11.5964543 21.9589462,11.759627 C21.9589462,11.8147904 21.9705527,11.8699539 21.9850282,11.927856 C22.2316337,12.8819361 22.3389612,13.8941791 22.2519777,14.9468493 C21.9566487,14.8897582 21.6565953,14.8606348 21.3557996,14.8598657 C18.7950673,14.8598657 16.715809,16.9392544 16.715809,19.4998563 C16.715809,20.5379206 17.0550056,21.4978692 17.6438071,22.2721138 C16.5128909,22.9334233 15.2310903,23.3596034 13.8766512,23.4844059 C11.8554254,23.6642414 9.95587216,23.2059804 8.36082651,22.2721138 C8.94962801,21.4978692 9.28895504,20.54092 9.28895504,19.4998563 C9.28895504,16.939124 7.20969676,14.8598657 4.64896445,14.8598657 C4.348205,14.8604944 4.04818166,14.8896191 3.75291679,14.9468493 C3.69788372,14.3030147 3.71509785,13.6360976 3.80808025,12.9603126 C4.20543977,10.0023511 6.04096163,7.4474873 8.58434937,6.06122816 C9.17888891,7.93456893 10.9362951,9.29187703 13.0010779,9.29187703 C15.0601227,9.29187703 16.8117908,7.94343682 17.411938,6.08157212 C18.279165,6.54544076 19.0564091,7.15171721 19.7263257,7.85632288 C19.8451293,7.98112534 19.9988827,8.05363332 20.1727194,8.05363335 C20.5439969,8.05363335 20.7904719,7.7491258 20.7904719,7.43014276 C20.7903375,7.27071816 20.7278541,7.11766893 20.6163744,7.00370181 C19.7584197,6.10114367 18.7495116,5.35526395 17.6350697,4.79964107 C17.6408077,4.75034606 17.6408077,4.70105104 17.6408077,4.65188644 C17.6408077,2.09115413 15.5615494,0.0118958505 13.0008171,0.0118958505 C10.4402152,0.0118958505 8.36082651,2.09115413 8.36082651,4.65188644 C8.36082651,4.70118144 8.36082651,4.7562145 8.36669495,4.80550951 C5.09248911,6.43250565 2.76101773,9.72392562 2.50867423,13.5112951 C2.46524767,14.1435232 2.47659336,14.7670138 2.54636273,15.3732902 C0.987981285,16.1580781 0.00593319448,17.7551554 0.00883697845,19.4999867 C0.00883697845,22.0605886 2.08810171,24.1399773 4.64883402,24.1399774 C5.70724221,24.1399774 6.6787973,23.7861748 7.4589104,23.1800288 C9.40775863,24.3921905 11.7829174,24.9808615 14.3058307,24.6793534 C15.8399749,24.4937799 17.2812671,23.9687489 18.5428542,23.1828978 C19.3229673,23.7891742 20.2945224,24.1428464 21.3529306,24.1428464 C23.9136629,24.1428464 25.9929312,22.0634577 25.9929312,19.5028558 C25.9965463,17.7570277 25.0143921,16.158699 23.4552715,15.3731598 Z M9.61641475,4.28647739 C9.80198828,2.57836619 11.2434109,1.24714011 13.0006867,1.24714011 C14.7580929,1.24714011 16.1995155,2.57262816 16.379351,4.27773993 C16.3968259,4.40071664 16.4055634,4.52473661 16.4054345,4.64901742 C16.4054345,4.96513144 16.3620065,5.26663957 16.280761,5.55093353 C15.892139,6.9920953 14.5669117,8.05076433 13.0008171,8.05076433 C11.4289844,8.05076433 10.1124947,6.9920953 9.72100363,5.54506506 C9.63819265,5.25358545 9.59620117,4.95203231 9.59620117,4.64901742 C9.59893978,4.52708401 9.60480822,4.40241196 9.61641475,4.28647739 L9.61641475,4.28647739 Z M7.32836991,21.5908516 C7.07317164,21.9268042 6.75379182,22.2087272 6.3887653,22.4202597 C5.88133969,22.7305052 5.28680015,22.9017337 4.65157263,22.9017337 C2.76949438,22.9017337 1.24982575,21.379196 1.24982575,19.4999867 C1.24982575,18.3109077 1.8561022,17.272713 2.7723634,16.6666974 C3.12248402,16.433416 3.51290967,16.2672342 3.92375398,16.1766163 C4.15862254,16.1213224 4.39935954,16.0953708 4.65457208,16.0953708 C6.53665033,16.0953708 8.05631896,17.6179085 8.05631896,19.4969873 C8.05206499,20.2562669 7.79604367,20.9926837 7.32836991,21.5908516 L7.32836991,21.5908516 Z M21.3528002,22.9016032 C20.7147037,22.9016032 20.1202945,22.7276362 19.6156075,22.4201292 C19.2459141,22.2079182 18.9240685,21.9215915 18.6702649,21.5791147 C18.2178723,21.0106571 17.9539223,20.2857075 17.9539223,19.4997259 C17.9539223,17.6176477 19.47646,16.0981095 21.3556692,16.0981095 C21.6022747,16.0981095 21.8457503,16.1241915 22.0720117,16.173356 C22.4888985,16.2648084 22.8851604,16.4329356 23.2406165,16.6691752 C24.1898458,17.2990856 24.7595381,18.3633766 24.7572923,19.502595 C24.7545471,21.3790656 23.2348784,22.9016032 21.3528002,22.9016032 L21.3528002,22.9016032 Z" id="形状"></path>
                <path d="M9.90644675,14.2207259 C9.90644675,15.9288371 11.2927059,17.3149659 13.0006867,17.3149659 C14.7089283,17.3149659 16.0951874,15.9288372 16.0951874,14.2207259 C16.0951874,12.5126147 14.7089283,11.1292246 13.0006867,11.1292246 C11.2927059,11.1292246 9.90644675,12.5126147 9.90644675,14.2207259 L9.90644675,14.2207259 Z M14.8569438,14.2207259 C14.8569438,15.2444451 14.0246666,16.0767222 13.0008171,16.0767222 C11.9772284,16.0767222 11.1448209,15.2444451 11.1448209,14.2207259 C11.1448209,13.1970068 11.977098,12.3647297 13.0008171,12.3647297 C14.0245362,12.3647297 14.8569438,13.1970068 14.8569438,14.2207259 Z" id="形状"></path>
            </g>
        </g>
    </g>
</svg>