<?xml version="1.0" encoding="UTF-8"?>
<svg width="28px" height="25px" viewBox="0 0 28 25" version="1.1" xmlns="http://www.w3.org/2000/svg" xmlns:xlink="http://www.w3.org/1999/xlink">
    <!-- Generator: Sketch 58 (84663) - https://sketch.com -->
    <title>报警 (1)</title>
    <desc>Created with Sketch.</desc>
    <g id="Page-1" stroke="none" stroke-width="1" fill="none" fill-rule="evenodd">
        <g id="Data--Copy-6" transform="translate(-655.000000, -120.000000)" fill="#FFFFFF" fill-rule="nonzero">
            <g id="报警-(1)" transform="translate(655.000000, 120.000000)">
                <path d="M3.88335464,23.2756474 L25.8161835,23.2756474 C26.4251658,23.2756474 26.7296569,23.56287 26.7296569,24.1373152 L26.7296569,24.1383074 C26.7296569,24.7127691 26.4251658,25 25.8161835,25 L3.88335464,25 C3.27435483,25 2.96985493,24.7127691 2.96985493,24.1383074 L2.96985493,24.1373152 C2.96985493,23.5628534 3.27435483,23.2756226 3.88335464,23.2756226 L3.88335464,23.2756474 Z M15.2780701,15.5205063 L18.3878492,15.5205063 L13.8251145,21.1987174 L14.7097791,16.6782359 L11.6,16.6782359 L16.1637113,11 L15.2780701,15.5205063 L15.2780701,15.5205063 Z M14.0002319,0 L14.0012086,0 C14.5666185,0 14.8493235,0.287230865 14.8493235,0.861692596 L14.8493235,4.31044747 C14.8493235,4.8849092 14.5666185,5.17214007 14.0012086,5.17214007 L14.0002319,5.17214007 C13.434822,5.17214007 13.152117,4.8849092 13.152117,4.31044747 L13.152117,0.861692596 C13.152117,0.287230865 13.434822,0 14.0002319,0 Z M28,12.4995163 C28,12.7282234 27.9105114,12.9475488 27.7512477,13.109176 C27.591984,13.2708033 27.3760117,13.3614722 27.1509085,13.3612094 L23.7574722,13.3612094 C23.2888016,13.3612094 22.908869,12.9751938 22.908869,12.4990202 C22.908869,12.0228465 23.2888016,11.6368314 23.7574722,11.6368314 L27.1518851,11.6368314 C27.6201709,11.6368314 28,12.0237088 28,12.4995163 Z M5.09113105,12.4995163 C5.09113105,12.9754063 4.71140753,13.3612089 4.24301613,13.3612089 L0.848603226,13.3612089 C0.379932606,13.3612089 0,12.9751938 0,12.4990202 C0,12.0228465 0.379932606,11.6368314 0.848603226,11.6368314 L4.24301613,11.6368314 C4.71130194,11.6368314 5.09113105,12.0237088 5.09113105,12.4995163 L5.09113105,12.4995163 Z M4.14012998,3.77505549 C4.29920758,3.61326349 4.5150622,3.52235558 4.74014864,3.52235558 C4.96523508,3.52235558 5.18108969,3.61326349 5.3401673,3.77505549 L7.73933857,6.21263568 C8.07072645,6.54932885 8.07072644,7.09521631 7.73933855,7.43190947 C7.40795066,7.76860263 6.87066474,7.76860264 6.53927684,7.43190949 L4.14108217,4.99336186 C3.8100767,4.65688557 3.8100767,4.11153178 4.14108217,3.77505549 L4.14012998,3.77505549 Z M23.8603827,3.77505549 C23.7013032,3.6132483 23.4854381,3.52233075 23.2603397,3.52233075 C23.0352413,3.52233075 22.8193762,3.6132483 22.6602966,3.77505549 L20.2611253,6.21263568 C19.9297374,6.54932885 19.9297374,7.09521632 20.2611253,7.43190948 C20.5925132,7.76860265 21.1297992,7.76860265 21.4611871,7.43190949 L23.8603583,4.99336186 C24.1913638,4.65688557 24.1913638,4.11153178 23.8603583,3.77505549 L23.8603827,3.77505549 Z" id="形状"></path>
                <path d="M15,8.038851 C11.1740388,8.038851 7.75958443,11.15595 7.713305,14.7828163 L8.0133052,24.0912991 L21.9856724,24.0912991 L22.285672,14.7827921 C22.2404156,11.15595 18.8259612,8.038851 15,8.038851 Z M21.3638294,8.74920698 C23.0517541,10.3494218 24,12.5197772 24,14.7828163 L24,25 L6,25 L6,14.7827921 C6,10.070653 10.029043,6.25055949 14.9994888,6.25002423 C17.3865816,6.25002423 19.6759046,7.14899211 21.3638294,8.74920698 Z" id="形状"></path>
            </g>
        </g>
    </g>
</svg>