<?xml version="1.0" encoding="UTF-8"?>
<svg width="25px" height="25px" viewBox="0 0 25 25" version="1.1" xmlns="http://www.w3.org/2000/svg" xmlns:xlink="http://www.w3.org/1999/xlink">
    <!-- Generator: Sketch 58 (84663) - https://sketch.com -->
    <title>数据库</title>
    <desc>Created with Sketch.</desc>
    <g id="Page-1" stroke="none" stroke-width="1" fill="none" fill-rule="evenodd">
        <g id="Data--Copy-6" transform="translate(-332.000000, -317.000000)" fill-rule="nonzero">
            <g id="数据库" transform="translate(332.000000, 317.000000)">
                <path d="M4.9992177,10.9934748 C5.07263735,10.9960533 5.13155912,11.054975 5.13413764,11.1283947 L5.13413764,23.2462021 C5.13418569,23.321566 5.0745335,23.3834275 4.9992177,23.3861191 L1.44632653,23.3861191 C1.37298053,23.3808669 1.31621583,23.3197357 1.31640317,23.2462021 L1.31640317,11.1084065 C1.32608247,11.0436437 1.38086663,10.9951808 1.44632653,10.9934748 L4.9992177,10.9934748 L4.9992177,10.9934748 Z M4.9992177,9.55932602 L1.44632653,9.55932602 C0.624239839,9.60232865 -0.015134548,10.2903751 0.00218370514,11.1134036 L0.00218370514,23.2511992 C-0.0195306123,23.6530772 0.121258933,24.046808 0.392873306,24.3437981 C0.664487679,24.6407882 1.04411181,24.8160911 1.44632653,24.8302619 L4.9992177,24.8302619 C5.40051909,24.8160532 5.77934445,24.6414418 6.05081118,24.3455524 C6.32227791,24.0496631 6.46368963,23.6572341 6.44336052,23.2561962 L6.44336052,11.1184006 C6.46368963,10.7173627 6.32227791,10.3249337 6.05081118,10.0290444 C5.77934445,9.73315501 5.40051909,9.5585436 4.9992177,9.54433492 L4.9992177,9.55932602 Z M23.5532049,8.06021581 L23.5532049,23.3011695 L19.9903196,23.3011695 L19.9903196,8.02523659 L23.5382138,8.02523659 L23.5532049,8.06021581 Z M23.5382138,6.45117088 L19.9903196,6.45117088 C19.5890183,6.46537956 19.2101929,6.63999097 18.9387262,6.93588032 C18.6672594,7.23176966 18.5258477,7.62419867 18.5461768,8.02523659 L18.5461768,23.2661903 C18.5286,23.6655429 18.6712465,24.0553762 18.9424207,24.34907 C19.2135948,24.6427638 19.5908352,24.8159914 19.9903196,24.8302619 L23.5332168,24.8302619 C23.9362789,24.8186777 24.3176798,24.6452081 24.5912988,24.3490225 C24.8649178,24.052837 25.0076815,23.658912 24.9873536,23.2561962 L24.9873536,7.99525439 C25.0076827,7.59421647 24.866271,7.20178746 24.5948043,6.90589812 C24.3233376,6.61000877 23.9445122,6.43539735 23.5432108,6.42118868 L23.5382138,6.45117088 Z" id="形状" fill="#FFFFFF"></path>
                <path d="M15.3180718,0.699996974 L9.6860383,0.699145255 C9.24986598,0.720719739 8.91179352,1.08844767 8.92730165,1.54908053 L8.92688362,23.2553991 C8.91179352,23.6918439 9.24986598,24.0595718 9.65145633,24.0802915 L15.303499,24.0811463 C15.7396714,24.0595718 16.0777438,23.6918439 16.0622357,23.231211 L16.0626537,1.52489245 C16.0775753,1.09332066 15.7471766,0.728939808 15.3180718,0.699996974 Z" id="路径" stroke="#FFFFFF" stroke-width="1.4"></path>
                <polygon id="路径" fill="#FFFFFF" points="13.9189234 21.6871275 11.070614 21.6871275 11.070614 20.138047 13.9139263 20.138047 13.9139263 21.6871275"></polygon>
                <polygon id="路径" fill="#FFFFFF" points="13.9189234 18.5889664 11.070614 18.5889664 11.070614 17.0398859 13.9139263 17.0398859 13.9139263 18.5889664"></polygon>
                <polygon id="路径" fill="#FFFFFF" points="13.9189234 15.4908054 11.070614 15.4908054 11.070614 13.9367278 13.9139263 13.9367278 13.9139263 15.4908054"></polygon>
                <polygon id="路径" fill="#FFFFFF" points="13.9189234 12.3926443 11.070614 12.3926443 11.070614 10.8435637 13.9139263 10.8435637 13.9139263 12.3926443"></polygon>
            </g>
        </g>
    </g>
</svg>