<?xml version="1.0" encoding="UTF-8"?>
<svg width="30px" height="26px" viewBox="0 0 30 26" version="1.1" xmlns="http://www.w3.org/2000/svg" xmlns:xlink="http://www.w3.org/1999/xlink">
    <!-- Generator: Sketch 58 (84663) - https://sketch.com -->
    <title>骷髅</title>
    <desc>Created with Sketch.</desc>
    <g id="Page-1" stroke="none" stroke-width="1" fill="none" fill-rule="evenodd">
        <g id="Data--Copy-6" transform="translate(-911.000000, -322.000000)" fill-rule="nonzero">
            <g id="骷髅" transform="translate(910.500000, 320.000000)">
                <path d="M13.4269133,15.3112927 L13.4269133,16.3039625 C13.4269133,16.826356 13.8498782,17.249377 14.3720468,17.249377 C14.6461077,17.249377 14.8903091,17.1310913 15.0632553,16.9449087 C15.1958876,17.3054707 15.5401077,17.5642998 15.9470398,17.5642998 C16.354,17.5642998 16.6982482,17.3054567 16.8311335,16.9449087 C17.0037986,17.1311054 17.248,17.249377 17.5226511,17.249377 C18.0442436,17.249377 18.4671803,16.826356 18.4671803,16.3039625 L18.4671803,15.3112927 C19.051541,14.7468852 19.4128899,13.9890726 19.4128899,13.1536112 C19.4128899,11.4136393 17.8607869,10.003007 15.9470117,10.003007 C14.0333068,10.003007 12.4814707,11.4136253 12.4814707,13.1536112 C12.4814707,13.9890726 12.8419906,14.7474192 13.4268852,15.3112927 L13.4269133,15.3112927 Z M17.4320609,11.6620422 C18.0188244,11.6620422 18.4929508,12.1372365 18.4929508,12.722918 C18.4929508,13.3083607 18.0188103,13.783822 17.4320609,13.783822 C16.8460422,13.783822 16.3711569,13.3083466 16.3711569,12.722918 C16.3711569,12.1372365 16.8460422,11.6620422 17.4320609,11.6620422 Z M16.1365948,14.5879906 L16.606281,15.5256768 C16.7104028,15.7351148 16.604904,15.9055738 16.3714239,15.9055738 L15.522726,15.9055738 C15.289541,15.9055738 15.183733,15.7351148 15.2878689,15.5256768 L15.757555,14.5879906 C15.8617049,14.3786089 16.032445,14.3786089 16.1365808,14.5879906 L16.1365948,14.5879906 Z M14.461808,11.6620422 C15.0477845,11.6620422 15.5227119,12.1372365 15.5227119,12.722918 C15.5227119,13.3083607 15.0477986,13.783822 14.461808,13.783822 C13.8758454,13.783822 13.400918,13.3083466 13.400918,12.722918 C13.400918,12.1372365 13.8758314,11.6620422 14.461808,11.6620422 L14.461808,11.6620422 Z M21.3758454,19.8059672 C20.8445433,19.5581686 20.2140937,19.7885995 19.9662529,20.3190304 C19.9350304,20.3845105 19.9118173,20.4522529 19.8958267,20.5207119 L17.503555,19.4054005 L19.8960937,18.289808 C19.9123653,18.3574941 19.9350164,18.4251663 19.9662389,18.4903934 C20.2140656,19.0216534 20.8445012,19.2512272 21.3758314,19.0034426 C21.9070773,18.7564309 22.1366792,18.1251944 21.8888665,17.5938782 C21.7421967,17.2781405 21.4576112,17.0722857 21.1406932,17.0062155 C21.2943326,16.7216581 21.3194426,16.3716768 21.1721967,16.0555878 C20.9243841,15.5242857 20.2933724,15.294726 19.7621124,15.5425527 C19.2305293,15.7903653 19.0009555,16.4208431 19.2490632,16.952103 C19.2800187,17.0184122 19.3164543,17.0794941 19.3581874,17.1358407 L15.9973162,18.7025433 L12.6373162,17.1358407 C12.678178,17.079466 12.7152037,17.0184122 12.7461593,16.952103 C12.9937049,16.4208571 12.764103,15.7903794 12.2331101,15.5425527 C11.7018501,15.294726 11.0708244,15.5242998 10.8230258,16.0555878 C10.6757658,16.3716768 10.700356,16.7216721 10.8545293,17.0062155 C10.5370773,17.0722998 10.253082,17.2781124 10.105808,17.5938782 C9.85799532,18.1251663 10.0875691,18.7564169 10.6188571,19.0034426 C11.1495691,19.2512272 11.7811429,19.0216534 12.0286745,18.4903934 C12.0590679,18.4246183 12.082548,18.3572272 12.0991429,18.289274 L14.4905433,19.4051194 L12.0991429,20.5201499 C12.082534,20.4522248 12.0590679,20.3845246 12.0286745,20.3190304 C11.7811429,19.7885995 11.1495831,19.5581686 10.6188571,19.8059672 C10.0875691,20.053808 9.85799532,20.6842717 10.105808,21.2155457 C10.253082,21.5316206 10.5370632,21.7376862 10.8545293,21.8034333 C10.700356,22.0880187 10.6757799,22.4383232 10.8230258,22.7538501 C11.0708244,23.285377 11.7018501,23.5146698 12.2331101,23.266829 C12.764103,23.0201686 12.9936909,22.3886089 12.7461593,21.8573208 C12.7152037,21.7915738 12.67874,21.7307869 12.6373162,21.6747213 L15.9976112,20.1076815 L19.3576534,21.6741733 C19.3159063,21.7308009 19.2800328,21.7915738 19.2490773,21.8573208 C19.0009696,22.3885948 19.2305433,23.0201827 19.7621265,23.266829 C20.2933724,23.5146698 20.9243981,23.2853911 21.1722108,22.7538501 C21.3194707,22.4383232 21.2943466,22.0879906 21.1407073,21.8034333 C21.4576253,21.7379532 21.7421827,21.5316206 21.8888806,21.2155457 C22.1366932,20.6842717 21.9070913,20.053822 21.3758314,19.8059672 L21.3758454,19.8059672 Z" id="形状" fill="#FFFFFF"></path>
                <path d="M14.500554,3.83290083 L2.3707884,23.5861229 C1.79278745,24.5273926 2.08727498,25.7590049 3.0285447,26.3370058 C3.34339123,26.5303421 3.70563911,26.6326862 4.07510799,26.6326862 L27.4335205,26.6326862 C28.53809,26.6326862 29.4335205,25.7372557 29.4335205,24.6326862 C29.4335205,24.2861585 29.3434843,23.9455763 29.1722361,23.6443197 L17.9435892,3.89109764 C17.3977294,2.93083157 16.1767732,2.59488886 15.2165071,3.1407486 C14.9233161,3.307412 14.6770309,3.54550977 14.500554,3.83290083 Z" id="路径-73" stroke="#FFFFFF" stroke-width="1.4"></path>
            </g>
        </g>
    </g>
</svg>