<?xml version="1.0" encoding="UTF-8"?>
<svg width="28px" height="24px" viewBox="0 0 28 24" version="1.1" xmlns="http://www.w3.org/2000/svg" xmlns:xlink="http://www.w3.org/1999/xlink">
    <!-- Generator: Sketch 58 (84663) - https://sketch.com -->
    <title>分组 17</title>
    <desc>Created with Sketch.</desc>
    <g id="Page-1" stroke="none" stroke-width="1" fill="none" fill-rule="evenodd">
        <g id="Data--Copy-6" transform="translate(-1244.000000, -721.000000)" fill-rule="nonzero" stroke="#FFFFFF">
            <g id="分组-17" transform="translate(1245.000000, 722.000000)">
                <path d="M20.2467109,6.63589518 L20.2467109,2.391089 C20.2467109,1.2865195 19.3512804,0.391088999 18.2467109,0.391088999 L2.5,0.391088999 C1.3954305,0.391088999 0.5,1.2865195 0.5,2.391089 L0.5,19.3057712 C0.5,20.4103407 1.3954305,21.3057712 2.5,21.3057712 L9.22686314,21.3057712 L9.22686314,21.3057712" id="路径-111" stroke-width="1.4" stroke-linecap="round"></path>
                <path d="M3,5.5 L15.2673906,5.5" id="路径-112" stroke-width="1.4" stroke-linecap="round"></path>
                <path d="M3,10.5 L11.4130618,10.5" id="路径-113" stroke-width="1.4" stroke-linecap="round"></path>
                <path d="M3,15.5 L9.65687543,15.5" id="路径-114" stroke-width="1.4" stroke-linecap="round"></path>
                <path d="M17.7818524,9.92620512 L12.4889879,19.0399098 C12.2116255,19.517496 12.373939,20.1295027 12.8515251,20.4068651 C13.0040684,20.495456 13.1773318,20.5421188 13.3537342,20.5421188 L24.4320698,20.5421188 C24.9843545,20.5421188 25.4320698,20.0944036 25.4320698,19.5421188 C25.4320698,19.3523112 25.3780507,19.1664233 25.2763249,19.0061773 L19.4908538,9.89247257 C19.1948614,9.42620337 18.5769263,9.28816672 18.1106571,9.58415908 C17.9752033,9.67014652 17.8624278,9.78746367 17.7818524,9.92620512 Z" id="路径-115" stroke-width="1.4"></path>
                <path d="M18.602046,12.013974 L18.602046,16.523765" id="路径-116" stroke-linecap="round"></path>
                <circle id="椭圆形" cx="18.6" cy="18.5" r="1"></circle>
            </g>
        </g>
    </g>
</svg>