<?xml version="1.0" encoding="UTF-8"?>
<svg width="28px" height="27px" viewBox="0 0 28 27" version="1.1" xmlns="http://www.w3.org/2000/svg" xmlns:xlink="http://www.w3.org/1999/xlink">
    <!-- Generator: Sketch 58 (84663) - https://sketch.com -->
    <title>港口</title>
    <desc>Created with Sketch.</desc>
    <g id="Page-1" stroke="none" stroke-width="1" fill="none" fill-rule="evenodd">
        <g id="Data--Copy-6" transform="translate(-49.000000, -786.000000)" fill-rule="nonzero" stroke="#FFFFFF" stroke-width="1.4">
            <g id="港口" transform="translate(50.000000, 786.841538)">
                <path d="M24.5338346,14.8806838 C23.7518797,14.8806838 23.0676692,15.3667949 23.0676692,15.9223504 C23.0676692,19.5334615 19.3533835,22.5195726 14.4661654,23.0056838 L14.4661654,12.8667949 L22.6766917,12.8667949 C23.4586466,12.8667949 24.1428571,12.3806838 24.1428571,11.8251282 C24.1428571,11.2695726 23.4586466,10.7834615 22.6766917,10.7834615 L14.4661654,10.7834615 L14.4661654,9.67235043 C17.4962406,9.18623932 19.7443609,7.24179487 19.7443609,5.01957265 C19.7443609,2.31123932 16.7142857,0.158461538 13,0.158461538 C9.28571429,0.158461538 6.2556391,2.31123932 6.2556391,4.95012821 C6.2556391,7.24179487 8.5037594,9.18623932 11.5338346,9.60290598 L11.5338346,10.7140171 L3.32330827,10.7140171 C2.54135338,10.7140171 1.85714286,11.2001282 1.85714286,11.7556838 C1.85714286,12.3112393 2.54135338,12.7973504 3.32330827,12.7973504 L11.5338346,12.7973504 L11.5338346,22.9362393 C6.64661654,22.4501282 2.93233083,19.4640171 2.93233083,15.852906 C2.93233083,15.2973504 2.2481203,14.8112393 1.46616541,14.8112393 C0.684210526,14.8112393 0,15.2973504 0,15.852906 C0,20.9917949 5.86466165,25.1584615 13,25.1584615 C20.1353383,25.1584615 26,20.9917949 26,15.9223504 C26,15.3667949 25.3157895,14.8806838 24.5338346,14.8806838 Z M9.18796992,4.95012821 C9.18796992,3.49179487 10.8496241,2.24179487 13,2.24179487 C15.1503759,2.24179487 16.8120301,3.49179487 16.8120301,4.95012821 C16.8120301,6.40846154 15.0526316,7.65846154 13,7.65846154 C10.9473684,7.65846154 9.18796992,6.47790598 9.18796992,4.95012821 L9.18796992,4.95012821 Z" id="形状"></path>
            </g>
        </g>
    </g>
</svg>