<?xml version="1.0" encoding="UTF-8"?>
<svg width="24px" height="24px" viewBox="0 0 24 24" version="1.1" xmlns="http://www.w3.org/2000/svg" xmlns:xlink="http://www.w3.org/1999/xlink">
    <!-- Generator: Sketch 58 (84663) - https://sketch.com -->
    <title>消防</title>
    <desc>Created with Sketch.</desc>
    <g id="Page-1" stroke="none" stroke-width="1" fill="none" fill-rule="evenodd">
        <g id="Data--Copy-6" transform="translate(-52.000000, -653.000000)" fill="#FFFFFF" fill-rule="nonzero">
            <g id="消防" transform="translate(52.000000, 652.380000)">
                <path d="M22.8668952,23.1638203 L20.2674687,23.1638203 L20.2674687,16.2334833 L22.5311604,16.2334833 C23.1603787,16.2290498 23.6668211,15.9000215 23.6667832,15.4956856 L23.6667832,11.699371 C23.6660065,11.5064886 23.5458429,11.3217286 23.332799,11.1858465 C23.1197552,11.0499645 22.8313351,10.9741247 22.5311604,10.9750564 L20.2674687,10.9750564 L20.2674687,8.83285424 C20.3855481,8.81785381 20.4963396,8.78493982 20.5906134,8.73685425 L22.0380499,8.73685425 C22.6638465,8.73685425 23.1711548,8.41087731 23.1711548,8.00876437 C23.1711548,7.60665144 22.6638465,7.2806745 22.0380499,7.2806745 L20.9418759,7.2806745 C20.327604,5.43451841 18.3719128,3.8899061 15.6838498,3.12786559 C15.6867874,3.10629256 15.6930825,3.08579818 15.6930825,3.06368582 L15.6930825,1.34809035 C15.6889271,0.944877814 15.1786857,0.619546577 14.5511646,0.62 L9.44841575,0.62 C8.8209637,0.619547412 8.31084305,0.944921273 8.30691754,1.34809035 L8.30691754,3.06476447 C8.30691754,3.08687683 8.31279289,3.10898919 8.31615024,3.13056222 C5.62628786,3.88967028 3.66938945,5.43423241 3.05812408,7.2806745 L1.96195006,7.2806745 C1.33615353,7.2806745 0.828845212,7.60665144 0.828845212,8.00876437 C0.828845212,8.41087731 1.33615353,8.73685425 1.96195006,8.73685425 L3.40938658,8.73685425 C3.50366044,8.78493982 3.61445194,8.81785381 3.7325313,8.83285424 L3.7325313,10.9750564 L1.46883962,10.9750564 C1.16866491,10.9741247 0.880244843,11.0499645 0.667200954,11.1858465 C0.454157064,11.3217286 0.333993519,11.5064886 0.333216759,11.699371 L0.333216759,15.4956856 C0.33317893,15.9000215 0.839621324,16.2290498 1.46883962,16.2334833 L3.7325313,16.2334833 L3.7325313,23.1638203 L1.13310485,23.1638203 C0.50730832,23.1638203 0,23.4897972 0,23.8919101 C0,24.2940231 0.50730832,24.62 1.13310485,24.62 L22.8668952,24.62 C23.4926917,24.62 24,24.2940231 24,23.8919101 C24,23.4897972 23.4926917,23.1638203 22.8668952,23.1638203 Z M21.4005735,12.4312362 L21.4005735,14.7773036 L20.2674687,14.7773036 L20.2674687,12.4312362 L21.4005735,12.4312362 Z M10.5731272,2.07618022 L13.4268728,2.07618022 L13.4268728,2.70557347 C12.4813086,2.61107359 11.5186914,2.61107359 10.5731272,2.70557347 L10.5731272,2.07618022 Z M7.31062461,5.27519139 C9.05890555,4.22786453 11.5280684,3.83890374 13.8319771,4.2478997 C16.1358859,4.65689567 17.9440979,5.80518735 18.6076799,7.2806745 L5.39232007,7.2806745 C5.7389506,6.51335456 6.40173177,5.82045288 7.31062461,5.27519139 L7.31062461,5.27519139 Z M2.59942645,14.7773036 L2.59942645,12.4312362 L3.7325313,12.4312362 L3.7325313,14.7773036 L2.59942645,14.7773036 Z M5.99874099,23.1638203 L5.99874099,8.73685425 L18.001259,8.73685425 L18.001259,23.1638203 L5.99874099,23.1638203 Z" id="形状"></path>
                <path d="M9.97590361,9.62 C9.43692693,9.62 9,9.95805579 9,10.3750687 L9,20.8649313 C9,21.2819442 9.43692693,21.62 9.97590361,21.62 C10.5148803,21.62 10.9518072,21.2819442 10.9518072,20.8649313 L10.9518072,10.3750687 C10.9518072,9.95805579 10.5148803,9.62 9.97590361,9.62 Z M14.0240964,9.62 C13.4851197,9.62 13.0481928,9.95805579 13.0481928,10.3750687 L13.0481928,20.8649313 C13.0481928,21.2819442 13.4851197,21.62 14.0240964,21.62 C14.5630731,21.62 15,21.2819442 15,20.8649313 L15,10.3750687 C15,9.95805579 14.5630731,9.62 14.0240964,9.62 L14.0240964,9.62 Z" id="形状"></path>
            </g>
        </g>
    </g>
</svg>