<?xml version="1.0" encoding="UTF-8"?>
<svg width="32px" height="25px" viewBox="0 0 32 25" version="1.1" xmlns="http://www.w3.org/2000/svg" xmlns:xlink="http://www.w3.org/1999/xlink">
    <!-- Generator: Sketch 58 (84663) - https://sketch.com -->
    <title>齿轮</title>
    <desc>Created with Sketch.</desc>
    <g id="Page-1" stroke="none" stroke-width="1" fill="none" fill-rule="evenodd">
        <g id="Data--Copy-6" transform="translate(-329.000000, -786.000000)" fill-rule="nonzero" stroke="#FFFFFF">
            <g id="齿轮" transform="translate(329.000000, 786.758048)">
                <path d="M24.755771,24 L23.3047565,24 C23.0281232,24 22.9480804,24 22.1946749,22.0972683 L21.6918345,21.8887325 C20.1430682,22.6057492 19.9566587,22.6057492 19.8768717,22.6057492 C19.7744208,22.6057492 19.6594553,22.5605641 19.5871803,22.4868805 L18.5609294,21.4615433 C18.356667,21.2560603 18.3040031,21.2032031 19.1179521,19.3194437 L18.9153039,18.8311179 C17,18.1313633 17,18.0470027 17,17.7553211 L17,16.304409 C17,16.0141819 17,15.9398429 18.9085271,15.18632 L19.1112073,14.6965237 C18.2521862,12.8484714 18.3112593,12.789029 18.5176155,12.5819636 L19.5453369,11.557042 C19.617468,11.4847969 19.7324815,11.4397236 19.8341812,11.4397236 C19.9086619,11.4397236 20.1021997,11.4397236 21.6775617,12.1179965 L22.1772215,11.9104037 C22.8779152,10 22.9666686,10 23.2438294,10 L24.6951955,10 C24.9711256,10 25.05152,10 25.8049255,11.9039145 L26.3068868,12.1105962 C27.8545663,11.3954335 28.0408319,11.3954335 28.1218496,11.3954335 C28.223805,11.3954335 28.3378276,11.4402351 28.4101026,11.5120487 L29.4389108,12.5359153 C29.6392094,12.7373386 29.6957412,12.7943994 28.8816483,14.6789579 L29.0842965,15.1705763 C31,15.868381 31,15.9520703 31,16.2434802 L31,17.6941365 C31,17.9846354 30.9988812,18.0593739 29.0901143,18.8132804 L28.8886649,19.3033484 C29.7480695,21.1490352 29.6887567,21.2096444 29.4843504,21.4169495 L28.4542796,22.4441088 C28.3810296,22.5166256 28.2668951,22.5617149 28.1654672,22.5617149 C28.0921852,22.5617149 27.8993666,22.5617149 26.3243882,21.8821153 L25.8224269,22.0894524 C25.1214455,24 25.0398364,24 24.755771,24 Z M23.5134782,23.2081009 L24.5420466,23.2081009 C24.6789728,22.9086353 24.9431714,22.2327439 25.1552015,21.6493966 C25.1930013,21.5459038 25.2723088,21.4622146 25.3729057,21.4212331 L26.1822995,21.0861724 C26.2766151,21.0469011 26.3849797,21.0480839 26.4799025,21.0897367 C27.061523,21.3416036 27.7491906,21.6243345 28.0606828,21.7312317 L28.7804441,21.0107785 C28.665079,20.6994533 28.3727983,20.0400408 28.113107,19.4846165 C28.0665965,19.3829779 28.0630163,19.2647484 28.1061064,19.1602328 L28.4391597,18.3523822 C28.4799003,18.2536845 28.5592078,18.1752378 28.6569597,18.1373091 C29.2432632,17.9062366 29.9251289,17.6204848 30.2244421,17.4761544 L30.2244421,16.4686228 C29.9215487,16.3310374 29.2451172,16.0694046 28.6627295,15.8584873 C28.5602787,15.8213098 28.4770553,15.7423836 28.4344607,15.6390347 L28.1014074,14.8298895 C28.0606668,14.7289062 28.0606668,14.615168 28.1043802,14.5152716 C28.3535708,13.9417861 28.631339,13.2633693 28.7407744,12.9477125 L28.0198942,12.229497 C27.7113749,12.3428355 27.0418,12.63757 26.475683,12.9006253 C26.3802807,12.9458424 26.2684797,12.9487514 26.1694652,12.907626 L25.3606947,12.5742756 C25.2633903,12.5342051 25.1842266,12.4543359 25.1458355,12.3544395 C24.915329,11.7687106 24.6311677,11.0876725 24.4856427,10.7906844 L23.4571862,10.7906844 C23.3195408,11.0906774 23.0560614,11.7669844 22.8444149,12.3491489 C22.8074942,12.4536966 22.7276912,12.5370981 22.6267107,12.5785112 L21.820002,12.9131563 C21.7243546,12.9527238 21.6167447,12.9517778 21.5218076,12.910535 C20.9401871,12.6580128 20.2500742,12.3757933 19.9394131,12.2707662 L19.2191563,12.9892215 C19.3353845,13.3010742 19.625955,13.9604867 19.885998,14.5170937 C19.9336273,14.6187324 19.9353534,14.7365782 19.8928867,14.8414775 L19.5578355,15.6490404 C19.5167433,15.7482975 19.4387943,15.8260729 19.3402753,15.8644331 C18.7542115,16.0952339 18.0733687,16.3791156 17.7752702,16.5238456 L17.7752702,17.5318887 C18.0761657,17.6704171 18.753716,17.9329609 19.3362156,18.1443898 C19.4391195,18.1826894 19.5214328,18.2621036 19.5633976,18.3635706 L19.8960673,19.1708937 C19.9376869,19.2706783 19.9359608,19.3841447 19.893478,19.4839452 C19.6442875,20.0583418 19.3665193,20.7368865 19.2572917,21.0517601 L19.9775805,21.770487 C20.2858921,21.6564932 20.9555308,21.3617907 21.5211683,21.0992149 C21.6178333,21.0541416 21.7287552,21.0517601 21.8277697,21.0921022 L22.6369239,21.427131 C22.7353151,21.4669617 22.8121293,21.5458879 22.8510478,21.6456724 C23.0829128,22.2314173 23.3679372,22.9122156 23.5134782,23.2081009 L23.5134782,23.2081009 Z M23.9999361,19.5125396 C22.6173927,19.5125396 21.4915519,18.384397 21.4915519,17.0003436 C21.4915519,15.6163542 22.6173767,14.489826 23.9999361,14.489826 C25.3822397,14.489826 26.5072334,15.6163542 26.5072334,17.0003436 C26.5072334,18.384413 25.3822397,19.5125396 23.9999361,19.5125396 L23.9999361,19.5125396 Z M23.9999361,15.2810538 C23.0447295,15.2810538 22.2679569,16.0525421 22.2679569,17.0003436 C22.2679569,17.9495837 23.0447295,18.7211839 23.9999361,18.7211839 C24.9549029,18.7211839 25.7316755,17.9495997 25.7316755,17.0003436 C25.7316755,16.0518708 24.9548869,15.2810538 23.9999361,15.2810538 L23.9999361,15.2810538 Z" id="形状" stroke-width="0.3" fill="#FFFFFF"></path>
                <path d="M14.7440752,18.588372 L2.71331075,18.588372 C1.60874125,18.588372 0.713310752,17.6929415 0.713310752,16.588372 L0.713310752,2.50629084 C0.713310752,1.40172134 1.60874125,0.50629084 2.71331075,0.50629084 L23.3770619,0.50629084 C24.4816314,0.50629084 25.3770619,1.40172134 25.3770619,2.50629084 L25.3770619,7.46632548 L25.3770619,7.46632548" id="路径-39" stroke-width="1.4" stroke-linecap="round"></path>
                <polyline id="路径-40" stroke-width="1.4" stroke-linecap="round" points="24.7061525 1.03562838 13.3344412 9.27016204 1.27057973 1.03562838"></polyline>
                <path d="M18.2685554,10.8108011 C18.2685554,10.8108011 17.1604992,9.9301634 14.9443867,8.16888809" id="路径-41" stroke-width="1.4" stroke-linecap="round"></path>
                <path d="M11,7.83189318 L1.42644623,17.7670246" id="路径-42" stroke-width="1.4" stroke-linecap="round"></path>
            </g>
        </g>
    </g>
</svg>