<?xml version="1.0" encoding="UTF-8"?>
<svg width="26px" height="19px" viewBox="0 0 26 19" version="1.1" xmlns="http://www.w3.org/2000/svg" xmlns:xlink="http://www.w3.org/1999/xlink">
    <!-- Generator: Sketch 58 (84663) - https://sketch.com -->
    <title>分组 16</title>
    <desc>Created with Sketch.</desc>
    <g id="Page-1" stroke="none" stroke-width="1" fill="none" fill-rule="evenodd">
        <g id="Data--Copy-6" transform="translate(-1246.000000, -525.000000)" fill-rule="nonzero">
            <g id="分组-16" transform="translate(1246.000000, 525.000000)">
                <rect id="矩形" stroke="#FFFFFF" stroke-width="1.4" x="0.7" y="0.7" width="24.6" height="17.6" rx="2"></rect>
                <path d="M15.6385006,4.70359422 L22.7563679,4.70359422" id="路径-103" stroke="#FFFFFF" stroke-width="1.4"></path>
                <path d="M15.6385006,7.70359422 L22.7563679,7.70359422" id="路径-103" stroke="#FFFFFF" stroke-width="1.4"></path>
                <path d="M15.6385006,10.7035942 L22.7563679,10.7035942" id="路径-103" stroke="#FFFFFF" stroke-width="1.4"></path>
                <path d="M15.6385006,13.7035942 L22.7563679,13.7035942" id="路径-103" stroke="#FFFFFF" stroke-width="1.4"></path>
                <polygon id="路径-104" fill="#FFFFFF" points="2.38281194 18.0732785 8.41613729 14.2662988 22.9429302 18.0732785"></polygon>
                <path d="M5.20516533,12.0535625 L3.07854479,12.0535625 L3.07854479,8.00151106 L6.76952995,8.00151106 L10.3241362,4.44690482 L13.0718337,4.44690482 L13.0718337,5.56911298 L10.5629529,5.56911298 L8.75654638,7.37551948 L13.0718337,7.37551948 L13.0718337,12.0535625 L11.5,12.0535625 C10.8055767,10.4268445 9.75537871,9.61348544 8.34940613,9.61348544 C6.94343356,9.61348544 5.89535329,10.4268445 5.20516533,12.0535625 Z" id="路径-105" stroke="#FFFFFF" fill="#FFFFFF" stroke-linecap="round" stroke-linejoin="round"></path>
                <circle id="椭圆形" stroke="#FFFFFF" fill="#FFFFFF" cx="8.5" cy="12.5" r="1.5"></circle>
            </g>
        </g>
    </g>
</svg>