<?xml version="1.0" encoding="UTF-8"?>
<svg width="25px" height="26px" viewBox="0 0 25 26" version="1.1" xmlns="http://www.w3.org/2000/svg" xmlns:xlink="http://www.w3.org/1999/xlink">
    <!-- Generator: Sketch 58 (84663) - https://sketch.com -->
    <title>能源</title>
    <desc>Created with Sketch.</desc>
    <g id="Page-1" stroke="none" stroke-width="1" fill="none" fill-rule="evenodd">
        <g id="Data--Copy-6" transform="translate(-50.000000, -719.000000)" fill="#FFFFFF" fill-rule="nonzero">
            <g id="能源" transform="translate(50.000000, 718.841538)">
                <path d="M21.4249258,13.159906 C24.1686171,10.7910171 25.7217089,8.36001709 24.6623565,6.65846154 C24.2779897,6.0431282 23.3748841,5.30501709 21.2796164,5.30501709 C20.0530801,5.30501709 18.5765491,5.5592393 16.9656461,6.01135043 C16.1187892,2.62123933 14.6219462,0.158461538 12.5001165,0.158461538 C10.3798494,0.158461538 8.87831896,2.62123933 8.034587,6.01135043 C6.42368395,5.55923933 4.94402808,5.30357264 3.71905426,5.30357264 C1.62066161,5.30357264 0.722243323,6.0402393 0.336314061,6.65846154 C-0.726163213,8.36146154 0.830053509,10.793906 3.57999474,13.1656837 C3.09250517,13.588906 2.62689012,14.0135726 2.22533619,14.433906 C-0.352733709,17.1277949 -0.224611444,18.762906 0.334751592,19.6627949 C0.720680853,20.2781282 1.62066161,21.0147949 3.71905426,21.0147949 C4.94402808,21.0147949 6.42368395,20.7591282 8.034587,20.3070171 C8.87831896,23.6956837 10.3782869,26.1584615 12.5001165,26.1584615 C14.6250711,26.1584615 16.1234766,23.6956837 16.9672085,20.3084615 C18.5765492,20.7562393 20.056205,21.0162393 21.2827413,21.0162393 C23.3795715,21.0162393 24.2795522,20.2781282 24.663919,19.6584615 C25.7248338,17.9626837 24.1733045,15.5302393 21.4249258,13.159906 Z M21.2796164,6.94879488 C22.2420958,6.94879488 22.9155189,7.14090599 23.1295768,7.47890599 C23.5733173,8.19679488 22.5202148,9.98501709 20.0765171,12.0722393 C19.2968462,11.4843504 18.4906135,10.9282393 17.6593812,10.4024615 C17.585936,9.4747508 17.4691629,8.55040718 17.3093887,7.63201709 C18.817169,7.19868375 20.1890146,6.94735043 21.2780539,6.94735043 L21.2796164,6.94879488 Z M14.2485167,15.9664615 C13.6719665,16.2712393 13.0891664,16.5630171 12.4985541,16.8417949 C11.9077062,16.5630649 11.3242157,16.2712022 10.7485915,15.9664615 C10.1751662,15.6544615 9.60955333,15.3280171 9.05487768,14.9856837 C9.01894096,14.3790171 9.00019135,13.770906 8.99862888,13.1613504 C8.99862888,12.5257949 9.02206587,11.9191282 9.05487768,11.3283504 C9.60642839,10.9990171 10.161104,10.6682393 10.747029,10.3547949 C11.3298291,10.0427949 11.9141916,9.75535043 12.4954291,9.48090599 C13.0797916,9.75535043 13.6625917,10.0442393 14.2453917,10.3562393 C14.8531912,10.6797949 15.3953671,11.0062393 15.940668,11.3355726 C16.0140781,12.55133 16.0140781,13.7699264 15.940668,14.9856837 C15.401617,15.3150171 14.8563162,15.642906 14.2485167,15.967906 L14.2485167,15.9664615 Z M15.7641093,17.0367949 C15.7172352,17.4123504 15.6641114,17.7792393 15.6047377,18.1316837 C15.2338647,17.9965989 14.8655867,17.8555031 14.5000738,17.7084615 C14.7110068,17.6030171 14.9219398,17.4990171 15.1328728,17.3877949 C15.3453682,17.2722393 15.5578637,17.1566838 15.7641093,17.0367949 L15.7641093,17.0367949 Z M10.5017217,17.7113504 C10.136783,17.859181 9.76847812,17.9998055 9.39705787,18.1331282 C9.33661603,17.7696503 9.28400258,17.4050967 9.23924874,17.0396837 C9.44861926,17.1552393 9.6533024,17.2751282 9.86736033,17.3863504 C10.0767309,17.501906 10.2892263,17.6030171 10.5017217,17.7113504 L10.5017217,17.7113504 Z M7.24085396,13.8171282 C6.92211078,13.5975726 6.60024266,13.3780171 6.30649895,13.1613504 C6.60805501,12.938906 6.92054831,12.717906 7.24085396,12.4983504 C7.23772902,12.7193504 7.23147917,12.9403504 7.23147917,13.159906 C7.22679176,13.3780171 7.23616658,13.6004615 7.24085396,13.8171282 Z M9.23768627,9.29457264 C9.28299781,8.9132393 9.33768414,8.54346154 9.39705787,8.18957264 C9.75955012,8.31957264 10.1267298,8.45968375 10.5001593,8.60846154 C10.2876638,8.71823933 10.0767309,8.81790599 9.86423539,8.93201709 C9.64861499,9.04901709 9.44861929,9.1761282 9.23768627,9.2931282 L9.23768627,9.29457264 Z M14.5000738,8.60846154 C14.8750658,8.45823933 15.2406829,8.31668375 15.6094251,8.18523933 C15.6672363,8.53912822 15.7187977,8.90312822 15.7656717,9.2801282 C15.5578637,9.1631282 15.3516181,9.04468375 15.1359977,8.93201709 C14.9250647,8.81646154 14.7141317,8.71535043 14.5000738,8.60846154 Z M17.7640665,12.5026837 C18.0828097,12.7236837 18.4078027,12.9417949 18.6984215,13.1584615 C18.4046778,13.3751282 18.0812472,13.5961282 17.7640665,13.8156837 C17.7671914,13.5975726 17.7750038,13.3780171 17.7750038,13.159906 C17.7750038,12.9432393 17.7671914,12.7207949 17.7640665,12.5026837 Z M12.5001165,1.80079488 C13.392285,1.80079488 14.5422604,3.53990599 15.2750572,6.54579488 C14.3719515,6.85923933 13.4469713,7.22901709 12.4985541,7.64935043 C11.5925605,7.24454949 10.6677263,6.87682301 9.72673834,6.54723933 C10.4610976,3.54279488 11.6079481,1.80079488 12.5001165,1.80079488 Z M1.87534367,7.48179488 C2.08627666,7.14235043 2.76126223,6.94735043 3.7221792,6.94735043 C4.81590581,6.94735043 6.1877515,7.19723933 7.69553175,7.63346154 C7.53606021,8.55290485 7.41877018,9.47817791 7.34397676,10.4067949 C6.51544244,10.9320662 5.7125833,11.4911369 4.9377782,12.0823504 C2.48783057,9.99223933 1.42847823,8.19823933 1.87534367,7.48179488 Z M3.7221792,19.3724615 C2.76126223,19.3724615 2.08627666,19.1803504 1.87534367,18.840906 C1.60347448,18.4061282 1.88003108,17.2751282 3.55499525,15.5244615 C3.96123656,15.1026837 4.42060173,14.6722393 4.92215353,14.2475726 C5.67838736,14.8181282 6.49086998,15.3771282 7.34397676,15.915906 C7.42053764,16.8692393 7.53772261,17.7980171 7.69553175,18.6892393 C6.18775147,19.1225727 4.81590581,19.3724615 3.7221792,19.3724615 L3.7221792,19.3724615 Z M12.5001165,24.5204615 C11.6048232,24.5204615 10.4579727,22.7784615 9.72517587,19.7740171 C10.6672168,19.4439692 11.5930925,19.0757613 12.5001165,18.6704615 C13.4071406,19.0757613 14.3330163,19.4439692 15.2750572,19.7740171 C14.5422604,22.7784615 13.3954099,24.5204615 12.5001165,24.5204615 Z M23.1280143,18.840906 C22.9170814,19.1774615 22.2405333,19.3724615 21.2811788,19.3724615 C20.1874522,19.3724615 18.814044,19.1225726 17.3078262,18.6863504 C17.4640729,17.7951282 17.5796954,16.8663504 17.6578188,15.9130171 C18.4899909,15.3894213 19.2965032,14.8317938 20.0749546,14.2417949 C22.5170899,16.3362393 23.5717548,18.1230171 23.1280143,18.840906 Z" id="形状"></path>
            </g>
        </g>
    </g>
</svg>