<?xml version="1.0" encoding="UTF-8"?>
<svg width="30px" height="29px" viewBox="0 0 30 29" version="1.1" xmlns="http://www.w3.org/2000/svg" xmlns:xlink="http://www.w3.org/1999/xlink">
    <!-- Generator: Sketch 58 (84663) - https://sketch.com -->
    <title>分组 11</title>
    <desc>Created with Sketch.</desc>
    <g id="Page-1" stroke="none" stroke-width="1" fill="none" fill-rule="evenodd">
        <g id="Data--Copy-6" transform="translate(-656.000000, -787.000000)" fill-rule="nonzero" stroke="#FFFFFF" stroke-width="1.4">
            <g id="分组-11" transform="translate(656.000000, 786.000000)">
                <rect id="矩形" transform="translate(10.461673, 8.241737) rotate(-45.000000) translate(-10.461673, -8.241737) " x="3.66167292" y="5.44173709" width="13.6" height="5.6" rx="2.8"></rect>
                <rect id="矩形" transform="translate(10.880019, 15.310930) rotate(-311.000000) translate(-10.880019, -15.310930) " x="2.58001879" y="12.5109295" width="16.6" height="5.6" rx="2.8"></rect>
                <polyline id="路径-65" stroke-linecap="round" stroke-linejoin="round" points="5.50051972 28.3588162 0.876222051 28.3588162 0.876222051 24.6749419 28.6114564 24.6749419 28.6114564 28.3588162 12.5933957 28.3588162"></polyline>
                <path d="M7.4135492,28.3013093 L9.99608623,28.3013093" id="路径-66" stroke-linecap="round" stroke-linejoin="round"></path>
                <polyline id="路径-67" stroke-linecap="round" stroke-linejoin="round" points="11.3506652 20.7718553 11.3506652 24.7585644 18.0035338 24.7585644 18.0035338 19.8108561"></polyline>
                <path d="M13.5599346,1.90034183 L20.0546591,1.90034183 C20.9944263,1.90034183 21.7562582,2.66217369 21.7562582,3.60194092 C21.7562582,4.54170815 20.9944263,5.30354002 20.0546591,5.30354002 L16.4577047,5.30354002 L16.4577047,5.30354002" id="路径-68" stroke-linecap="round" stroke-linejoin="round"></path>
                <path d="M22.068062,3.59389522 L25,3.59389522" id="路径-69" stroke-linecap="round" stroke-linejoin="round"></path>
            </g>
        </g>
    </g>
</svg>