<?xml version="1.0" encoding="UTF-8"?>
<svg width="25px" height="22px" viewBox="0 0 25 22" version="1.1" xmlns="http://www.w3.org/2000/svg" xmlns:xlink="http://www.w3.org/1999/xlink">
    <!-- Generator: Sketch 58 (84663) - https://sketch.com -->
    <title>监管a</title>
    <desc>Created with Sketch.</desc>
    <g id="Page-1" stroke="none" stroke-width="1" fill="none" fill-rule="evenodd">
        <g id="Data--Copy-6" transform="translate(-50.000000, -120.000000)" fill="#FFFFFF">
            <g id="监管a" transform="translate(50.000000, 120.000000)">
                <path d="M11,21 L11,14.7438675 L12.7156063,14.7438675 L12.7156063,21 L11,21 Z M18.7841218,16.8254221 C17.5633496,16.8254221 16.5682436,15.7416375 16.5682436,14.4112775 C16.5682436,13.0837846 17.5633496,12 18.7841218,12 C20.004894,12 21,13.0837846 21,14.4141446 C20.9972811,15.7445046 20.0021751,16.8254221 18.7841218,16.8254221 Z M18.7841218,13.3332271 C18.2430669,13.3332271 17.805329,13.8206435 17.805329,14.4198789 C17.805329,15.0191144 18.2430669,15.5065307 18.7841218,15.5065307 C19.3278956,15.5065307 19.7683524,15.0191144 19.7683524,14.4198789 C19.7629146,13.8206435 19.3224579,13.3332271 18.7841218,13.3332271 Z" id="形状" fill-rule="nonzero"></path>
                <path d="M12.6561631,14.8175466 L2.57738647,14.8175466 C2.12696942,14.8175466 1.75718258,14.4389234 1.75718258,13.9777433 L1.75718258,2.63612836 C1.75718258,2.17494824 2.12696942,1.79632505 2.57738647,1.79632505 L21.4003707,1.79632505 C21.8507878,1.79632505 22.2205746,2.17494824 22.2205746,2.63612836 L22.2205746,11.0939441 C22.7182576,11.4070911 23.5718258,12.1102484 24,12.6369048 L24,2.24042443 C24,1.00207039 23.021316,0 21.8118628,0 L2.16033364,0 C0.950880445,0 0,1.00207039 0,2.24042443 L0,14.3535197 C0,15.5918737 0.950880445,16.5939441 2.16033364,16.5939441 L13.4902688,16.5939441 C13.1733086,16.1754658 12.6589435,14.8232402 12.6561631,14.8175466 Z M18.1862836,20.2065217 L5.56904541,20.2065217 C5.16311399,20.2065217 4.83781279,20.6420807 4.86839666,21.1715839 C4.89620019,21.6356108 5.18813716,22 5.54958295,22 L18.1668211,22 C18.5727525,22 18.8980538,21.564441 18.8674699,21.0349379 C18.8424467,20.5737578 18.5477294,20.2065217 18.1862836,20.2065217 Z" id="形状" fill-rule="nonzero"></path>
                <path d="M5,5.569981 C5,5.88410386 5.28506296,6.139962 5.63504125,6.139962 C5.98501954,6.139962 6.2700825,5.88410386 6.2700825,5.569981 C6.2700825,5.25585814 5.98501954,5 5.63504125,5 C5.28224056,5 5,5.25585814 5,5.569981 Z M7.97199305,6.20329322 L17.4439861,6.20329322 C17.7488059,6.20329322 18,5.93223559 18,5.60291324 C18,5.27105763 17.7488059,5.00253325 17.4439861,5.00253325 L7.97199305,5.00253325 C7.66717325,5.00253325 7.41597916,5.27359088 7.41597916,5.60291324 C7.41597916,5.93223559 7.66152844,6.20329322 7.97199305,6.20329322 Z M5,8.44521849 C5,8.75174161 5.27659574,9 5.61810682,9 C5.95961789,9 6.23621363,8.75174161 6.23621363,8.44521849 C6.23621363,8.13869538 5.95961789,7.89043699 5.61810682,7.89043699 C5.27377334,7.89043699 5,8.13869538 5,8.44521849 Z M7.97199305,9 L17.4439861,9 C17.7488059,9 18,8.73147562 18,8.39962001 C18,8.07029766 17.7488059,7.79924003 17.4439861,7.79924003 L7.97199305,7.79924003 C7.66717325,7.79924003 7.41597916,8.06776441 7.41597916,8.39962001 C7.41597916,8.72894237 7.66152844,9 7.97199305,9 Z" id="形状" fill-rule="nonzero"></path>
                <path d="M5,11.5 C5,11.776824 5.22532189,12 5.5,12 C5.77682403,12 6,11.7746781 6,11.5 C6,11.223176 5.77467811,11 5.5,11 C5.22317597,11 5,11.223176 5,11.5 Z" id="路径"></path>
                <path d="M24.9362305,14.1880577 C23.8167218,11.6060398 21.5436939,10 18.9985829,10 C16.4563061,10 14.1832782,11.6060398 13.0637695,14.1880577 C12.9787435,14.379547 12.9787435,14.6142759 13.0637695,14.8119423 C14.1861124,17.3939602 16.4591403,19 19.0014171,19 C21.5380255,19 23.8110534,17.3939602 24.9362305,14.8119423 C25.0212565,14.6111874 25.0212565,14.3857241 24.9362305,14.1880577 Z M23.635333,14.4969115 C22.6887104,16.3932739 20.9230043,17.5669183 18.9985829,17.5669183 C17.0769957,17.5669183 15.3112896,16.3932739 14.364667,14.4969115 C15.3084554,12.6005491 17.0741615,11.4269046 19.0014171,11.4269046 C20.9258385,11.4269046 22.6915446,12.6005491 23.635333,14.4969115 Z" id="形状" fill-rule="nonzero"></path>
                <path d="M16,11 L7.59377093,11 C7.26523778,11 7,11.2236287 7,11.5 C7,11.7742616 7.26825184,12 7.59377093,12 L13.9233088,12 C14.3904889,11.6054852 15.2555258,11.2489451 16,11 L16,11 Z" id="路径"></path>
            </g>
        </g>
    </g>
</svg>