<?xml version="1.0" encoding="UTF-8"?>
<svg width="27px" height="25px" viewBox="0 0 27 25" version="1.1" xmlns="http://www.w3.org/2000/svg" xmlns:xlink="http://www.w3.org/1999/xlink">
    <!-- Generator: Sketch 58 (84663) - https://sketch.com -->
    <title>分组 14</title>
    <desc>Created with Sketch.</desc>
    <g id="Page-1" stroke="none" stroke-width="1" fill="none" fill-rule="evenodd">
        <g id="Data--Copy-6" transform="translate(-913.000000, -924.000000)" fill-rule="nonzero">
            <g id="分组-14" transform="translate(913.000000, 924.000000)">
                <rect id="矩形" stroke="#FFFFFF" stroke-width="1.4" x="0.7" y="0.7" width="25.6" height="16.6" rx="2"></rect>
                <path d="M9,20.5 L18.563241,20.5" id="路径-93" stroke="#FFFFFF" stroke-width="1.4" stroke-linecap="round"></path>
                <path d="M6,23.5 L20.8313578,23.5" id="路径-94" stroke="#FFFFFF" stroke-width="1.4" stroke-linecap="round"></path>
                <path d="M13.5611828,4.75892035 C13.3849985,4.58034374 13.150134,4.49106754 12.9054734,4.49106754 L10.1554792,4.49106754 C9.93041059,4.19344791 9.58788581,4 9.20130302,4 C8.61411768,4 8.1052285,4.42659297 8.01716026,4.99206541 C7.95843217,5.37896124 8.0513984,5.74107965 8.28138888,6.01389764 C8.50645748,6.28175045 8.83921017,6.42559509 9.211099,6.42559509 C9.60745388,6.42559509 9.9793427,6.22718201 10.1946392,5.87995912 L12.5384826,5.87995912 C12.6412209,5.87995912 12.739109,5.92459722 12.8174052,5.99900212 L15.1612485,8.37501817 C15.2395447,8.45436402 15.342283,8.50396729 15.4499432,8.50396729 L16.8445084,8.50396729 C17.0647029,8.80158692 17.4170236,9 17.7888886,9 L17.7986845,9 C18.3858699,9 18.8947591,8.55853573 18.9828512,7.99306329 C19.0415554,7.60614325 18.9485892,7.23411872 18.7185987,6.95635978 C18.4935301,6.68848274 18.1607774,6.53473198 17.7888886,6.53473198 C17.3925576,6.53473198 17.0206687,6.71824955 16.8053722,7.06547244 L16.0615946,7.06547244 C15.9588563,7.06547244 15.8609681,7.03076468 15.78757,6.95635978 L13.8302855,5.01686705 L13.5611589,4.75892035 L13.5611828,4.75892035 Z M18.8294199,10 C18.3670441,10 17.9624534,10.2050694 17.769789,10.5977393 L14.2777461,10.5977393 C14.0320943,10.5977393 13.8057277,10.6762647 13.632325,10.8289696 L10.959106,13.2417203 C10.8868568,13.3071653 10.7905246,13.346428 10.6845497,13.346428 L9.16731731,13.346428 C9.03246162,13.1282781 8.83497587,13.0192032 8.61340707,12.9450237 C8.48334916,12.8970477 8.34367215,12.8664982 8.19917383,12.8664982 C7.70787011,12.8664982 7.25993471,13.1370126 7.0769129,13.5427629 C6.96614026,13.7958083 6.97575937,14.0925049 7.10099596,14.3542848 C7.23105386,14.620432 7.46224177,14.8298473 7.74641711,14.934555 C7.88611764,14.978185 8.02577113,15 8.17026946,15 C8.54597922,15 8.89276109,14.8691101 9.123949,14.5637002 L11.0650573,14.5637002 C11.3058878,14.5637002 11.5467184,14.4764402 11.7152998,14.319368 L14.3307336,11.9066387 C14.4126018,11.8324592 14.523398,11.7713815 14.638992,11.7713815 L17.9479895,11.7713815 L17.9913578,11.7844832 C18.2081053,11.9895314 18.5018998,12.1117081 18.8198008,12.1117081 C19.4941263,12.1117081 20,11.6623065 20,11.0514868 C20.0095131,10.4668493 19.4796859,10 18.8294434,10 L18.8294199,10 Z M10.8350925,8.41379857 L9.16488361,8.41379857 C8.94447545,8.1298246 8.59183673,8 8.2,8 C7.51428571,8 7,8.42192003 7,8.98986798 C7,9.55781592 7.51916454,9.9878178 8.21468431,9.9878178 C8.60164222,9.9878178 8.97386798,9.83772916 9.18937341,9.55375519 L10.8155054,9.55375519 C11.0310108,9.83772916 11.4032605,10 11.7901945,10 L11.8,10 C12.4857143,10 13,9.56997831 13,9.00203037 C13,8.43408242 12.4807876,8.0121822 11.7853157,8.0121822 C11.4081633,8.00406073 11.0555006,8.17039231 10.8350925,8.41379857 L10.8350925,8.41379857 Z" id="形状" fill="#FFFFFF"></path>
            </g>
        </g>
    </g>
</svg>