<?xml version="1.0" encoding="UTF-8"?>
<svg width="28px" height="30px" viewBox="0 0 28 30" version="1.1" xmlns="http://www.w3.org/2000/svg" xmlns:xlink="http://www.w3.org/1999/xlink">
    <!-- Generator: Sketch 58 (84663) - https://sketch.com -->
    <title>应急</title>
    <desc>Created with Sketch.</desc>
    <g id="Page-1" stroke="none" stroke-width="1" fill="none" fill-rule="evenodd">
        <g id="Data--Copy-6" transform="translate(-1244.000000, -787.000000)" fill="#FFFFFF">
            <g id="应急" transform="translate(1244.000000, 787.000000)">
                <polygon id="路径" points="3.05466661 6.39665369 28 6.39665369 21.571051 0 20.1191388 1.44770737 23.0359685 4.35237286 1 4.35237286 1 21 3.05655768 21"></polygon>
                <polygon id="路径" points="24.945192 23.7825962 0 23.7825962 6.16817324 30 7.62204338 28.5363988 4.96251511 25.8538044 27 25.8538044 27 9 24.945192 9"></polygon>
                <path d="M18.7646763,11.0595807 C18.6209994,10.9781125 18.4445145,10.9803755 18.3031002,11.0652382 L18.2838679,11.0776847 C17.5801908,11.5495215 16.7803519,11.8844464 14.1149767,11.184046 C13.1997439,10.9441674 12.172511,10.9475619 11.0592983,11.1953611 C10.3114999,11.361692 9.70398438,11.6004391 9.32499427,11.7701646 C9.19489319,11.8278712 9.09081232,11.937627 9.0399032,12.0711444 C9.02632744,12.106221 9.01727693,12.142429 9.01162036,12.1786371 C8.9901254,12.2714204 8.99804459,12.3709927 9.03877189,12.4626444 L12.7200669,20.7316681 C12.8207538,20.9591002 13.0900065,21.062067 13.3174005,20.9613632 C13.5447946,20.859528 13.6488754,20.5902303 13.5470572,20.3639297 L12.3829354,17.7490263 C12.709885,17.3541318 13.7778452,16.3470941 15.8243918,16.9218976 C16.5450387,17.1244367 17.1525542,17.2307979 17.6299686,17.237587 C18.0304536,17.2432445 18.3517467,17.1787488 18.5859287,17.0463629 C18.8608379,16.8902155 18.9411612,16.684282 18.9626562,16.6039453 L18.9773632,16.5473701 L19,11.4669218 L19,11.4646588 C19.0011208,11.2971963 18.9106157,11.1421804 18.7646763,11.0595807 Z" id="形状" fill-rule="nonzero"></path>
            </g>
        </g>
    </g>
</svg>