<?xml version="1.0" encoding="UTF-8"?>
<svg width="25px" height="25px" viewBox="0 0 25 25" version="1.1" xmlns="http://www.w3.org/2000/svg" xmlns:xlink="http://www.w3.org/1999/xlink">
    <!-- Generator: Sketch 58 (84663) - https://sketch.com -->
    <title>水源-01</title>
    <desc>Created with Sketch.</desc>
    <g id="Page-1" stroke="none" stroke-width="1" fill="none" fill-rule="evenodd">
        <g id="Data--Copy-6" transform="translate(-658.000000, -725.000000)" fill="#FFFFFF">
            <g id="水源-01" transform="translate(658.000000, 725.000000)">
                <path d="M24.9351747,21.307779 L24.9351747,12.5958286 C25.005637,12.3985344 25.0084555,12.1815107 24.9351747,11.9785795 L24.9351747,1.95885006 C24.9351747,1.45997745 24.5321308,1.05693348 24.0332582,1.05693348 C23.5343856,1.05693348 23.1313416,1.45997745 23.1313416,1.95885006 L23.1313416,9.23337091 C22.7339346,8.75704622 22.1645998,8.45546787 21.5388952,8.39627959 C20.8229989,8.32863585 20.1240135,8.58511838 19.6223224,9.10090192 L18.7795941,9.96335964 C18.5992108,10.1493799 18.3821871,10.1409245 18.2976325,10.126832 C18.2130778,10.1155581 18.0016911,10.0620068 17.8804961,9.83370913 L17.8494927,9.77452086 C17.494363,9.10090192 16.8602029,8.64994363 16.1076663,8.53720406 C15.3551297,8.42446449 14.6166855,8.66967306 14.078354,9.20800451 L13.3286359,9.96335964 C13.145434,10.1465614 12.9284104,10.1352875 12.8410372,10.121195 C12.7564825,10.1071026 12.5450958,10.0507328 12.4267193,9.81961669 C12.0800451,9.13754228 11.445885,8.67531003 10.6905299,8.55411499 C9.93235626,8.43291995 9.18827508,8.67531003 8.64712514,9.21645998 L7.87204059,9.99154453 C7.69729425,10.1662909 7.49436302,10.1662909 7.39007892,10.1493799 C7.28579481,10.132469 7.09131905,10.0732807 6.97576099,9.85625705 L6.84611048,9.60822999 C6.51352875,8.9740699 5.91882751,8.53156708 5.21702368,8.38782413 C4.51521984,8.24689966 3.79650507,8.42728298 3.24408117,8.88387824 L1.84611048,10.0394589 L1.84611048,1.96166855 C1.84611048,1.46279594 1.44306652,1.05975197 0.944193912,1.05975197 C0.445321308,1.05975197 0.0422773393,1.46279594 0.0422773393,1.96166855 L0.0422773393,16.2147689 C0.0112739572,16.3472379 0.0112739572,16.4881623 0.0422773393,16.6206313 L0.0422773393,21.440248 C0.0422773393,22.9312289 1.25704622,24.1459977 2.74802706,24.1459977 L22.229425,24.1459977 C23.7204059,24.1459977 24.9351747,22.9312289 24.9351747,21.440248 L24.9351747,21.3162345 L24.9351747,21.307779 Z M1.84611048,16.8207441 L4.3151071,14.7829763 C4.49549042,14.6335964 4.68714769,14.6448703 4.78297632,14.6645998 C4.88162345,14.6843292 5.06200676,14.7491545 5.16910936,14.9549042 L5.29875986,15.2029312 C5.65107103,15.8765502 6.28523112,16.3275085 7.03776776,16.440248 C7.7903044,16.5558061 8.52874859,16.313416 9.06708005,15.7750846 L9.8421646,15 C10.0253664,14.8167982 10.2423901,14.8280722 10.3269448,14.8421646 C10.4114994,14.856257 10.6228861,14.9126268 10.7384442,15.143743 C11.0851184,15.8286359 11.722097,16.2908681 12.4802706,16.4092446 C13.2384442,16.5304397 13.9853439,16.2852311 14.5264938,15.7412627 L15.276212,14.9859076 C15.4509583,14.8111612 15.6538895,14.8111612 15.7581736,14.8252537 C15.8624577,14.8393461 16.0569335,14.9013529 16.1724915,15.1183766 L16.2034949,15.1775648 C16.5614431,15.8540023 17.1984216,16.307779 17.9565953,16.4177001 C18.7147689,16.5276212 19.4560316,16.2767756 19.988726,15.7271702 L20.8314543,14.8647125 C20.9949267,14.6984216 21.186584,14.6871477 21.2880496,14.6984216 C21.3866967,14.7068771 21.5755355,14.7519729 21.705186,14.9464487 L23.1285231,17.096956 L23.1285231,18.3173619 C22.7282976,17.8015784 22.1392334,17.4746336 21.4825254,17.4126268 C20.7666291,17.3449831 20.0676437,17.6014656 19.5659526,18.1172492 L18.7232244,18.9797069 C18.542841,19.1657272 18.3258174,19.1572717 18.2412627,19.1431793 C18.156708,19.1319053 17.9453213,19.078354 17.8241263,18.8472379 L17.7931229,18.7880496 C17.4379932,18.1144307 16.8038331,17.6634724 16.0512965,17.5507328 C15.2987599,17.4379932 14.5603157,17.6832018 14.0219842,18.2215333 L13.2750846,18.9825254 C13.0918828,19.1657272 12.8748591,19.1544532 12.7874859,19.1403608 C12.7029312,19.1262683 12.4915445,19.0698985 12.373168,18.8387824 C12.0264938,18.156708 11.3923337,17.6944758 10.6369786,17.5732807 C9.87880496,17.4520857 9.13472379,17.6944758 8.59357384,18.2356257 L7.81848929,19.0078918 C7.64374295,19.1826381 7.44081172,19.1826381 7.33652762,19.1657272 C7.23224352,19.1488162 7.03776776,19.089628 6.9222097,18.8726043 L6.79255919,18.6245772 C6.45997745,17.9904171 5.86527621,17.5479143 5.16347238,17.4041714 C4.46166855,17.2632469 3.74295378,17.4436302 3.19052988,17.9002255 L1.84611048,19.0107103 L1.84611048,16.8207441 L1.84611048,16.8207441 Z M4.3940248,10.2733935 C4.57440812,10.1240135 4.76606539,10.1352875 4.86189402,10.1550169 C4.96054115,10.1747463 5.14092446,10.2395716 5.24802706,10.4453213 L5.37767756,10.6933484 C5.72998873,11.3669673 6.36414882,11.8179256 7.11668546,11.9306652 C7.8692221,12.0462232 8.60766629,11.8038331 9.14599775,11.2655017 L9.9210823,10.4904171 C10.1042841,10.3072153 10.3213078,10.3184893 10.4058625,10.3325817 C10.4904171,10.3466742 10.7018038,10.403044 10.8173619,10.6341601 C11.1640361,11.319053 11.8010147,11.7812852 12.5591883,11.8996618 C13.3173619,12.0180383 14.0642616,11.7756483 14.6054115,11.2316798 L15.3551297,10.4763247 C15.529876,10.3015784 15.7328072,10.3015784 15.8370913,10.3156708 C15.9413754,10.3325817 16.1358512,10.39177 16.2514092,10.6087937 L16.2824126,10.667982 C16.6403608,11.3444194 17.2773393,11.7981962 18.035513,11.9081172 C18.7936866,12.0180383 19.5349493,11.7671928 20.0676437,11.2175874 L20.910372,10.3551297 C21.0738444,10.1888388 21.2655017,10.1775648 21.3669673,10.1888388 C21.4656144,10.1972943 21.6544532,10.2423901 21.7841037,10.4368658 L23.1313416,12.4718151 L23.1313416,13.8387824 C22.7311161,13.3060879 22.1307779,12.9650507 21.4599775,12.903044 C20.7440812,12.8354002 20.0450958,13.0918828 19.5434047,13.6076663 L18.7006764,14.470124 C18.5202931,14.6561443 18.3032694,14.6448703 18.2187148,14.6335964 C18.1341601,14.6223224 17.9227734,14.5687711 17.8015784,14.3404735 L17.770575,14.2812852 C17.4154453,13.6076663 16.7812852,13.156708 16.0287486,13.0439684 C15.276212,12.9312289 14.5377678,13.1764374 13.9994363,13.7147689 L13.2497182,14.470124 C13.0665163,14.6533258 12.8494927,14.6420519 12.7621195,14.6279594 C12.6775648,14.613867 12.4661781,14.5574972 12.3478016,14.3263811 C12.0011274,13.6443067 11.3669673,13.1820744 10.6116122,13.0608794 C9.85343856,12.9396843 9.10935738,13.1820744 8.56820744,13.7232244 L7.79312289,14.4983089 C7.61837655,14.6730552 7.41544532,14.6730552 7.31116122,14.6561443 C7.20687711,14.6392334 7.01240135,14.5800451 6.89684329,14.3630214 L6.76719278,14.1149944 C6.43461105,13.4808343 5.83990981,13.0383315 5.13810598,12.8945885 C4.43630214,12.753664 3.71758737,12.9340474 3.16516347,13.3906426 L1.843292,14.481398 L1.843292,12.373168 L4.3940248,10.2733935 L4.3940248,10.2733935 Z M22.229425,22.3421646 L2.74802706,22.3421646 C2.25197294,22.3421646 1.84611048,21.9363021 1.84611048,21.440248 L1.84611048,21.3500564 L4.33765502,19.2925592 C4.51803833,19.1431793 4.7096956,19.1544532 4.80552424,19.1741826 C4.90417136,19.1939121 5.08455468,19.2587373 5.19165727,19.464487 L5.32130778,19.7125141 C5.67361894,20.386133 6.30777903,20.8370913 7.06031567,20.9498309 C7.81285231,21.065389 8.55129651,20.8229989 9.08962796,20.2846674 L9.86471251,19.5095829 C10.0479143,19.3263811 10.264938,19.337655 10.3494927,19.3517475 C10.4340474,19.3658399 10.645434,19.4222097 10.7609921,19.6533258 C11.1076663,20.3382187 11.7446449,20.800451 12.5028185,20.9188275 C13.2609921,21.0400225 14.0078918,20.794814 14.5490417,20.2508455 L15.2987599,19.4954904 C15.4735062,19.3207441 15.6764374,19.3207441 15.7807215,19.3348365 C15.8850056,19.3517475 16.0794814,19.4109357 16.1950395,19.6279594 L16.2260428,19.6871477 C16.583991,20.3635851 17.2209696,20.8173619 17.9791432,20.927283 C18.7373168,21.0372041 19.4785795,20.7863585 20.011274,20.2367531 L20.8540023,19.3742954 C21.0174746,19.2080045 21.2091319,19.1967306 21.3105975,19.2080045 C21.4092446,19.21646 21.5980834,19.2615558 21.7277339,19.4560316 L23.1200676,21.5586246 C23.0636979,22.0039459 22.6860203,22.3421646 22.229425,22.3421646 L22.229425,22.3421646 Z" id="形状" fill-rule="nonzero"></path>
                <path d="M14.994363,4.3151071 C14.994363,2.45490417 13.0411499,0.00563697858 12.4774521,0.00563697858 C12.0856821,0.00563697858 10.0704622,2.73957159 10.0930101,4.3151071 C10.1127396,5.66798196 11.1894025,6.7643743 12.5422773,6.7643743 C13.8951522,6.7643743 14.994363,5.66798196 14.994363,4.3151071 Z" id="路径"></path>
            </g>
        </g>
    </g>
</svg>