<?xml version="1.0" encoding="UTF-8"?>
<svg width="24px" height="28px" viewBox="0 0 24 28" version="1.1" xmlns="http://www.w3.org/2000/svg" xmlns:xlink="http://www.w3.org/1999/xlink">
    <!-- Generator: Sketch 58 (84663) - https://sketch.com -->
    <title>安防</title>
    <desc>Created with Sketch.</desc>
    <g id="Page-1" stroke="none" stroke-width="1" fill="none" fill-rule="evenodd">
        <g id="Data--Copy-6" transform="translate(-50.000000, -451.000000)" fill="#FFFFFF" fill-rule="nonzero">
            <g id="安防" transform="translate(50.000000, 451.000000)">
                <path d="M11.9711191,0 C11.9711191,0 11.9711191,0.0146520147 11.9711191,0 C10.4115523,3.75091575 0,3.54578755 0,3.54578755 L0,17.3919414 C0,17.3919414 5.45848375,26.4175824 11.9711191,28 C18.4837545,26.4322344 24,17.3919414 24,17.3919414 L24,3.54578755 C24,3.53113553 13.5306859,3.73626374 11.9711191,0 Z M22.1371841,16.7912088 C18.8158845,21.7435897 14.1371841,25.3040293 11.9711191,25.978022 C9.80505415,25.3186813 5.24187726,21.7582418 1.92057762,16.8058608 L1.92057762,5.45054945 C3.03249097,5.39194139 4.3465704,5.27472527 5.86281588,5.04029304 C7.85559567,4.73260073 10.3104693,4.20512821 11.9711191,3.01831502 L11.9711191,3.003663 C13.631769,4.20512821 16.0866426,4.73260073 18.0794224,5.02564103 C19.5956679,5.26007326 21.0252708,5.37728938 22.1371841,5.43589744 L22.1371841,16.7912088 Z M12.9241877,7.35531136 L11.0613718,7.35531136 L11.0613718,12.8791209 L5.54512635,12.8791209 L5.54512635,14.8424908 L11.0613718,14.8424908 L11.0613718,20.3663004 L12.9241877,20.3663004 L12.9241877,14.8424908 L18.4404332,14.8424908 L18.4404332,12.8791209 L12.9241877,12.8791209 L12.9241877,7.35531136 Z" id="形状"></path>
            </g>
        </g>
    </g>
</svg>