<?xml version="1.0" encoding="UTF-8"?>
<svg width="27px" height="28px" viewBox="0 0 27 28" version="1.1" xmlns="http://www.w3.org/2000/svg" xmlns:xlink="http://www.w3.org/1999/xlink">
    <!-- Generator: Sketch 58 (84663) - https://sketch.com -->
    <title>子系统管理_画板 1</title>
    <desc>Created with Sketch.</desc>
    <g id="Page-1" stroke="none" stroke-width="1" fill="none" fill-rule="evenodd">
        <g id="Data--Copy-6" transform="translate(-49.000000, -251.000000)" fill="#FFFFFF">
            <g id="子系统管理_画板-1" transform="translate(49.000000, 251.000000)">
                <path d="M12.0666667,21 C12.0666667,21 11.9111111,21 12.0666667,21 C8.4888889,20.3707865 6,17.5393259 6,14.0786517 C6,10.1460674 9.1111111,7 13,7 C16.8888889,7 20,10.1460674 20,14.0786517 C20,14.8651685 19.8444444,15.494382 19.5333333,16.2808989 C19.3777778,16.752809 18.9111111,17.0674157 18.2888889,16.9101124 C17.8222222,16.752809 17.5111111,16.2808989 17.6666667,15.6516854 C17.8222222,15.0224719 17.9777778,14.5505618 17.9777778,14.0786517 C17.9777778,11.247191 15.6444444,8.88764045 12.8444444,8.88764045 C10.0444444,8.88764045 7.86666667,11.247191 7.86666667,14.0786517 C7.86666667,16.5955056 9.73333333,18.7977528 12.0666667,19.1123595 C12.5333333,19.2696629 13,19.741573 12.8444444,20.2134832 C12.8444444,20.6853933 12.5333333,21 12.0666667,21 Z" id="路径"></path>
                <path d="M12.613093,28 L10.6849509,28 C10.239995,28 9.7950391,27.5483871 9.7950391,27.0967742 L9.7950391,24.3870968 C8.60849008,23.9354839 7.57025967,23.3333333 6.5320293,22.5806452 L4.15893123,23.9354839 C4.01061259,24.0860215 3.71397535,24.0860215 3.4173381,24.0860215 C3.12070086,24.0860215 2.97238222,23.9354839 2.82406358,23.6344086 L0.154328269,18.516129 C0.00600962883,18.3655914 0.00600962883,18.0645161 0.00600962883,17.7634409 C0.00600962883,17.4623656 0.154328269,17.311828 0.450965514,17.1612903 L2.82406358,15.8064516 C2.67574494,15.2043011 2.67574494,14.4516129 2.67574494,13.8494624 C2.67574494,13.2473118 2.67574494,12.6451613 2.82406358,12.0430107 L0.450965514,10.8387097 C0.00600962883,10.5376344 -0.142309011,9.93548387 0.154328269,9.48387097 L2.97238222,4.51612903 C3.26901946,4.06451613 3.71397535,3.91397848 4.15893123,4.21505378 L6.38371066,5.56989248 C7.42194107,4.66666668 8.46017144,4.06451613 9.64672049,3.61290323 L9.64672049,0.903225806 C9.64672049,0.451612903 10.0916764,0 10.5366323,0 L16.3210588,0 C16.7660146,0 17.2109705,0.451612903 17.2109705,0.903225806 L17.2109705,3.61290323 C18.3975195,4.06451613 19.5840686,4.66666668 20.4739803,5.56989248 L22.6987598,4.21505378 C22.8470784,4.06451613 23.1437156,4.06451613 23.4403529,4.06451613 C23.7369902,4.06451613 23.8853088,4.21505378 24.0336274,4.51612903 L26.8516814,9.63440861 C27,9.78494626 27,10.0860215 27,10.3870968 C27,10.688172 26.8516814,10.8387097 26.5550441,10.9892473 L24.3302647,12.344086 C24.4785833,12.9462366 24.4785833,13.5483871 24.4785833,14.1505376 C24.4785833,14.7526882 24.4785833,15.3548387 24.3302647,16.1075269 C24.1819461,16.5591398 23.7369902,16.860215 23.2920343,16.8602151 C22.8470784,16.7096774 22.5504412,16.2580645 22.5504412,15.8064516 C22.6987598,15.2043011 22.6987598,14.6021505 22.6987598,14.1505376 C22.6987598,13.3978495 22.5504411,12.7956989 22.4021225,12.0430107 C22.2538039,11.5913978 22.5504412,11.2903226 22.8470784,10.9892473 L24.9235392,9.78494622 L22.995397,6.32258065 L20.9189362,7.3763441 C20.622299,7.52688174 20.1773431,7.52688174 19.8807058,7.22580645 C18.8424754,6.172043 17.5076078,5.41935484 16.1727401,5.11827958 C15.7277842,4.96774194 15.5794656,4.66666668 15.5794656,4.21505378 L15.5794656,1.80645161 L11.5748626,1.80645161 L11.5748626,4.21505378 C11.5748626,4.66666668 11.2782254,4.96774194 10.9815881,5.11827958 C9.49840185,5.56989248 8.31185284,6.32258065 7.27362243,7.22580645 C6.97698518,7.52688171 6.5320293,7.67741935 6.23539202,7.3763441 L4.15893123,6.172043 L2.08247045,9.63440861 L4.15893123,10.8387097 C4.60388712,11.1397849 4.75220576,11.4408602 4.60388712,11.8924731 C4.45556848,12.6451613 4.30724987,13.2473118 4.30724987,14 C4.30724987,14.7526882 4.45556851,15.5053764 4.60388712,16.2580645 C4.75220576,16.5591398 4.60388712,17.0107527 4.15893123,17.1612903 L2.08247045,18.3655914 L4.01061259,21.827957 L6.08707341,20.6236559 C6.38371066,20.4731183 6.82866654,20.4731183 7.12530379,20.7741935 C8.1635342,21.827957 9.35008321,22.4301075 10.6849509,22.8817204 C11.1299068,23.0322581 11.2782254,23.3333333 11.2782254,23.7849462 L11.2782254,26.1935484 L12.3164558,26.1935484 C12.7614117,26.1935484 13.2063676,26.6451613 13.2063676,27.0967742 C13.2063676,27.5483871 13.0580489,28 12.613093,28 Z" id="路径"></path>
                <path d="M25.1428571,19.8461538 L16.8571429,19.8461538 C16.4285714,19.8461538 16,19.3846154 16,18.9230769 C16,18.4615385 16.4285714,18 16.8571429,18 L25.1428571,18 C25.5714286,18 26,18.4615385 26,18.9230769 C26,19.3846154 25.5714286,19.8461538 25.1428571,19.8461538 Z M25.1428571,23.8461538 L16.8571429,23.8461538 C16.4285714,23.8461538 16,23.3846154 16,22.9230769 C16,22.4615385 16.4285714,22 16.8571429,22 L25.1428571,22 C25.5714286,22 26,22.4615385 26,22.9230769 C26,23.3846154 25.5714286,23.8461538 25.1428571,23.8461538 Z M25.1428571,28 L16.8571429,28 C16.4285714,28 16,27.5384615 16,27.0769231 C16,26.6153846 16.4285714,26.1538462 16.8571429,26.1538462 L25.1428571,26.1538462 C25.5714286,26.1538462 26,26.6153846 26,27.0769231 C26,27.5384615 25.5714286,28 25.1428571,28 Z" id="形状" fill-rule="nonzero"></path>
            </g>
        </g>
    </g>
</svg>