<?xml version="1.0" encoding="UTF-8"?>
<svg width="25px" height="26px" viewBox="0 0 25 26" version="1.1" xmlns="http://www.w3.org/2000/svg" xmlns:xlink="http://www.w3.org/1999/xlink">
    <!-- Generator: Sketch 58 (84663) - https://sketch.com -->
    <title>5.2.1危险品入库记录表-01</title>
    <desc>Created with Sketch.</desc>
    <g id="Page-1" stroke="none" stroke-width="1" fill="none" fill-rule="evenodd">
        <g id="Data--Copy-6" transform="translate(-51.000000, -988.000000)" fill="#FFFFFF" fill-rule="nonzero">
            <g id="5.2.1危险品入库记录表-01" transform="translate(51.000000, 988.000000)">
                <path d="M19.2626965,12.8624547 C19.2626965,13.2297541 18.9649415,13.5275091 18.5976421,13.5275091 C18.2312576,13.5275091 17.7209794,13.2303507 17.7209794,12.8624547 L17.7209794,2.06015719 C17.7211487,1.81644221 17.5242443,1.61845666 17.280532,1.61729141 L2.05834341,1.61729141 C1.94096828,1.61729141 1.82840052,1.6639185 1.74540377,1.74691526 C1.66240702,1.82991201 1.61577993,1.94247976 1.61577993,2.0598549 L1.61577993,22.0350665 C1.61577993,22.2793229 1.4526017,22.9643548 0.78447762,22.9643548 C0.116353544,22.9643548 0.015719468,22.5001128 0.015719468,22.030532 L0.015719468,1.78808948 C0.015719468,0.810238277 0.808424492,0.0175332269 1.7862757,0.0175332269 L17.4924426,0.0175332269 C17.9620479,0.0175332269 18.4124424,0.203967509 18.7445034,0.536028599 C19.0765645,0.868089688 19.2629988,1.31848419 19.2629988,1.78808948 L19.2626965,12.8624547 Z" id="形状"></path>
                <path d="M12.9034089,13.2750105 C13.8232144,13.756115 14.1377557,14.8217738 13.6067484,15.6549819 L11.1898946,19.4483534 C11.0318809,19.7009613 10.7660441,19.8862184 10.4525129,19.9622221 C10.1389816,20.0382258 9.80424538,19.9985548 9.52401675,19.852182 C8.93935853,19.5408324 8.74119709,18.8711238 9.07777446,18.3440566 L10.9622199,15.3857628 C11.1140936,15.1483353 11.0251412,14.8464741 10.7618662,14.70586 L8.27635974,13.4058809 L7.26338274,14.9956444 L7.00558499,15.4007194 C6.75629414,15.798967 6.33709033,16.0910231 5.84271663,16.2108807 C5.34834294,16.3307384 4.82053094,16.2682801 4.37856995,16.037622 L3.93232766,15.804548 L0.610379586,14.0670879 C0.0253086698,13.7557137 -0.172906204,13.0855477 0.164137294,12.5583394 C0.322031031,12.3056255 0.587814986,12.120235 0.901356891,12.0441114 C1.2148988,11.9679878 1.5497006,12.0075645 1.8300151,12.1538876 L4.67559779,13.642694 C4.93899983,13.7797963 5.27455723,13.6987813 5.42657382,13.4600986 L6.16494018,12.3015841 L6.90891085,11.134345 L7.38387516,10.3883838 L8.94046915,7.94671637 L8.33310327,7.6288883 C8.20674966,7.56319715 8.05598304,7.54553662 7.91482075,7.57989143 C7.77365846,7.61424625 7.65399421,7.69772183 7.58282776,7.81148364 L6.68613997,9.21927503 C6.527987,9.47175284 6.26215232,9.6568953 5.94867901,9.73288496 C5.6352057,9.80887462 5.30053659,9.76930143 5.02026216,9.62310364 C4.43560395,9.31175404 4.23744251,8.64204547 4.57401987,8.11497829 L5.74531832,6.27531462 L6.00241551,5.87023964 C6.25158647,5.47188611 6.67073752,5.17969667 7.16512188,5.05971915 C7.65950623,4.93974163 8.18738373,5.00210556 8.62943057,5.23271391 L9.07567284,5.46641103 L10.1587036,6.03351601 L10.1895272,6.04909582 L13.6838075,7.87629564 L14.2911734,8.1941237 C14.5538749,8.33122601 14.8901328,8.250211 15.0414489,8.01215156 L15.9388372,6.60373696 C16.0968509,6.35112903 15.9528386,10.6426921 15.4584542,10.7626697 C14.9640699,10.8826472 14.4361924,10.8202833 13.9941455,10.5896749 L13.5479033,10.3559778 L12.4648725,9.78949599 L10.9082786,12.2317866 L11.6802707,12.6356152 L12.5860655,13.1092413 L12.9034089,13.2750105 Z M11.2683134,2.99902418 C11.5275724,2.54168698 11.9633938,2.2062826 12.4773529,2.06855799 C12.9913119,1.93083338 13.54006,2.00240457 13.9996692,2.2671081 C14.9564697,2.81976562 15.2841223,4.043459 14.7313807,4.99995563 C14.4723573,5.45752284 14.0366395,5.79321685 13.5226595,5.93120166 C13.0086795,6.06918646 12.4598027,5.99782004 12.0000249,5.73322463 C11.0432244,5.17989066 10.7162602,3.95552084 11.2683134,2.99902418 Z" id="形状" transform="translate(8.000000, 11.000000) scale(-1, 1) translate(-8.000000, -11.000000) "></path>
                <path d="M17.5205414,21.1406233 L12.184018,21.1406233 C12.0613393,21.0178108 12,20.8949984 12,20.7107797 C12,20.526561 12.0613393,20.4037485 12.184018,20.280936 L15.1896461,15.2456249 C15.3736642,15.0614062 15.4963429,15 15.6803609,15 C15.864379,15 15.9870577,15.0614062 16.1097364,15.1842187 L18.5633103,19.2984363 C18.8700071,18.8685927 19.0540251,18.5615615 19.0540251,18.5615615 L19.0540251,15.5526561 L18.6246497,15.5526561 L18.6246497,15.1228125 L22.1823319,15.1228125 L22.1823319,15.5526561 L21.7529564,15.5526561 L21.7529564,18.5615615 C22.9797434,20.4037485 24.145191,22.4301542 24.8812632,24.1495287 C25.4946567,25.6232783 23.5317976,25.4390596 23.5317976,25.4390596 L17.275184,25.4390596 C17.275184,25.4390596 16.2937544,25.5004659 15.9870577,24.6407786 C15.9257183,24.5179661 15.9257183,24.210935 16.048397,23.8424976 C16.4777725,22.9828103 16.9684872,22.0003106 17.5205414,21.1406233 Z M22.6730467,23.2898415 C22.6730467,22.7985916 22.3050106,22.4301542 21.7529564,22.4301542 C21.2622417,22.4301542 20.8328662,22.7985916 20.8328662,23.2898415 C20.8328662,23.7810913 21.2009023,24.1495287 21.7529564,24.1495287 C22.2436712,24.1495287 22.6730467,23.7810913 22.6730467,23.2898415 Z M19.9741153,22.4301542 C20.4648301,22.4301542 20.8942056,22.0617168 20.8942056,21.5704669 C20.8942056,21.0792171 20.5261695,20.7107797 19.9741153,20.7107797 C19.4834005,20.7107797 19.0540251,21.0792171 19.0540251,21.5704669 C19.0540251,22.0617168 19.4834005,22.4301542 19.9741153,22.4301542 Z M19.0540251,23.2898415 C19.0540251,23.0442165 18.8700071,22.8599978 18.6246497,22.8599978 C18.3792923,22.8599978 18.1952742,23.0442165 18.1952742,23.2898415 C18.1952742,23.5354664 18.3792923,23.7196851 18.6246497,23.7196851 C18.8700071,23.7196851 19.0540251,23.5354664 19.0540251,23.2898415 Z M19.5447399,18.684374 C19.1767038,19.1756239 18.8700071,19.6054675 18.7473284,19.8510924 L22.1823319,19.8510924 C21.9983138,19.6054675 21.7529564,19.2370301 21.3849204,18.684374 L21.3849204,15.5526561 L19.6060792,15.5526561 L19.6060792,18.684374 L19.5447399,18.684374 Z M15.3736642,17.0264057 L15.3736642,18.684374 C15.3736642,18.8071865 15.4350035,18.8685927 15.4963429,18.9299989 C15.5576822,18.9914052 15.6803609,19.0528114 15.7417003,19.0528114 C15.864379,19.0528114 15.9257183,18.9914052 15.9870577,18.9299989 C16.048397,18.8685927 16.1097364,18.8071865 16.1097364,18.684374 L16.1097364,17.0264057 C16.1097364,16.9035932 16.048397,16.842187 15.9870577,16.7807808 C15.9257183,16.7193745 15.8030396,16.6579683 15.7417003,16.6579683 C15.6190216,16.6579683 15.5576822,16.7193745 15.4963429,16.7807808 C15.4350035,16.842187 15.3736642,16.9035932 15.3736642,17.0264057 Z M15.4963429,20.0967173 C15.5576822,20.1581236 15.6803609,20.2195298 15.7417003,20.2195298 C15.864379,20.2195298 15.9257183,20.1581236 15.9870577,20.0967173 C16.048397,20.0353111 16.1097364,19.9124986 16.1097364,19.8510924 C16.1097364,19.7282799 16.048397,19.6668737 15.9870577,19.6054675 C15.9257183,19.5440613 15.8030396,19.482655 15.7417003,19.482655 C15.6190216,19.482655 15.5576822,19.5440613 15.4963429,19.6054675 C15.4350035,19.6668737 15.3736642,19.7282799 15.3736642,19.8510924 C15.3736642,19.9124986 15.4350035,20.0353111 15.4963429,20.0967173 Z" id="形状"></path>
            </g>
        </g>
    </g>
</svg>