<?xml version="1.0" encoding="UTF-8"?>
<svg width="28px" height="28px" viewBox="0 0 28 28" version="1.1" xmlns="http://www.w3.org/2000/svg" xmlns:xlink="http://www.w3.org/1999/xlink">
    <!-- Generator: Sketch 58 (84663) - https://sketch.com -->
    <title>分组 12</title>
    <desc>Created with Sketch.</desc>
    <g id="Page-1" stroke="none" stroke-width="1" fill="none" fill-rule="evenodd" stroke-linecap="round" stroke-linejoin="round">
        <g id="Data--Copy-6" transform="translate(-913.000000, -187.000000)" fill-rule="nonzero" stroke="#FFFFFF" stroke-width="1.4">
            <g id="分组-12" transform="translate(913.000000, 188.000000)">
                <path d="M8.51490669,19.5075507 C9.02446296,20.7514205 9.50552479,21.6521939 9.95809218,22.2098709 C10.4106596,22.7675479 12.675023,24.1125293 16.7511824,26.2448151 C19.3672923,24.5771632 21.0208424,23.5157451 21.7118327,23.0605609 C22.402823,22.6053767 24.048886,20.7100599 26.6500218,17.3746107 L27,5.18931021 L16.4024889,0.30193137 L6.30969593,4.96263788 L6.30969593,7.15629486 C5.36169775,7.39061264 4.75846578,7.7799514 4.5,8.32431113 C4.11230134,9.14085072 3.95070719,10.8597775 4.81535368,11.1873182 C5.68000017,11.5148589 1.67452018,9.85818317 1.15200025,11.8066362 C0.629480324,13.7550893 1.16685384,15.186499 3.43475421,15.186499 C5.70265457,15.186499 12.9332175,15.2726366 13.4544042,14.8602667 C13.9755909,14.4478968 14.8991162,13.6547772 14.2241903,12.162308 C13.5492645,10.6698387 12.0330257,10.2733879 10.9455119,10.6776892 C10.2205028,10.9472234 9.66507915,11.5967078 9.2792411,12.6261423" id="路径-74"></path>
                <path d="M6.11046982,7.1850844 C7.3020431,6.89703366 8.32059427,7.03911577 9.16612331,7.61133075 C10.0116523,8.18354573 10.7377317,9.17164634 11.3443615,10.5756326" id="路径-75"></path>
                <polyline id="路径-76" points="14.4677164 24.7124059 14.4677164 19.7036962 12.944937 18.9686315"></polyline>
                <path d="M16.5102721,26.1344102 L16.5102721,9.43049392" id="路径-77"></path>
                <polyline id="路径-78" points="18.6681153 19.3891575 18.6681153 12.6680002 21.1920246 10.7238654"></polyline>
                <path d="M6.30601995,15.5 L6.30601995,23.3619467" id="路径-79"></path>
                <path d="M2.49337298,14.8897892 L2.49337298,20.5047784" id="路径-80"></path>
                <circle id="椭圆形" cx="2.5" cy="21.5" r="1.5"></circle>
                <circle id="椭圆形-copy-5" cx="6.5" cy="24.5" r="1.5"></circle>
                <circle id="椭圆形-copy-6" cx="11.6186669" cy="18.5" r="1.5"></circle>
                <circle id="椭圆形-copy-7" cx="16.6" cy="7" r="2"></circle>
                <circle id="椭圆形-copy-8" cx="22.5" cy="10.5" r="1.5"></circle>
            </g>
        </g>
    </g>
</svg>