<?xml version="1.0" encoding="UTF-8"?>
<svg width="30px" height="21px" viewBox="0 0 30 21" version="1.1" xmlns="http://www.w3.org/2000/svg" xmlns:xlink="http://www.w3.org/1999/xlink">
    <!-- Generator: Sketch 58 (84663) - https://sketch.com -->
    <title>分组 13</title>
    <desc>Created with Sketch.</desc>
    <g id="Page-1" stroke="none" stroke-width="1" fill="none" fill-rule="evenodd">
        <g id="Data--Copy-6" transform="translate(-911.000000, -457.000000)" fill-rule="nonzero">
            <g id="分组-13" transform="translate(911.000000, 458.000000)">
                <rect id="矩形" stroke="#FFFFFF" stroke-width="1.3" x="2.65" y="15.65" width="24.7" height="1.7" rx="0.85"></rect>
                <rect id="矩形-copy" stroke="#FFFFFF" stroke-width="1.3" x="0.65" y="17.65" width="28.7" height="1.7" rx="0.85"></rect>
                <path d="M25.7487001,15.5922657 C25.8090537,13.4196512 26.0996949,11.8166096 26.6206238,10.7831409" id="路径-81" stroke="#FFFFFF" stroke-width="1.3" stroke-linecap="round" stroke-linejoin="round" transform="translate(26.184662, 13.187703) rotate(-203.000000) translate(-26.184662, -13.187703) "></path>
                <path d="" id="路径-82" stroke="#979797"></path>
                <path d="M15.5,10.4572594 C17.1666667,5.66273987 18,3.01032008 18,2.5 C18,1.11928813 16.8807119,-3.90798505e-14 15.5,-3.90798505e-14 C14.1192881,-3.90798505e-14 13,1.11928813 13,2.5 C13,2.97141598 13.8333333,5.62383577 15.5,10.4572594 Z" id="椭圆形" stroke="#FFFFFF" stroke-width="1.3" stroke-linecap="round" stroke-linejoin="round"></path>
                <path d="M23.2046137,13.510257 C25.1402434,10.0176633 26.1080582,8.01620647 26.1080582,7.50588639 C26.1080582,6.12517451 24.9887701,5.00588639 23.6080582,5.00588639 C22.2273463,5.00588639 21.1080582,6.12517451 21.1080582,7.50588639 C21.1080582,7.97730237 21.80691,9.97875925 23.2046137,13.510257 Z" id="椭圆形" stroke="#FFFFFF" stroke-width="1.3" stroke-linecap="round" stroke-linejoin="round" transform="translate(23.608058, 9.258072) rotate(51.000000) translate(-23.608058, -9.258072) "></path>
                <path d="M6.81901097,13.4411639 C8.75464067,9.9485702 9.72245551,7.94711332 9.72245551,7.43679324 C9.72245551,6.05608137 8.60316739,4.93679324 7.22245551,4.93679324 C5.84174364,4.93679324 4.72245551,6.05608137 4.72245551,7.43679324 C4.72245551,7.90820923 5.42130733,9.90966611 6.81901097,13.4411639 Z" id="椭圆形" stroke="#FFFFFF" stroke-width="1.3" stroke-linecap="round" stroke-linejoin="round" transform="translate(7.222456, 9.188979) rotate(-60.000000) translate(-7.222456, -9.188979) "></path>
                <path d="M3.06403816,15.8091248 C3.1243918,13.6365103 3.41503303,12.0334687 3.93596184,11" id="路径-81" stroke="#FFFFFF" stroke-width="1.3" stroke-linecap="round" stroke-linejoin="round"></path>
                <path d="M7.70204365,6.35406075 C8.68651863,4.77562904 10.3270091,3.62038555 12.623515,2.88833031" id="路径-83" stroke="#FFFFFF" stroke-width="1.3" stroke-linecap="round" stroke-linejoin="round"></path>
                <path d="M18.1898265,2.88547703 C19.8102013,3.18573667 21.4305762,4.45943861 23.050951,6.70658287" id="路径-84" stroke="#FFFFFF" stroke-width="1.3" stroke-linecap="round" stroke-linejoin="round"></path>
                <path d="M15.3,19.8089231 C16.9568542,19.8089231 18.3878904,17.1715236 18.3878904,15.5146693 C18.3878904,13.8578151 16.9568542,13 15.3,13 C13.6431458,13 12.2206836,13.8578151 12.2206836,15.5146693 C12.2206836,17.1715236 13.6431458,19.8089231 15.3,19.8089231 Z" id="椭圆形" fill="#FFFFFF"></path>
            </g>
        </g>
    </g>
</svg>