<?xml version="1.0" encoding="UTF-8"?>
<svg width="27px" height="26px" viewBox="0 0 27 26" version="1.1" xmlns="http://www.w3.org/2000/svg" xmlns:xlink="http://www.w3.org/1999/xlink">
    <!-- Generator: Sketch 58 (84663) - https://sketch.com -->
    <title>指挥调度(1)</title>
    <desc>Created with Sketch.</desc>
    <g id="Page-1" stroke="none" stroke-width="1" fill="none" fill-rule="evenodd">
        <g id="Data--Copy-6" transform="translate(-658.000000, -389.000000)" stroke="#FFFFFF">
            <g id="指挥调度(1)" transform="translate(658.000000, 389.000000)">
                <path d="M13.3677577,8.72109708 L15.4013446,8.72109708 L15.4013446,13.3530765 C15.4013446,13.7103157 15.6694724,14 16.0004855,14 C16.3315172,14 16.5996451,13.7102961 16.5996451,13.3530765 L16.5996451,8.72109708 L18.631147,8.72109708 C18.7636725,8.71935033 18.8852041,8.64291766 18.949799,8.52069314 C19.0159971,8.39722114 19.0167724,8.24631064 18.9518467,8.12208728 L16.3181322,3.20256665 C16.255056,3.07850802 16.132808,3.00079509 15.9994803,3 C15.8657848,3.00039922 15.7430554,3.0781682 15.6798044,3.20256665 L13.0501482,8.12208728 C12.9836574,8.24557458 12.9832619,8.39681979 13.0491057,8.52069314 C13.1133985,8.64375581 13.2357185,8.72043338 13.3688002,8.72109708 L13.3677577,8.72109708 Z" id="路径" stroke-width="0.3" fill="#FFFFFF"></path>
                <path d="M22.8067204,14.614075 L20.4086518,13.1860431 C20.29179,13.1172014 20.1470774,13.1176131 20.0306033,13.1871189 C19.9131887,13.2579344 19.8410953,13.3854892 19.8405497,13.5233806 L19.8405497,14.3203814 L7.68640222,14.3203814 C6.5670875,14.3225137 5.58818751,13.543589 5.30731992,12.4284217 C5.0226648,11.3196387 5.50631019,10.1556059 6.48999855,9.58196283 C7.46781459,9.02160614 8.7000641,9.2157625 9.46146861,10.0501552 C10.2323199,10.8865354 10.3558834,12.15388 9.76240906,13.1317956 C9.59472654,13.4265923 9.68462976,13.8020347 9.96727427,13.9873277 C10.2481609,14.1682232 10.6187941,14.0862948 10.802538,13.8021676 C11.6919943,12.3326394 11.507594,10.4470865 10.350584,9.18079231 C9.20927102,7.92883766 7.36134266,7.63671667 5.89442735,8.47636192 C4.4266683,9.31485518 3.69699207,11.0706389 4.11835064,12.7444559 C4.54071953,14.4182921 6.0085167,15.585613 7.68644035,15.5845373 L19.8426656,15.5845373 L19.8426656,16.377312 C19.8426656,16.5156202 19.9155227,16.6433247 20.0327193,16.7135545 C20.1488864,16.7837843 20.2925037,16.7837843 20.4097193,16.7156676 L22.8077879,15.2876549 C22.9272987,15.2181349 23.0006577,15.0893922 23,14.9503367 C23.0002852,14.8116622 22.9269845,14.683412 22.8078069,14.614075 L22.8067204,14.614075 Z M15.8162742,16.9997948 C15.4741875,17.004476 15.2003139,17.2871264 15.2038326,17.6318631 L15.2038326,21.3679125 C15.2038326,21.7169485 15.4783714,22 15.8162742,22 C16.1552444,22 16.4298023,21.7169485 16.4298023,21.3679317 L16.4298023,17.6329388 C16.433914,17.2877694 16.1598455,17.0044542 15.8173226,16.9997948 L15.8162742,16.9997948 Z M10.7529563,16.9997948 C10.4104434,17.0038778 10.1359128,17.2867044 10.1394281,17.6318631 L10.1394281,21.3679125 C10.1394281,21.7169485 10.413986,22 10.7519078,22 C11.0908399,22 11.3664653,21.7169485 11.3664653,21.3679317 L11.3664653,17.6329388 C11.3684387,17.4669919 11.3049072,17.3070529 11.1898494,17.1883128 C11.0747916,17.0695727 10.9176343,17.0017598 10.7529563,16.9997948 Z" id="形状" stroke-width="0.3" fill="#FFFFFF" fill-rule="nonzero"></path>
                <rect id="矩形" stroke-width="1.4" fill-rule="nonzero" x="0.7" y="0.7" width="25.6" height="24.6" rx="3.5"></rect>
            </g>
        </g>
    </g>
</svg>