<?xml version="1.0" encoding="UTF-8"?>
<svg width="26px" height="23px" viewBox="0 0 26 23" version="1.1" xmlns="http://www.w3.org/2000/svg" xmlns:xlink="http://www.w3.org/1999/xlink">
    <!-- Generator: Sketch 58 (84663) - https://sketch.com -->
    <title>监控</title>
    <desc>Created with Sketch.</desc>
    <g id="Page-1" stroke="none" stroke-width="1" fill="none" fill-rule="evenodd">
        <g id="Data--Copy-6" transform="translate(-51.000000, -588.000000)" fill="#FFFFFF">
            <g id="监控" transform="translate(51.000000, 588.000000)">
                <path d="M3.71901235,14.5853659 C3.54473217,14.5853659 3.38629564,14.5382295 3.25954642,14.4282448 L0.312626977,12.2442621 C-0.0359333864,11.9928684 -0.099307998,11.5057931 0.154190448,11.1758389 C0.21756506,11.0972783 0.280939672,11.0344299 0.360157936,10.9872936 L17.7881761,0.365910012 C18.9130755,-0.309710542 20.3706916,-0.0268926359 21.1470305,1.02581846 C21.1470305,1.04153057 21.1628742,1.04153057 21.1628742,1.05724267 L23.9672008,5.23666284 C24.2048556,5.58232917 24.1097936,6.06940445 23.7453896,6.30508604 L23.729546,6.32079815 L13.3836406,12.6213526 C13.0667676,12.82561 12.6389889,12.7627616 12.3854905,12.4642316 C12.0210865,12.087141 11.5933078,11.7728989 11.1179983,11.5372173 C10.1832227,11.0815662 9.26429087,11.1287026 8.3770463,11.6314899 C5.73115627,13.1712763 4.21016559,14.3968206 4.19432194,14.4125327 C4.06757271,14.5225174 3.89329253,14.5853659 3.71901235,14.5853659 L3.71901235,14.5853659 Z M2.594113,11.490081 L4.08341637,12.6056405 C4.71716248,12.1342773 6.00049837,11.2229752 7.82251845,10.1702641 C9.12169799,9.41608301 10.5317831,9.36894669 11.8943372,10.0445672 C12.3062722,10.2488246 12.7023635,10.5159304 13.0667676,10.8301725 L21.812464,5.50376864 L19.5468216,2.12566587 C19.2616358,1.74857533 18.7229516,1.63859059 18.3110167,1.88998428 L2.594113,11.490081 Z" id="形状" fill-rule="nonzero"></path>
                <path d="M10.1144568,17.7560976 C9.86237592,17.7560976 9.61029501,17.6308508 9.4684995,17.411669 L7.10524101,13.8577926 C6.86891516,13.4977082 6.9634455,13.0280329 7.3258118,12.7931952 C7.68817811,12.5583576 8.1608298,12.6522927 8.39715565,13.0123771 L10.3350276,15.9243639 L22.2773605,8.09644227 L21.5211178,6.90659818 C21.284792,6.56216963 21.3635672,6.07683849 21.7101785,5.84200084 C22.0567897,5.60716319 22.5451965,5.68544241 22.7815223,6.02987096 C22.7972774,6.0455268 22.8130325,6.06118264 22.8130325,6.09249433 L23.9789066,7.90857215 C24.1994774,8.2530007 24.1049471,8.722676 23.7583358,8.95751365 L10.5398434,17.615195 C10.4138029,17.70913 10.2720074,17.7560976 10.1144568,17.7560976 Z" id="路径"></path>
                <path d="M7.12111005,18.3902439 C6.85580585,18.3902439 6.59050166,18.2431481 6.46565263,17.9979884 L5.17034392,15.6444556 C4.96746424,15.2685441 5.09231327,14.7782248 5.45125424,14.5494091 C5.81019521,14.3369374 6.27837908,14.4676892 6.48125876,14.8436007 L7.38641424,16.4779985 L8.52566166,15.7425195 C8.88460262,15.5137038 9.35278649,15.6281116 9.5712723,16.0040231 C9.78975811,16.3799346 9.6805152,16.870254 9.32157424,17.0990697 L7.51126327,18.2758361 C7.40202037,18.3575559 7.26156521,18.3902439 7.12111005,18.3902439 L7.12111005,18.3902439 Z M17.5928226,17.7037968 C16.0946342,17.7037968 14.8929623,16.4289666 14.8929623,14.8762887 C14.8929623,13.3072668 16.1102404,12.0487805 17.5928226,12.0487805 C19.0754049,12.0487805 20.2926829,13.3236108 20.2926829,14.8762887 C20.2926829,16.4453105 19.0754049,17.7037968 17.5928226,17.7037968 Z M17.5928226,13.6341463 C16.9373652,13.6341463 16.4223629,14.1898416 16.4223629,14.8599447 C16.4223629,15.5463918 16.9529713,16.085743 17.5928226,16.085743 C18.24828,16.085743 18.7632823,15.5300478 18.7632823,14.8599447 C18.7632823,14.1898416 18.24828,13.6504903 17.5928226,13.6341463 Z" id="形状" fill-rule="nonzero"></path>
                <path d="M17.1219512,14.5853659 C17.1219512,14.9312639 17.4101996,15.2195122 17.7560976,15.2195122 C18.1019956,15.2195122 18.3902439,14.9312639 18.3902439,14.5853659 C18.3902439,14.2394678 18.1019956,13.9512195 17.7560976,13.9512195 C17.390983,13.9512195 17.1219512,14.2394678 17.1219512,14.5853659 Z" id="路径"></path>
                <path d="M25.2095855,19.6585366 L18.7088293,19.6585366 C17.1441312,19.6585366 15.8697894,18.3848698 15.8536585,16.804878 C15.8536585,16.7403886 15.8536585,16.6597768 15.8697894,16.5791649 C15.9020513,16.1438611 16.2891931,15.8214138 16.7085967,15.8536585 C16.7731203,15.8536585 16.837644,15.8697809 16.9182985,15.9020256 C17.5474039,16.1277387 18.241033,15.7891691 18.4668657,15.1603969 C18.5152584,15.0314179 18.5313894,14.902439 18.5313894,14.7573377 L18.5313894,14.7412154 C18.5313894,14.3059115 18.8862693,13.9512195 19.3218039,13.9512195 L25.2095855,13.9512195 C25.64512,13.9512195 26,14.3059115 26,14.7412154 L26,18.8524184 C26,19.3199669 25.64512,19.6585366 25.2095855,19.6585366 L25.2095855,19.6585366 Z M17.886153,17.4981397 C18.1119857,17.820587 18.4668657,18.0140554 18.8540075,18.0140554 L24.1772073,18.0140554 L24.1772073,15.6440678 L20.0638257,15.6440678 C19.7896002,16.627532 18.9185312,17.3691608 17.886153,17.4981397 Z" id="形状" fill-rule="nonzero"></path>
                <path d="M25.0487805,22.195122 C24.5222125,22.195122 24.097561,21.8458278 24.097561,21.4171486 L24.097561,12.1926075 C24.097561,11.7639283 24.5222125,11.4146341 25.0487805,11.4146341 C25.5753484,11.4146341 26,11.7639283 26,12.1926075 L26,21.4171486 C26,21.8458278 25.5753484,22.195122 25.0487805,22.195122 Z" id="路径"></path>
            </g>
        </g>
    </g>
</svg>