<?xml version="1.0" encoding="UTF-8"?>
<svg width="27px" height="28px" viewBox="0 0 27 28" version="1.1" xmlns="http://www.w3.org/2000/svg" xmlns:xlink="http://www.w3.org/1999/xlink">
    <!-- Generator: Sketch 58 (84663) - https://sketch.com -->
    <title>车辆信息</title>
    <desc>Created with Sketch.</desc>
    <g id="Page-1" stroke="none" stroke-width="1" fill="none" fill-rule="evenodd">
        <g id="Data--Copy-6" transform="translate(-914.000000, -120.000000)" fill="#FFFFFF" fill-rule="nonzero">
            <g id="车辆信息" transform="translate(914.000000, 120.000000)">
                <path d="M7.94524672,1.75244227 L12.7137096,1.75244227 L12.7137096,3.50307311 L7.94524672,3.50307311 L7.94524672,1.75244227 L7.94524672,1.75244227 Z M5.5626738,5.25551538 L6.3568847,5.25551538 C6.79458674,5.25551538 7.15273919,4.86446993 7.15273919,4.38021642 L7.15273919,0.877143348 C7.15273919,0.392889876 6.79461664,0 6.3568847,0 L5.5626738,0 C5.12326842,0 4.7684629,0.392889876 4.7684629,0.877143348 L4.7684629,4.38021645 C4.7684629,4.86446993 5.12326842,5.25551538 5.5626738,5.25551538 L5.5626738,5.25551538 Z M19.0705943,3.62549507 L19.0705943,3.62549507 L19.0705943,12.2397593 L20.6606298,12.2379149 L20.6606298,2.37742997 C20.6606298,2.03203338 20.3041508,1.75244227 19.8664487,1.75244227 L16.6879915,1.75244227 L16.6879915,3.00054029 L18.2780569,3.00054029 C18.7157888,3.00054032 19.0705943,3.2801314 19.0705943,3.62549507 L19.0705943,3.62549507 Z M14.303775,5.25551538 L15.097956,5.25551538 C15.535658,5.25551538 15.8938105,4.86446993 15.8938105,4.38021642 L15.8938105,0.877143348 C15.8938105,0.392889876 15.5356879,0 15.097956,0 L14.3037749,0 C13.8643994,0 13.509564,0.392889876 13.509564,0.877143348 L13.509564,4.38021645 C13.509564,4.86446993 13.8643995,5.25551538 14.303775,5.25551538 L14.303775,5.25551538 Z M1.58839192,23.6480571 L1.58839192,4.38021642 C1.58839192,3.89593002 1.94487091,3.50307307 2.38424642,3.50307307 L3.97263831,3.50307307 L3.97263831,1.75244227 L0.7942109,1.75244227 C0.354835396,1.75244227 0,2.14352068 0,2.62958562 L0,25.4004665 C0,25.8847199 0.354835396,26.2757654 0.7942109,26.2757654 L10.3294931,26.2757654 L10.3294931,24.5251675 L2.38424639,24.5251675 C1.94487088,24.5251346 1.58839192,24.1323106 1.58839192,23.6480571 L1.58839192,23.6480571 Z M4.37053567,12.2616945 L16.2900344,12.2616945 C16.5105738,12.2616945 16.6879616,12.0661224 16.6879616,11.8249343 L16.6879616,10.9496353 C16.6879616,10.7065699 16.5105439,10.5110637 16.2900344,10.5110637 L4.37053567,10.5110637 C4.15002613,10.5110637 3.97260844,10.70657 3.97260844,10.9496353 L3.97260844,11.8249343 C3.97260844,12.0661224 4.15005601,12.2616945 4.37053567,12.2616945 L4.37053567,12.2616945 Z M4.14010484,17.5171769 C4.04725715,17.5171769 3.97263831,17.7127491 3.97263831,17.9557486 L3.97263831,18.8310475 C3.97263831,19.0722686 4.04725715,19.2696192 4.14010484,19.2696192 L9.15397013,19.2696192 C9.24681782,19.2696192 9.32143666,19.0722685 9.32143666,18.8310475 L9.32143666,17.9557486 C9.32143666,17.7127161 9.24681782,17.5171769 9.15397013,17.5171769 L4.14010484,17.5171769 L4.14010484,17.5171769 Z M13.7306581,23.3340002 L13.7306581,23.3340002 C13.7306581,23.3002311 13.7306581,23.3170133 13.7306581,23.3340002 L13.7306581,23.3340002 Z M26.9677586,19.6241719 C26.7239998,18.9023533 26.3509056,18.4162225 25.5567545,18.5149637 C25.4406874,18.5295542 25.2300992,18.2645866 25.1654315,18.0837038 C24.7874365,17.0091768 24.429284,15.9237152 24.0877468,14.8345978 C23.8704945,14.1438705 23.4344659,13.6924868 22.8309111,13.5079481 C22.0151842,13.257571 21.1745643,13.1059021 20.3455692,12.9122403 C19.1335586,12.7130452 18.0392587,12.7057335 16.7128545,12.9122403 C16.2418922,12.9926363 15.7644154,13.0565645 15.2968599,13.1571172 C14.0500052,13.4220519 13.0734459,14.0214485 12.7169669,15.512579 C12.504735,16.3988785 12.1864172,17.2577096 11.8879717,18.1165736 C11.8315519,18.2829318 11.6376386,18.5296201 11.5331363,18.5150296 C10.6610195,18.3926076 10.3227992,18.9809379 10.090665,19.7411924 C10.0475433,19.9184194 10.0707627,20.0792444 10.090665,20.2126339 C10.4239246,20.3094978 10.7571842,20.408206 10.9926354,20.4757901 C10.9760203,21.8664338 10.9578213,23.2460441 10.9461967,24.6275646 C10.9395625,25.3713184 10.913056,26.1168836 10.9594649,26.8569486 C10.9810407,27.2005337 11.0954044,27.7322475 11.2645444,27.86567 C11.3905627,28.0484302 13.6255714,28.0410855 14.0433711,27.86567 C14.2340272,27.7833967 14.3285483,26.6980009 14.4877073,26.0529225 L22.6800298,26.0529225 C22.8806669,26.6632538 22.4960079,27.4160978 23.1226925,27.86567 C23.3100614,28.0081498 25.7224579,28.0173389 25.8302473,27.8107992 C25.9446708,27.7322475 26.1087904,27.2444041 26.1137511,26.9300329 C26.1469216,25.1720904 26.1370003,23.4142137 26.1237321,21.6562712 C26.1203852,21.270693 26.0441527,20.8851149 26.0010309,20.5068814 C26.3061105,20.4136734 26.6377265,20.3131207 26.9676989,20.2126339 C26.9926216,20.0645551 27.0257922,19.8452692 26.9677586,19.6241719 L26.9677586,19.6241719 Z M15.1377607,22.7708808 C15.0714195,22.9682315 14.8061447,23.1546475 14.5988735,23.207674 C14.3120228,23.2826027 13.997022,23.2934715 13.6952595,23.2934715 C13.6936458,23.304472 13.6952595,23.2990047 13.6952595,23.2934715 C13.2542404,23.2423223 12.8065573,23.2295433 12.3754894,23.1290565 C11.8150861,23.0011013 11.6592144,22.5406604 11.8283544,21.7146991 C11.942748,21.1500166 12.3422889,21.1244256 12.7021149,21.2560366 C13.4233206,21.5173484 14.1296743,21.8353096 14.8177394,22.1880179 C14.9835325,22.2720039 15.1841995,22.6320569 15.1377607,22.7708808 L15.1377607,22.7708808 Z M12.9723504,18.8018665 C13.3835458,17.5208328 13.7416684,16.3366959 14.1611416,15.1818388 C14.2407509,14.9606756 14.5491475,14.763325 14.7828954,14.7030527 C15.3499925,14.5532282 15.9368725,14.4015264 16.5172079,14.4070267 C18.2714228,14.4216501 20.0289547,14.4910785 21.7864268,14.5787863 C22.505989,14.6135335 22.9901298,15.0191694 23.1924404,15.8451307 C23.4278618,16.8045145 23.7395754,17.7437416 24.0496156,18.8018665 C20.3472726,19.6808542 16.7377473,19.6606976 12.9723504,18.8018665 L12.9723504,18.8018665 Z M24.785763,23.101654 C24.323198,23.2203872 23.8424041,23.2387323 23.4527247,23.2917259 C23.0083885,23.2514455 22.6486523,23.2587902 22.3053818,23.1765168 C21.8776309,23.0742515 21.7433051,22.5186922 22.1180428,22.3158743 C22.9370569,21.879147 23.7992525,21.528316 24.6680523,21.2304127 C25.0162536,21.1116795 25.2566356,21.4314521 25.2682901,21.8572118 C25.2831721,22.3542773 25.417468,22.9426405 24.785763,23.101654 L24.785763,23.101654 Z" id="形状"></path>
            </g>
        </g>
    </g>
</svg>