<?xml version="1.0" encoding="UTF-8"?>
<svg width="27px" height="29px" viewBox="0 0 27 29" version="1.1" xmlns="http://www.w3.org/2000/svg" xmlns:xlink="http://www.w3.org/1999/xlink">
    <!-- Generator: Sketch 58 (84663) - https://sketch.com -->
    <title>分组 6</title>
    <desc>Created with Sketch.</desc>
    <g id="Page-1" stroke="none" stroke-width="1" fill="none" fill-rule="evenodd">
        <g id="Data--Copy-6" transform="translate(-329.000000, -851.000000)" fill-rule="nonzero" stroke="#FFFFFF" stroke-width="1.4">
            <g id="分组-6" transform="translate(330.000000, 851.000000)">
                <rect id="矩形" x="8.7" y="0.7" width="7.6" height="2.6" rx="1"></rect>
                <path d="M5.89345564,2.39242082 L2.22859041,2.39242082 C1.12402091,2.39242082 0.228590405,3.28785133 0.228590405,4.39242082 L0.228590405,25.6885668 C0.228590405,26.7931363 1.12402091,27.6885668 2.22859041,27.6885668 L22.668173,27.6885668 C23.7727425,27.6885668 24.668173,26.7931363 24.668173,25.6885668 L24.668173,4.39242082 C24.668173,3.28785133 23.7727425,2.39242082 22.668173,2.39242082 L19.014027,2.39242082 L19.014027,2.39242082" id="路径-43" stroke-linecap="round"></path>
                <path d="M3.98080536,8.50884571 L3.98080536,22.6335885 C3.98080536,23.738158 4.87623586,24.6335885 5.98080536,24.6335885 L15.7551399,24.6335885 L15.7551399,24.6335885 L21.3985667,18.9901617 L21.3985667,8.50884571 C21.3985667,7.40427621 20.5031362,6.50884571 19.3985667,6.50884571 L5.98080536,6.50884571 C4.87623586,6.50884571 3.98080536,7.40427621 3.98080536,8.50884571 Z" id="路径-44" stroke-linecap="round"></path>
                <path d="M8.4188069,11.8708929 L17.0202517,11.8708929" id="路径-45" stroke-linecap="round"></path>
                <path d="M8.24681211,16.761538 L12.545951,16.761538" id="路径-46" stroke-linecap="round"></path>
                <polyline id="路径-47" stroke-linecap="round" points="21.2828478 18.5075531 15.0352467 18.5075531 15.0352467 23.3268179"></polyline>
            </g>
        </g>
    </g>
</svg>