<?xml version="1.0" encoding="UTF-8"?>
<svg width="26px" height="25px" viewBox="0 0 26 25" version="1.1" xmlns="http://www.w3.org/2000/svg" xmlns:xlink="http://www.w3.org/1999/xlink">
    <!-- Generator: Sketch 58 (84663) - https://sketch.com -->
    <title>消防</title>
    <desc>Created with Sketch.</desc>
    <g id="Page-1" stroke="none" stroke-width="1" fill="none" fill-rule="evenodd">
        <g id="Data--Copy-6" transform="translate(-915.000000, -523.000000)" fill-rule="nonzero" stroke="#FFFFFF">
            <g id="消防" transform="translate(916.000000, 524.000000)">
                <path d="M23.5085697,9.00841245 L19.1582965,9.82419319 C18.8880071,9.87487811 18.6669073,10.1413301 18.6669073,10.4163301 L18.6669073,10.5854123 L15.9268641,10.5854123 C14.8305565,10.5854123 13.8452439,10.0953849 13.1718628,9.32627543 L13.1718628,9.33072749 C13.0803189,9.22890558 12.9489685,9.16365901 12.8012764,9.16365901 C12.5251654,9.16365901 12.3012986,9.387522 12.3012986,9.66365896 C12.3012986,9.81646716 12.3713229,9.95156304 12.4793455,10.0432754 C12.7195677,10.3080014 12.9916927,10.5420287 13.2854194,10.7469739 C11.9381092,11.3921519 11,12.7670559 11,14.3536859 L11,19.9247264 C11,20.1997126 11.2250037,20.4247263 11.4999779,20.4247263 C11.774952,20.4247263 11.9999557,20.1997126 11.9999557,19.9247264 L11.9999557,14.7514529 C11.9999557,14.7513159 11.9999147,14.7511927 11.9999147,14.751042 L11.9999147,14.3536859 C11.9999147,12.8474257 13.1260018,11.5946724 14.57728,11.3872341 L14.57728,11.3782067 C15.0050419,11.5099053 15.4568438,11.585467 15.9268641,11.585467 L16.6434626,11.585467 L16.6434626,12.2500011 L13.9269527,13.818453 C13.7674529,13.9105078 13.6799773,14.0788229 13.6794842,14.251453 L13.6769637,14.251453 L13.6769637,22.3333288 C13.6769637,22.7000137 13.9769641,23 14.3436054,23 L19.9433713,23 C20.3100126,23 20.610013,22.7000137 20.610013,22.3333288 L20.610013,14.251453 L20.6074926,14.251453 C20.6069995,14.0788229 20.5195239,13.9105078 20.3600241,13.818453 L17.643432,12.2499737 L17.643432,11.585467 L18.6669073,11.585467 L18.6669073,11.7495491 C18.6669073,12.0245491 18.8880071,12.2910148 19.1582965,12.3416861 L23.5085697,13.1574668 C23.7788591,13.2081517 24,13.0246175 24,12.7496038 L24,9.41627542 C24,9.14127545 23.7788591,8.95774122 23.5085697,9.00841245 Z M19.6100573,19.3535483 L18.1934488,19.3535483 C18.0559617,19.3535483 17.9434598,19.2410415 17.9434598,19.1035484 L17.9434598,17.2702198 C17.9434598,17.1327267 18.0559617,17.0202198 18.1934488,17.0202198 L19.6100573,17.0202198 L19.6100573,19.3535483 Z M19.6100573,14.5401516 L19.6100573,16.0202199 L17.443482,16.0202199 C17.1685078,16.0202199 16.9435041,16.2452199 16.9435041,16.5202199 L16.9435041,19.8535483 C16.9435041,20.1285483 17.1685078,20.3535482 17.443482,20.3535482 L19.6100573,20.3535482 L19.6100573,21.6666714 C19.6100573,21.8500001 19.4600365,22.0000001 19.2767433,22.0000001 L15.0102472,22.0000001 C14.8269402,22.0000001 14.6769332,21.8500001 14.6769332,21.6666714 L14.6769332,14.5401516 L17.1434952,13.1160148 L19.6100573,14.5401516 Z M23.2000217,11.9996039 C23.2000217,12.137097 23.0892321,12.2299875 22.9538545,12.2060285 L19.6796707,11.6264807 C19.5443068,11.6025081 19.4335035,11.4703985 19.4335035,11.3329054 L19.4335035,10.8329876 C19.4335035,10.6954945 19.5442931,10.5633712 19.6796707,10.5394123 L22.9538545,9.95986441 C23.0892184,9.9358918 23.2000217,10.0287959 23.2000217,10.166289 L23.2000217,11.9996039 L23.2000217,11.9996039 Z" id="形状" stroke-width="0.3" fill="#FFFFFF"></path>
                <path d="M19,6.67011107 L19,2.52128777 C19,1.41671827 18.1045695,0.52128777 17,0.52128777 L2,0.52128777 C0.8954305,0.52128777 -1.3527075e-16,1.41671827 0,2.52128777 L0,19.3030325 C1.3527075e-16,20.407602 0.8954305,21.3030325 2,21.3030325 L8.2662244,21.3030325 L8.2662244,21.3030325" id="路径-85" stroke-width="1.4" stroke-linecap="round" stroke-linejoin="round"></path>
                <path d="M3.23637298,5.83498944 L13.747599,5.83498944" id="路径-86" stroke-width="1.4" stroke-linecap="round" stroke-linejoin="round"></path>
                <path d="M3.48039572,11.2217379 L10.3523911,11.2217379" id="路径-87" stroke-width="1.4" stroke-linecap="round" stroke-linejoin="round"></path>
                <path d="M3.29505293,16 L9.2142146,16" id="路径-88" stroke-width="1.4" stroke-linecap="round" stroke-linejoin="round"></path>
            </g>
        </g>
    </g>
</svg>