<?xml version="1.0" encoding="UTF-8"?>
<svg width="27px" height="25px" viewBox="0 0 27 25" version="1.1" xmlns="http://www.w3.org/2000/svg" xmlns:xlink="http://www.w3.org/1999/xlink">
    <!-- Generator: Sketch 58 (84663) - https://sketch.com -->
    <title>10-3日志登录</title>
    <desc>Created with Sketch.</desc>
    <g id="Page-1" stroke="none" stroke-width="1" fill="none" fill-rule="evenodd">
        <g id="Data--Copy-6" transform="translate(-49.000000, -385.000000)" fill="#FFFFFF" fill-rule="nonzero" stroke="#FFFFFF" stroke-width="0.2">
            <g id="10-3日志登录" transform="translate(50.000000, 386.000000)">
                <path d="M25,11.5 C25,10.3568281 24.0478834,9.39819531 22.772735,9.14303906 L22.772735,1.00804688 C22.772735,0.45209375 22.2309098,0 21.5650729,0 L2.20766207,0 C1.54161032,0 1,0.452273438 1,1.00804688 L1,5.75 L2.50447312,5.75 L2.50447312,1.2578125 L21.2682619,1.2578125 L21.2682619,9.17664063 C20.0719908,9.476 19.1970322,10.4037266 19.1970322,11.5 C19.1970322,12.5964531 20.0717759,13.524 21.2682619,13.8233594 L21.2682619,21.7421875 L2.50447312,21.7421875 L2.50447312,17.1901641 L1,17.1901641 L1,21.9919531 C1,22.5479063 1.54182525,23 2.20766207,23 L21.564858,23 C22.2309098,23 22.7725201,22.5477266 22.7725201,21.9919531 L22.7725201,13.8569609 C24.0478834,13.6018047 25,12.6433516 25,11.5 Z M22.0985161,12.6679688 C21.3282259,12.6679688 20.7015054,12.144 20.7015054,11.5 C20.7015054,10.856 21.3282259,10.3320313 22.0985161,10.3320313 C22.8688064,10.3320313 23.4955269,10.856 23.4955269,11.5 C23.4955269,12.144 22.8688064,12.6679688 22.0985161,12.6679688 Z" id="形状"></path>
                <path d="M1.32972312,7.54819082 L2.83930176,7.54819082 L2.83930176,14.8282863 L1.32972312,14.8282863 L1.32972312,7.54819082 Z M0,5.8046532 L5.0318569,5.8046532 L5.0318569,7.08936513 L0,7.08936513 L0,5.8046532 Z M0,15.4706422 L5.03207256,15.4706422 L5.03207256,16.7553541 L0,16.7553541 L0,15.4706422 Z M7.93607054,5.28471193 L13.5430769,5.28471193 C13.7812818,5.28471193 13.9743851,5.12037332 13.9743851,4.91765138 L13.9743851,4.36706055 C13.9743851,4.16433861 13.7812818,4 13.5430769,4 L7.93607054,4 C7.69786561,4 7.50476236,4.16433861 7.50476236,4.36706055 L7.50476236,4.91765138 C7.50476236,5.12037332 7.69786561,5.28471193 7.93607054,5.28471193 L7.93607054,5.28471193 Z M7.50476236,7.82348623 C7.50476236,8.02610365 7.73960967,8.19054678 8.02966442,8.19054678 L17.4753136,8.19054678 C17.7651527,8.19054678 18,8.02610365 18,7.82348623 L18,7.2728954 C18,7.07027798 17.7651527,6.90583485 17.4753136,6.90583485 L8.02966442,6.90583485 C7.73960967,6.90583485 7.50476236,7.07027798 7.50476236,7.2728954 L7.50476236,7.82348623 Z M7.50476236,13.7271046 C7.50476236,13.9298265 7.69786561,14.0941651 7.93607054,14.0941651 L13.5430769,14.0941651 C13.7812818,14.0941651 13.9743851,13.9298265 13.9743851,13.7271046 L13.9743851,13.1765138 C13.9743851,12.9737918 13.7812818,12.8094532 13.5430769,12.8094532 L7.93607054,12.8094532 C7.69786561,12.8094532 7.50476236,12.9737918 7.50476236,13.1765138 L7.50476236,13.7271046 L7.50476236,13.7271046 Z M7.50476236,16.6329394 C7.50476236,16.8355569 7.73939401,17 8.02966442,17 L17.4750979,17 C17.764937,17 18,16.8355569 18,16.6329394 L18,16.0823486 C18,15.8797312 17.764937,15.7152881 17.4750979,15.7152881 L8.02944876,15.7152881 C7.73917836,15.7152881 7.50454671,15.8797312 7.50454671,16.0823486 L7.50454671,16.6329394 L7.50476236,16.6329394 Z" id="形状"></path>
            </g>
        </g>
    </g>
</svg>