<?xml version="1.0" encoding="UTF-8"?>
<svg width="27px" height="25px" viewBox="0 0 27 25" version="1.1" xmlns="http://www.w3.org/2000/svg" xmlns:xlink="http://www.w3.org/1999/xlink">
    <!-- Generator: Sketch 58 (84663) - https://sketch.com -->
    <title>采购报表统计</title>
    <desc>Created with Sketch.</desc>
    <g id="Page-1" stroke="none" stroke-width="1" fill="none" fill-rule="evenodd">
        <g id="Data--Copy-6" transform="translate(-329.000000, -520.000000)" fill="#FFFFFF" fill-rule="nonzero" stroke="#FFFFFF" stroke-width="0.2">
            <g id="采购报表统计" transform="translate(330.000000, 520.758048)">
                <path d="M23.1714588,20.4376861 L1.82853295,20.4376861 C0.819375557,20.4376861 0,19.68505 0,18.7540114 L0,1.92562694 C0,0.997375818 0.819375557,0.241952233 1.82853295,0.241952233 L23.1714588,0.241952233 C24.1806162,0.241952233 25,0.994588277 25,1.92562694 L25,18.7540114 C25.0030041,19.68505 24.1836286,20.4376861 23.1714588,20.4376861 Z M23.782978,3.04900592 C23.782978,2.1207548 22.9636025,1.36533122 21.9544451,1.36533122 L3.04855906,1.36533122 C2.03940166,1.36533122 1.22002611,2.11796726 1.22002611,3.04900592 L1.22002611,17.6334199 C1.22002611,18.5616711 2.03940166,19.3170946 3.04855906,19.3170946 L21.9514327,19.3170946 C22.9605901,19.3170946 23.7799656,18.5644586 23.7799656,17.6334199 L23.7799656,3.04900592 L23.782978,3.04900592 Z M18.3847391,9.21783394 L16.4658338,9.21783394 C16.4477593,9.21783394 16.4326973,9.20947132 16.4146228,9.20668378 L10.2723186,16.3149131 C10.2060455,16.3901767 10.1156732,16.4319898 10.0162637,16.4542901 C9.93794104,16.4877406 9.85359356,16.5100409 9.76020884,16.5100409 L4.87709201,16.5100409 C4.53970208,16.5100409 4.26858516,16.2591623 4.26858516,15.9497452 C4.26858516,15.6403282 4.54271449,15.3894495 4.87709201,15.3894495 L9.5101788,15.3894495 L15.8151532,8.0972425 C16.3001512,8.10003004 15.9717985,8.10560512 16.6164543,8.06936709 C16.628504,8.06936709 16.6315164,8.08609234 16.6405536,8.09445496 L18.2943668,8.09445496 L18.2943668,6.41078025 L21.3429258,8.65475068 L18.2943668,10.8987211 L18.3847391,9.21783394 L18.3847391,9.21783394 Z M8.53717033,12.0221001 C8.87456026,12.0221001 9.14567717,12.2729788 9.14567717,12.5823958 C9.14567717,12.8918129 8.87154785,13.1426915 8.53717033,13.1426915 L4.87709201,13.1426915 C4.53970208,13.1426915 4.26858516,12.8918129 4.26858516,12.5823958 C4.26858516,12.2729788 4.54271449,12.0221001 4.87709201,12.0221001 L8.53717033,12.0221001 Z M7.31714422,9.78091721 C5.63320695,9.78091721 4.26858516,8.5265238 4.26858516,6.97665106 C4.26858516,5.42677831 5.63320695,4.17238491 7.31714422,4.17238491 C9.00108149,4.17238491 10.3657033,5.42677831 10.3657033,6.97386352 C10.3657033,8.52094872 9.00108149,9.78091721 7.31714422,9.78091721 Z M7.31714422,5.29297635 C6.30798683,5.29297635 5.48861127,6.0456124 5.48861127,6.97665106 C5.48861127,7.90768972 6.30798683,8.66032576 7.31714422,8.66032576 C8.32630162,8.66032576 9.14567717,7.90768972 9.14567717,6.97665106 C9.14567717,6.0456124 8.32931403,5.29297635 7.31714422,5.29297635 Z M3.66007832,22.1213608 L21.3459382,22.1213608 C21.6833282,22.1213608 21.9544451,22.3722395 21.9544451,22.6816565 C21.9544451,22.9910736 21.6803158,23.2419522 21.3459382,23.2419522 L3.66007832,23.2419522 C3.32268838,23.2419522 3.05154688,22.9910736 3.05154688,22.6816565 C3.04855906,22.3722395 3.32268838,22.1213608 3.66007832,22.1213608 Z" id="形状"></path>
            </g>
        </g>
    </g>
</svg>