<?xml version="1.0" encoding="UTF-8"?>
<svg width="25px" height="25px" viewBox="0 0 25 25" version="1.1" xmlns="http://www.w3.org/2000/svg" xmlns:xlink="http://www.w3.org/1999/xlink">
    <!-- Generator: Sketch 58 (84663) - https://sketch.com -->
    <title>083实时路况</title>
    <desc>Created with Sketch.</desc>
    <g id="Page-1" stroke="none" stroke-width="1" fill="none" fill-rule="evenodd">
        <g id="Data--Copy-6" transform="translate(-1246.000000, -256.000000)" fill="#FFFFFF" fill-rule="nonzero">
            <g id="083实时路况" transform="translate(1246.000000, 256.000000)">
                <path d="M22.322408,4.45930881 C23.0277107,4.45905978 23.7039884,4.74010764 24.2013717,5.24016945 C24.6987549,5.74023125 24.9761664,6.41800877 24.9721728,7.12329989 L24.9721728,22.2983278 C24.9721728,23.7716834 23.7966555,24.9721293 22.322408,24.9721293 L7.17502787,24.9721293 C5.70167224,24.9721293 4.45930881,23.7725753 4.45930881,22.2992196 L4.45930881,11.5942029 L0,11.5942029 L0,9.81047938 L4.45930881,9.81047938 L4.45930881,6.24303233 L0,6.24303233 L0,4.45930881 L4.45930881,4.45930881 L4.45930881,0 L6.24303233,0 L6.24303233,22.2992196 C6.24303233,22.7888517 6.6845039,23.1884058 7.17502787,23.1884058 L22.322408,23.1884058 C22.812932,23.1884058 23.1884058,22.7888517 23.1884058,22.2983278 L23.1884058,7.12329989 C23.1932162,6.89087435 23.1039894,6.66635027 22.9409532,6.50062765 C22.7779171,6.33490502 22.5548811,6.24202092 22.322408,6.24303233 L11.5942029,6.24303233 L11.5942029,9.81047938 L19.6209588,9.81047938 L19.6209588,19.6209588 L9.81047938,19.6209588 L9.81047938,0 L11.5942029,0 L11.5942029,4.45930881 L22.322408,4.45930881 Z M11.5942029,17.8372352 L17.8372352,17.8372352 L17.8372352,11.5942029 L11.5942029,11.5942029 L11.5942029,17.8372352 Z" id="形状"></path>
                <path d="M13.3779264,8.69297659 L16.9426979,8.69297659 L16.9426979,7.35518395 L13.3779264,7.35518395 L13.3779264,8.69297659 Z M20.7625418,9.80869565 L20.7625418,13.3814939 L22.1003344,13.3814939 L22.1003344,9.80869565 L20.7625418,9.80869565 Z M20.7625418,16.0499443 L20.7625418,19.6352285 L22.1003344,19.6352285 L22.1003344,16.0499443 L20.7625418,16.0499443 Z M19.6486065,20.7322185 L16.0811594,20.7322185 L16.0811594,22.0700111 L19.6486065,22.0700111 L19.6486065,20.7322185 Z M13.4028986,20.7322185 L9.83455964,20.7322185 L9.83455964,22.0700111 L13.4020067,22.0700111 L13.4028986,20.7322185 Z M8.71884058,18.729097 L8.71884058,15.1571906 L7.38104794,15.1571906 L7.38104794,18.729097 L8.71884058,18.729097 Z M8.71884058,11.5995541 L8.71884058,8.02497213 L7.38104794,8.02497213 L7.38104794,11.5995541 L8.71884058,11.5995541 Z M8.71884058,4.45128205 L8.71884058,0.888294314 L7.38104794,0.888294314 L7.38104794,4.45128205 L8.71884058,4.45128205 Z" id="形状"></path>
            </g>
        </g>
    </g>
</svg>