<?xml version="1.0" encoding="UTF-8"?>
<svg width="27px" height="25px" viewBox="0 0 27 25" version="1.1" xmlns="http://www.w3.org/2000/svg" xmlns:xlink="http://www.w3.org/1999/xlink">
    <!-- Generator: Sketch 58 (84663) - https://sketch.com -->
    <title>公交车</title>
    <desc>Created with Sketch.</desc>
    <g id="Page-1" stroke="none" stroke-width="1" fill="none" fill-rule="evenodd">
        <g id="Data--Copy-6" transform="translate(-1245.000000, -189.000000)" fill-rule="nonzero" stroke="#FFFFFF">
            <g id="公交车" transform="translate(1246.000000, 189.312500)">
                <path d="M7.62541336,16.6875 C6.72977737,16.6878526 6.00271795,16.1287893 6,15.4376584 C6,14.7449386 6.72772235,14.1833783 7.62541336,14.1833783 C8.52310438,14.1833783 9.25082673,14.7449386 9.25082673,15.4376584 C9.24810878,16.1287893 8.52104936,16.6878526 7.62541336,16.6875 L7.62541336,16.6875 Z M7.62541336,15.020843 C7.32664083,15.020493 7.08406676,15.2071051 7.08360223,15.4376584 C7.08360223,15.6685635 7.32617485,15.8557492 7.62540334,15.8557492 C7.92463183,15.8557492 8.16720446,15.6685635 8.16720446,15.4376584 C8.16673992,15.2071111 7.92417807,15.0205016 7.62541336,15.020843 Z M17.3745666,16.6875 C16.4789384,16.6878441 15.7518912,16.1287832 15.7491733,15.4376584 C15.7491733,14.7449386 16.4768957,14.1833783 17.3745866,14.1833783 C18.2722776,14.1833783 19,14.7449386 19,15.4376584 C18.997282,16.1287893 18.2702226,16.6878526 17.3745866,16.6875 L17.3745666,16.6875 Z M17.3745666,15.020843 C17.0758019,15.0205016 16.83324,15.2071111 16.8327755,15.4376584 C16.8327755,15.6685635 17.0753481,15.8557491 17.3745766,15.8557491 C17.6738051,15.8557491 17.9163777,15.6685635 17.9163777,15.4376584 C17.9159132,15.2071111 17.6733513,15.0205016 17.3745866,15.020843 L17.3745666,15.020843 Z M16.2918262,7.52051161 L8.70819388,7.52051161 C8.40942134,7.52086159 8.16684727,7.33424955 8.16638274,7.10369625 C8.16638274,6.87373742 8.40939006,6.6875 8.70819388,6.6875 L16.2918262,6.6875 C16.59063,6.6875 16.8336173,6.87373742 16.8336173,7.10368078 C16.8331638,7.33423408 16.5905987,7.52085303 16.2918262,7.52051161 L16.2918262,7.52051161 Z M18.4582089,8.3541713 L6.54181113,8.3541713 C6.24335871,8.35382089 6.00091736,8.54004709 6,8.77035257 L6,12.9373414 C6,13.1673002 6.24298728,13.3541713 6.54181113,13.3541713 L18.4581889,13.3541713 C18.7570127,13.3541713 19,13.1673002 19,12.9373414 L19,8.77035257 C18.9990826,8.54004709 18.7566413,8.35382089 18.4581889,8.3541713 L18.4582089,8.3541713 Z M7.08360223,9.18718291 L17.9163777,9.18718291 L17.9163777,12.5205265 L17.5387694,12.5205265 L14.4250489,10.9241616 C14.1761218,10.7961803 13.8398886,10.8480738 13.6739007,11.0400921 C13.5944999,11.1320183 13.565801,11.2445582 13.5941451,11.3528457 C13.6224892,11.4611332 13.7055432,11.5562547 13.8249561,11.617193 L15.5866339,12.5205265 L12.1223816,12.5205265 L9.00948287,10.9241616 C8.76071701,10.7966125 8.42510625,10.8484667 8.25915642,11.0400921 C8.17967736,11.1319411 8.15084861,11.2444264 8.17903667,11.3527068 C8.20722474,11.4609872 8.29011068,11.5561548 8.40939006,11.617193 L10.1710679,12.5205265 L7.0844039,12.5205265 L7.0844039,9.18718291 L7.08360223,9.18718291 Z" id="形状" stroke-width="0.3" fill="#FFFFFF"></path>
                <path d="M18.4669906,4.38805949 C17.0185204,3.92352163 15.0104726,3.6875 12.5,3.6875 C9.98952741,3.6875 7.98309145,3.92284083 6.53381536,4.38805949 C4.43795941,5.06002539 4,6.08159023 4,6.81954388 L4,16.6610846 C4.00331132,17.7251804 4.89122822,18.6408739 6.12559708,18.8531766 L6.12559708,19.7924477 C6.1273737,20.2872116 6.60268485,20.6875 7.18839563,20.6875 L8.25038823,20.6875 C8.83573631,20.6875 9.31320643,20.2862267 9.31320643,19.7924477 L9.31320643,18.8987403 L15.6875995,18.8987403 L15.6875995,19.7931285 C15.6898191,20.2876263 16.1650007,20.6875 16.7503981,20.6875 L17.8123907,20.6875 C18.3977387,20.6875 18.8752089,20.2862267 18.8752089,19.7924477 L18.8752089,18.8538574 C20.1098879,18.6417016 20.9977629,17.7254265 21,16.6611012 L21,6.81954388 C21,6.08090943 20.5595835,5.06002539 18.4669906,4.38805949 Z M8.24958229,19.7931285 L7.18839563,19.7931285 L7.18839563,18.8980595 L8.25119417,18.8980595 L8.25119417,19.7924477 L8.24958229,19.7931285 Z M16.7495921,19.7931285 L16.7495921,18.8980595 L17.8123907,18.8980595 L17.8123907,19.7924477 L16.7495921,19.7924477 L16.7495921,19.7931285 Z M19.9380074,16.6611012 C19.9353416,17.4031415 19.2222408,18.0033859 18.3437998,18.0030074 L6.65620024,18.0030074 C5.77775924,18.0033859 5.06465837,17.4031415 5.0619926,16.6611012 L5.0619926,6.81954388 C5.0619926,6.15435277 5.68518054,5.61773317 6.91223352,5.22393206 C8.22139406,4.80429378 10.1529759,4.58256894 12.4999902,4.58256894 C14.8470044,4.58256894 16.7793922,4.80429378 18.0877665,5.22393206 C19.3148195,5.61773317 19.9372015,6.15436938 19.9372015,6.81886308 L19.9372015,16.6611012 L19.9380074,16.6611012 Z" id="形状" stroke-width="0.3" fill="#FFFFFF"></path>
                <path d="M0.45683359,7.13008343 L0.45683359,2.88976467 C0.45683359,1.78519517 1.35226409,0.889764665 2.45683359,0.889764665 L22.9571069,0.889764665 C24.0616764,0.889764665 24.9571069,1.78519517 24.9571069,2.88976467 L24.9571069,7.13008343 L24.9571069,7.13008343" id="路径-102" stroke-width="1.4" stroke-linecap="round"></path>
                <path d="M0.45683359,23.1300834 L0.45683359,18.8897647 C0.45683359,17.7851952 1.35226409,16.8897647 2.45683359,16.8897647 L22.9571069,16.8897647 C24.0616764,16.8897647 24.9571069,17.7851952 24.9571069,18.8897647 L24.9571069,23.1300834 L24.9571069,23.1300834" id="路径-102" stroke-width="1.4" stroke-linecap="round" transform="translate(12.706970, 20.009924) rotate(-180.000000) translate(-12.706970, -20.009924) "></path>
            </g>
        </g>
    </g>
</svg>