<?xml version="1.0" encoding="UTF-8"?>
<svg width="25px" height="25px" viewBox="0 0 25 25" version="1.1" xmlns="http://www.w3.org/2000/svg" xmlns:xlink="http://www.w3.org/1999/xlink">
    <!-- Generator: Sketch 58 (84663) - https://sketch.com -->
    <title>火</title>
    <desc>Created with Sketch.</desc>
    <g id="Page-1" stroke="none" stroke-width="1" fill="none" fill-rule="evenodd">
        <g id="Data--Copy-6" transform="translate(-914.000000, -657.000000)" stroke="#FFFFFF">
            <g id="火" transform="translate(914.000000, 657.000000)">
                <path d="M19.2648534,14.0207408 C19.2695659,14.0042663 19.2742487,13.9877603 19.2789388,13.9710905 C19.3538006,13.7050098 19.411051,13.4622132 19.4503106,13.2259612 C19.4860534,13.0108725 19.5053941,12.8083948 19.5053941,12.6166667 L18.8053941,12.6166667 L18.3867049,13.1776474 C18.7171349,13.4242646 19.0117397,13.7078776 19.2648534,14.0207408 Z M13.8815174,15.7782758 C13.9980784,15.4516319 14.1692263,15.1434457 14.3922153,14.8627694 L13.844132,14.4273333 L13.1681379,14.6090805 C13.2875461,15.0532098 13.5196567,15.4020412 13.8815174,15.7782758 Z M16.637794,12.4332606 C16.9082774,12.1173427 17.2243142,11.825611 17.579985,11.563543 L16.464751,11 C16.464751,11.5485005 16.5178157,12.0059677 16.637794,12.4332606 Z" id="路径" stroke-width="1.4"></path>
                <path d="M3.10163605,5.5 L19.1401526,5.5" id="路径-89" stroke-width="1.4" stroke-linecap="round" fill-rule="nonzero"></path>
                <rect id="矩形" stroke-width="1.4" fill-rule="nonzero" x="0.7" y="0.7" width="23.6" height="23.6" rx="3.5"></rect>
                <path d="M3.10163605,19.5 L11.2085575,19.5" id="路径-90" stroke-width="1.4" stroke-linecap="round" fill-rule="nonzero"></path>
                <rect id="矩形" fill="#FFFFFF" fill-rule="nonzero" x="3.5" y="9.5" width="2" height="2" rx="1"></rect>
                <rect id="矩形-copy-2" fill="#FFFFFF" fill-rule="nonzero" x="8.5" y="9.5" width="2" height="2" rx="1"></rect>
                <rect id="矩形" fill="#FFFFFF" fill-rule="nonzero" x="3.5" y="14.5" width="2" height="2" rx="1"></rect>
                <rect id="矩形-copy-2" fill="#FFFFFF" fill-rule="nonzero" x="8.5" y="14.5" width="2" height="2" rx="1"></rect>
            </g>
        </g>
    </g>
</svg>