<?xml version="1.0" encoding="UTF-8"?>
<svg width="25px" height="25px" viewBox="0 0 25 25" version="1.1" xmlns="http://www.w3.org/2000/svg" xmlns:xlink="http://www.w3.org/1999/xlink">
    <!-- Generator: Sketch 58 (84663) - https://sketch.com -->
    <title>检测(1)</title>
    <desc>Created with Sketch.</desc>
    <g id="Page-1" stroke="none" stroke-width="1" fill="none" fill-rule="evenodd">
        <g id="Data--Copy-6" transform="translate(-1247.000000, -122.000000)" fill="#FFFFFF">
            <g id="检测(1)" transform="translate(1247.000000, 122.000000)">
                <polygon id="路径" points="13.1673584 4.77028809 11.2960693 4.77028809 8.57878418 10.5683105 6.74162598 6.17866211 6.18173828 6.73635254 6.16601563 6.71794434 2.07519531 10.2095215 3.42661133 11.7794922 6.08103027 9.5140625 7.56086426 13.1981689 9.47143555 13.1981689 12.4141357 6.9197998 14.5219238 10.1343994 14.5636719 10.0958252 14.6019775 10.1532959 19.8462158 4.99892578 18.2907471 3.62246094 14.8463135 7.11086426 13.167334 4.77028809"></polygon>
                <path d="M9.69614258,21.4145996 C9.5979248,20.2800537 9.54191895,17.8505859 9.54143066,17.8245605 L9.53603516,17.5905273 L1.83898926,17.5905273 C1.67624324,17.5905273 1.54431152,17.4585956 1.54431152,17.2958496 L1.54431152,1.83862305 C1.54431152,1.67587703 1.67624324,1.54394531 1.83898926,1.54394531 L21.562085,1.54394531 C21.724831,1.54394531 21.8567627,1.67587703 21.8567627,1.83862305 L21.8567627,11.3214844 L21.9645752,11.3924561 C22.3312009,11.6358155 22.6773827,11.9086506 22.9996826,12.208252 L23.4016846,12.5793213 L23.4016846,1.30744629 C23.4016846,0.585879743 22.8167813,0.000892560504 22.0952148,0.00048828125 L1.3048584,0.00048828125 C0.584209799,0.00102725287 0.000122070312,0.585308243 0.000122070312,1.30595703 L0.000122070312,17.8306885 C0.000941526169,18.551093 0.584454702,19.1350429 1.3048584,19.1364014 L7.99602051,19.1364014 L7.99602051,21.4145996 L5.09140625,21.4145996 L5.05380859,21.4273682 C4.64494629,21.5668701 4.34829102,21.9887695 4.34829102,22.430542 C4.34829102,22.8723145 4.64494629,23.2942383 5.05383301,23.4337158 L5.09140625,23.4464844 L11.5699219,23.4464844 L10.1473145,21.4145996 L9.69614258,21.4145996 Z" id="路径"></path>
                <path d="M22.821875,12.30625 C20.0328284,9.51454251 15.5484461,9.38868032 12.607205,12.0195571 C9.66596392,14.6504338 9.29303663,19.1210547 11.7577393,22.2028809 L11.7599609,22.2058105 L11.9883545,22.4727539 C12.6723259,23.2523625 13.5118447,23.8802427 14.4529541,24.31604 C17.7237302,25.8224727 21.6038986,24.7683491 23.6628163,21.8140009 C25.7217341,18.8596526 25.3674406,14.854486 22.821875,12.3074463 L22.821875,12.30625 Z M22.0672363,21.3517334 L21.3150391,20.5997803 L21.1473145,20.7874023 C20.9198714,21.0401432 20.6665214,21.2683063 20.3914307,21.4681396 L20.164502,21.6329346 L20.9257812,22.3942139 C20.0821839,22.9848742 19.0968097,23.3408131 18.0704834,23.4256104 L18.0704834,22.3625488 L17.8185303,22.3758057 C17.7890625,22.3772705 17.7598389,22.379248 17.7306396,22.3812256 C17.6726562,22.3851318 17.6178955,22.3888184 17.5660889,22.3888184 C17.310998,22.3870668 17.056445,22.3651479 16.8048096,22.3232666 L16.5258301,22.2768555 L16.5258301,23.357373 C15.5116098,23.1782359 14.5630884,22.7331752 13.7770996,22.067627 L14.5280762,21.3164062 L14.3404541,21.1474609 C14.0876159,20.9197474 13.8594466,20.666055 13.6597168,20.3905762 L13.4949463,20.1634277 L12.733667,20.924707 C12.2487566,20.2293666 11.9204862,19.4370946 11.7715088,18.6025635 L12.8508057,18.6025635 L12.8066162,18.325293 C12.7643852,18.0736896 12.7422045,17.8191294 12.7402832,17.5640137 C12.7402832,17.5126953 12.7437256,17.4598877 12.7476562,17.4041504 C12.7498535,17.3724609 12.7518311,17.34104 12.7535645,17.3093506 L12.7658447,17.0581299 L11.7024902,17.0581299 C11.7873561,16.0317394 12.1432959,15.0463018 12.7339111,14.2025879 L13.4951904,14.9638672 L13.6599854,14.7369629 C13.8598391,14.4619035 14.0879915,14.2085645 14.3406982,13.9811035 L14.5283203,13.8121338 L13.7766113,13.0604248 C16.1127783,11.0890276 19.5694945,11.2351511 21.7309533,13.3966735 C23.892412,15.5581959 24.0384338,19.0149165 22.0669678,21.3510254 L22.0672363,21.3517334 Z" id="形状" fill-rule="nonzero"></path>
                <path d="M21.2725342,13.9663086 C20.2801758,13.0085938 18.9594727,12.458252 17.5476807,12.4160156 L17.5476807,12.4088867 L16.5098633,12.4088867 L16.5098633,12.4756836 C16.0058538,12.5527244 15.514531,12.697362 15.0491699,12.9056885 L14.8161377,13.0100586 L17.4703125,18.0443359 L21.9731689,20.4166016 L22.0905518,20.2257813 C22.577693,19.4393644 22.8372267,18.5332699 22.8403076,17.6082031 C22.8403076,16.2361816 22.2835693,14.9432129 21.2725342,13.966333 L21.2725342,13.9663086 Z" id="路径"></path>
            </g>
        </g>
    </g>
</svg>