<?xml version="1.0" encoding="UTF-8"?>
<svg width="25px" height="25px" viewBox="0 0 25 25" version="1.1" xmlns="http://www.w3.org/2000/svg" xmlns:xlink="http://www.w3.org/1999/xlink">
    <!-- Generator: Sketch 58 (84663) - https://sketch.com -->
    <title>班车，公交车，大巴车</title>
    <desc>Created with Sketch.</desc>
    <g id="Page-1" stroke="none" stroke-width="1" fill="none" fill-rule="evenodd">
        <g id="Data--Copy-6" transform="translate(-1246.000000, -322.000000)" fill="#FFFFFF" fill-rule="nonzero">
            <g id="班车，公交车，大巴车" transform="translate(1246.000000, 322.000000)">
                <path d="M6.24951176,17.9695492 C5.93365142,17.9695492 5.64889272,18.1598189 5.52801819,18.4516358 C5.40714367,18.7434527 5.47395749,19.0793485 5.69730448,19.3026955 C5.92065147,19.5260425 6.25654726,19.5928563 6.54836417,19.4719818 C6.84018107,19.3511073 7.03045076,19.0663486 7.03045076,18.7504882 C7.0305038,18.5433541 6.94824357,18.3446884 6.8017776,18.1982224 C6.65531163,18.0517564 6.45664592,17.9694962 6.24951176,17.9695492 L6.24951176,17.9695492 Z M18.7485353,17.9695492 C18.4326749,17.9695492 18.1479162,18.1598189 18.0270417,18.4516359 C17.9061672,18.7434528 17.972981,19.0793485 18.196328,19.3026955 C18.419675,19.5260425 18.7555708,19.5928563 19.0473877,19.4719818 C19.3392046,19.3511073 19.5294743,19.0663486 19.5294743,18.7504882 C19.5295273,18.5433541 19.4472671,18.3446884 19.3008011,18.1982224 C19.1543351,18.0517564 18.9556694,17.9694962 18.7485353,17.9695492 L18.7485353,17.9695492 Z M8.59332865,19.5314272 L16.4047184,19.5314272 L16.4047184,17.9695493 L8.59332865,17.9695493 L8.59332865,19.5314272 Z M24.217108,6.25146473 L22.6542301,6.25146473 L22.6542301,5.50842277 C22.6542301,3.33359267 20.902367,1.56433091 18.7485353,1.56433091 L18.7485353,0.783141936 C18.7485353,0.351703181 18.3987851,0.00195296569 17.9673463,0.00195296569 C17.5359075,0.00195296569 17.1861573,0.351703181 17.1861573,0.783141936 L17.1861573,1.56433091 L7.03045074,1.56433091 L7.03045074,0.783141936 C7.03050017,0.504106358 6.88166485,0.246245699 6.64002119,0.106713637 C6.39837752,-0.0328184239 6.10064598,-0.0328184239 5.85900232,0.106713637 C5.61735865,0.246245699 5.46852334,0.504106358 5.46857277,0.783141936 L5.46857277,1.64407468 C3.64368939,2.03032789 2.33957132,3.64311505 2.34381689,5.50842277 L2.34381689,6.25146473 L0.780938995,6.25146473 C0.573761501,6.25141162 0.375057863,6.33370616 0.228584692,6.48022621 C0.082111521,6.62674627 -1.29873211e-07,6.82547623 -1.29873211e-07,7.0326537 L-1.29873211e-07,9.37622061 C-1.29873211e-07,9.80765937 0.349750215,10.1574096 0.781188971,10.1574096 C1.21262773,10.1574096 1.56237794,9.80765937 1.56237794,9.37622061 L1.56237794,7.81384267 L2.34381689,7.81384267 L2.34381689,21.8752441 C2.34355108,22.0824434 2.42574298,22.2812328 2.57225511,22.4277449 C2.71876724,22.574257 2.91755661,22.6564489 3.12475588,22.6561831 L3.90569488,22.6561831 L3.90569488,24.219061 C3.90566828,24.4262737 3.98800565,24.6249998 4.13457403,24.7714744 C4.28114241,24.917949 4.47992119,25.0000002 4.68713382,25.0000002 L7.81188971,25.0000002 C8.01910234,25.0000002 8.21788112,24.917949 8.3644495,24.7714744 C8.51101788,24.6249998 8.59335525,24.4262737 8.59332865,24.219061 L8.59332865,22.6561831 L16.4047184,22.6561831 L16.4047184,24.219061 C16.4046918,24.4262737 16.4870292,24.6249998 16.6335975,24.7714744 C16.7801659,24.917949 16.9789447,25.0000002 17.1861573,25.0000002 L20.3109132,25.0000002 C20.5181258,25.0000002 20.7169046,24.917949 20.863473,24.7714744 C21.0100414,24.6249998 21.0923788,24.4262737 21.0923522,24.219061 L21.0923522,22.6561831 L21.8732912,22.6561831 C22.0804904,22.6564489 22.2792798,22.574257 22.4257919,22.4277449 C22.5723041,22.2812328 22.654496,22.0824434 22.6542301,21.8752441 L22.6542301,7.81384267 L23.4356691,7.81384267 L23.4356691,9.37622061 C23.4356691,9.65531256 23.5845628,9.91320417 23.8262636,10.0527501 C24.0679643,10.1922961 24.3657518,10.1922961 24.6074526,10.0527501 C24.8491533,9.91320417 24.9980472,9.65531256 24.9980472,9.37622061 L24.9980472,7.0326537 C24.9980472,6.82547623 24.9159355,6.62674627 24.7694623,6.48022621 C24.6229892,6.33370616 24.4242855,6.25141162 24.217108,6.25146473 Z M7.03045074,23.4376221 L5.46857277,23.4376221 L5.46857277,22.6561831 L7.03045074,22.6561831 L7.03045074,23.4376221 Z M19.5294743,23.4376221 L17.9675963,23.4376221 L17.9675963,22.6561831 L19.5294743,22.6561831 L19.5294743,23.4376221 Z M21.0923522,19.5314272 L21.0923522,21.0943051 L3.90569488,21.0943051 L3.90569488,15.6257324 L21.0923522,15.6257324 L21.0923522,19.5314272 Z M6.24951176,14.0633544 L6.24951176,7.96563081 C6.24951176,7.02070463 6.9569565,6.25146473 7.82538865,6.25146473 L11.7180845,6.25146473 L11.7180845,14.0633544 L6.24951176,14.0633544 Z M16.0142489,10.1574096 C14.9360805,10.1585121 14.062366,11.0323384 14.0614014,12.110507 L14.0614014,14.0633544 L13.2799625,14.0633544 L13.2799625,6.25146473 L17.1726584,6.25146473 C18.0410905,6.25146473 18.7485353,7.02045466 18.7485353,7.96563081 L18.7485353,14.0633544 L17.9675963,14.0633544 L17.9675963,12.110507 C17.9666313,11.0321434 17.0926126,10.1582366 16.0142489,10.1574096 Z M16.4047184,12.110507 L16.4047184,14.0633544 L15.6237794,14.0633544 L15.6237794,12.110507 C15.6237794,11.8948566 15.7985985,11.7200375 16.0142489,11.7200375 C16.2298992,11.7200375 16.4047184,11.8948566 16.4047184,12.110507 Z M21.0923522,14.0633544 L20.3109132,14.0633544 L20.3109132,7.96563081 C20.3109132,6.15912194 18.9025232,4.68908679 17.1726584,4.68908679 L7.82538865,4.68908679 C6.0955238,4.68908679 4.68713382,6.15897196 4.68713382,7.96563081 L4.68713382,14.0633544 L3.90569488,14.0633544 L3.90569488,5.50842277 C3.90569488,4.19552534 4.95711272,3.12670885 6.24951176,3.12670885 L18.7485353,3.12670885 C20.0409343,3.12670885 21.0923522,4.19552534 21.0923522,5.50842277 L21.0923522,14.0633544 L21.0923522,14.0633544 Z" id="形状"></path>
            </g>
        </g>
    </g>
</svg>