<?xml version="1.0" encoding="UTF-8"?>
<svg width="32px" height="23px" viewBox="0 0 32 23" version="1.1" xmlns="http://www.w3.org/2000/svg" xmlns:xlink="http://www.w3.org/1999/xlink">
    <!-- Generator: Sketch 58 (84663) - https://sketch.com -->
    <title>n-货车</title>
    <desc>Created with Sketch.</desc>
    <g id="Page-1" stroke="none" stroke-width="1" fill="none" fill-rule="evenodd">
        <g id="Data--Copy-6" transform="translate(-1243.000000, -590.000000)" fill-rule="nonzero" stroke="#FFFFFF">
            <g id="n-货车" transform="translate(1244.000000, 591.000000)">
                <path d="M4.58,6.29983666 L8.57166667,6.29983666 L8.57166667,1.05024499 C8.57166667,0.472038564 9.055,0 9.64333333,0 L28.9283333,0 C29.5183333,0 30,0.473671931 30,1.05024499 L30,15.7504083 C30,16.3269814 29.5166667,16.8006533 28.9283333,16.8006533 L27.8566667,16.8006533 C27.8493464,19.1169104 25.935168,20.9928261 23.5716667,21 C21.2075144,20.9937225 19.2923249,19.1175457 19.285,16.8006533 L10.7166667,16.8006533 C10.7093418,19.1175457 8.79415222,20.9937225 6.42999999,21 C4.06649862,20.9928261 2.15232023,19.1169104 2.145,16.8006533 L1.07166666,16.8006533 C0.480561196,16.7988599 0.00183005562,16.3296981 0,15.7504083 L0,12.784242 C0,12.6797075 0.0266666732,12.5735397 0.0799999984,12.4951388 C1.14093064,11.8743655 1.82926397,11.3314322 2.145,10.8663389 C2.72815286,10.0073286 3.38815286,8.56410655 4.125,6.53667264 C4.22422579,6.38545463 4.39659484,6.29573333 4.58,6.29983666 Z M11,0 L28,0 C29.1045695,-2.02906125e-16 30,0.8954305 30,2 L30,11 C30,12.1045695 29.1045695,13 28,13 L11,13 C9.8954305,13 9,12.1045695 9,11 L9,2 C9,0.8954305 9.8954305,2.02906125e-16 11,0 Z" id="形状" stroke-width="1.4"></path>
                <path d="M7,12 L7,9 L5.512056,9 C5.42494166,9 5.34949442,9.05600933 5.31215971,9.168028 L4,12 L7,12 L7,12 Z" id="路径" fill="#FFFFFF" stroke-linecap="round" stroke-linejoin="round"></path>
                <rect id="矩形" fill="#D8D8D8" x="11.5" y="6.5" width="4" height="1" rx="0.5"></rect>
                <rect id="矩形-copy-4" fill="#D8D8D8" x="11.5" y="8.5" width="4" height="1" rx="0.5"></rect>
                <rect id="矩形-copy-5" fill="#D8D8D8" x="11.5" y="10.5" width="4" height="1" rx="0.5"></rect>
                <rect id="矩形" fill="#D8D8D8" x="17.5" y="6.5" width="4" height="1" rx="0.5"></rect>
                <rect id="矩形" fill="#D8D8D8" x="17.5" y="4.5" width="4" height="1" rx="0.5"></rect>
                <rect id="矩形-copy-4" fill="#D8D8D8" x="17.5" y="8.5" width="4" height="1" rx="0.5"></rect>
                <rect id="矩形-copy-5" fill="#D8D8D8" x="17.5" y="10.5" width="4" height="1" rx="0.5"></rect>
                <rect id="矩形" fill="#D8D8D8" x="23.5" y="6.5" width="4" height="1" rx="0.5"></rect>
                <rect id="矩形-copy-4" fill="#D8D8D8" x="23.5" y="8.5" width="4" height="1" rx="0.5"></rect>
                <rect id="矩形-copy-5" fill="#D8D8D8" x="23.5" y="10.5" width="4" height="1" rx="0.5"></rect>
            </g>
        </g>
    </g>
</svg>