<?xml version="1.0" encoding="UTF-8"?>
<svg width="27px" height="26px" viewBox="0 0 27 26" version="1.1" xmlns="http://www.w3.org/2000/svg" xmlns:xlink="http://www.w3.org/1999/xlink">
    <!-- Generator: Sketch 58 (84663) - https://sketch.com -->
    <title>车辆管理</title>
    <desc>Created with Sketch.</desc>
    <g id="Page-1" stroke="none" stroke-width="1" fill="none" fill-rule="evenodd">
        <g id="Data--Copy-6" transform="translate(-1244.000000, -654.000000)" fill-rule="nonzero">
            <g id="车辆管理" transform="translate(1244.000000, 655.000000)">
                <path d="M19.1031747,15.0995866 C20.0246979,14.9668045 20.961298,14.9668045 21.8828212,15.0995866 C22.5309109,15.2246131 23.1788152,15.3245622 23.7877784,15.4869343 C24.239496,15.5970555 24.60149,15.9250663 24.7464691,16.3556251 C25.009599,17.0708476 25.2861885,17.781315 25.5760981,18.4866688 C25.627834,18.6053809 25.7834126,18.7803819 25.874275,18.7679334 C26.3881109,18.6842216 26.8770987,19.011672 26.9753784,19.5052832 C27.0082072,19.6324849 27.0082072,19.7656097 26.9753784,19.8928113 L26.2367972,20.0865754 C26.2827847,20.3344635 26.3128249,20.5850578 26.3276596,20.8363737 L26.3276596,24.2983275 C26.3191899,24.507951 26.2419936,24.7094363 26.1073647,24.8733052 C25.4234172,25.0004649 24.7221835,25.0131557 24.0338486,24.9108312 C23.5543178,24.6171181 23.8523093,24.1235069 23.6969161,23.7235302 L17.3992272,23.7235302 C17.2762849,24.1484039 17.204893,24.8608567 17.0624802,24.9108312 C16.3593326,25.0297229 15.6403757,25.0297229 14.9372281,24.9108312 C14.7881834,24.7202024 14.7063684,24.487856 14.7039529,24.248353 C14.6651973,23.7484273 14.6651973,23.2735791 14.6651973,22.7861019 C14.6651973,21.8800655 14.6651973,20.9738488 14.7039529,20.0614979 L14.0171076,19.8864968 C13.9942975,19.7856495 13.9942975,19.6811826 14.0171076,19.5803352 C14.2112563,19.0804095 14.4706777,18.6928814 15.137867,18.7491704 C15.2155636,18.7491704 15.364652,18.5990664 15.4100832,18.4866688 C15.6576115,17.9298273 15.8738976,17.3603267 16.0579875,16.7806792 C16.30721,15.9244369 17.0826924,15.3086858 18.0017003,15.2370617 C18.3579179,15.1744582 18.7274866,15.1307981 19.0835187,15.0745091 L19.1031747,15.0995866 L19.1031747,15.0995866 Z M16.2395268,18.9615171 C19.0340946,19.531623 21.9198213,19.531623 24.7143891,18.9615171 C24.4748092,18.2678273 24.2348583,17.6491896 24.0664848,17.0242374 C23.9631984,16.5329715 23.5109264,16.1831498 22.9909712,16.1930726 C21.6497314,16.1367836 20.3020015,16.0931235 18.9609472,16.0804946 C18.522863,16.0971321 18.0881395,16.162137 17.6651387,16.2742586 C17.4707732,16.3123789 17.3003154,16.4249131 17.1920981,16.5865543 C16.8290195,17.3430279 16.5569888,18.1240378 16.2395268,18.9615171 L16.2395268,18.9615171 Z M16.790264,21.9110967 C17.0220906,21.9230756 17.2545688,21.9104929 17.4835994,21.8735707 C17.6621426,21.8340193 17.8151369,21.7227896 17.9047186,21.567409 C17.936984,21.473594 17.788081,21.2424844 17.6584631,21.1861954 C17.1311862,20.9481042 16.5903888,20.7394484 16.0387024,20.5612432 C15.7666716,20.4739231 15.4555144,20.4925056 15.3907981,20.8612708 C15.2611802,21.4050369 15.3907981,21.7048841 15.8119174,21.7923846 C16.1423597,21.8549881 16.4598217,21.8672562 16.8227148,21.8986481 L16.790264,21.9110967 L16.790264,21.9110967 Z M24.260819,21.9110967 C24.6019534,21.8876024 24.9415006,21.8458638 25.2779212,21.7860701 C25.7639421,21.6798066 25.6604703,21.2987734 25.6473045,20.9675343 C25.6345096,20.6362952 25.4527849,20.4802375 25.1872442,20.5551091 C24.522297,20.7459337 23.8726466,20.9839977 23.2435314,21.2673814 C22.9587057,21.3987224 23.0621776,21.7609927 23.3861297,21.8299106 C23.6761475,21.8715861 23.9682051,21.896844 24.2610045,21.9047822 L24.2610045,21.9110967 L24.260819,21.9110967 Z" id="形状" fill="#FFFFFF"></path>
                <polyline id="路径-106" stroke="#FFFFFF" stroke-width="1.6" stroke-linecap="round" points="0.799361054 0.479905658 0.799361054 22.0307739 11.5 22.0307739"></polyline>
                <path d="M5.5,11 L5.5,18.7690344" id="路径-107" stroke="#FFFFFF" stroke-width="1.4" stroke-linecap="round"></path>
                <path d="M10.5,6 L10.5,18.8109007" id="路径-108" stroke="#FFFFFF" stroke-width="1.4" stroke-linecap="round"></path>
                <path d="M16.1058816,7.78937557 L16.1058816,12.9670312" id="路径-109" stroke="#FFFFFF" stroke-width="1.4" stroke-linecap="round"></path>
                <path d="M20.6301001,2.94216682 L20.6301001,12.1240384" id="路径-110" stroke="#FFFFFF" stroke-width="1.4" stroke-linecap="round"></path>
            </g>
        </g>
    </g>
</svg>