<?xml version="1.0" encoding="UTF-8"?>
<svg width="28px" height="28px" viewBox="0 0 28 28" version="1.1" xmlns="http://www.w3.org/2000/svg" xmlns:xlink="http://www.w3.org/1999/xlink">
    <!-- Generator: Sketch 58 (84663) - https://sketch.com -->
    <title>分组 3</title>
    <desc>Created with Sketch.</desc>
    <g id="Page-1" stroke="none" stroke-width="1" fill="none" fill-rule="evenodd">
        <g id="Data--Copy-6" transform="translate(-329.000000, -451.000000)" fill-rule="nonzero" stroke="#FFFFFF" stroke-width="1.4">
            <g id="分组-3" transform="translate(330.000000, 452.000000)">
                <polyline id="路径-20" stroke-linecap="round" points="5.80369263 4.95945067 5.80369263 0 0 0 0 25.4800724 5.80369263 25.4800724 5.80369263 13.6660658"></polyline>
                <polyline id="路径-21" stroke-linecap="round" points="10 11.8378152 10 9 15.0335847 9 15.0335847 14.5475682"></polyline>
                <polyline id="路径-22" stroke-linecap="round" points="15.510396 22.7146634 15.510396 25.5002852 10 25.5002852 10 17.3"></polyline>
                <polyline id="路径-23" stroke-linecap="round" points="18.4101333 13.7428501 18.4101333 5.22506552 24.1746202 5.22506552 24.1746202 9.48395781"></polyline>
                <polyline id="路径-24" stroke-linecap="round" points="23.9946544 16.8458084 23.9946544 25.6873527 18.5659846 25.6873527 18.5659846 18.4029812"></polyline>
                <circle id="椭圆形" cx="5" cy="9" r="2"></circle>
                <circle id="椭圆形-copy-2" cx="14" cy="19" r="2"></circle>
                <circle id="椭圆形-copy-3" cx="24" cy="13" r="2"></circle>
                <path d="M6.20036208,10.6470314 L12.1399301,17.7168666" id="路径-25"></path>
                <path d="M15.9979754,18.2989951 L22.1235798,13.9662284" id="路径-26"></path>
            </g>
        </g>
    </g>
</svg>