<?xml version="1.0" encoding="UTF-8"?>
<svg width="27px" height="26px" viewBox="0 0 27 26" version="1.1" xmlns="http://www.w3.org/2000/svg" xmlns:xlink="http://www.w3.org/1999/xlink">
    <!-- Generator: Sketch 58 (84663) - https://sketch.com -->
    <title>智能</title>
    <desc>Created with Sketch.</desc>
    <g id="Page-1" stroke="none" stroke-width="1" fill="none" fill-rule="evenodd">
        <g id="Data--Copy-6" transform="translate(-913.000000, -789.000000)" fill-rule="nonzero" stroke="#FFFFFF" stroke-width="1.4">
            <g id="智能" transform="translate(913.000000, 789.000000)">
                <polyline id="路径-91" points="12.3018565 13.1047664 8.63002259 13.1047664 4.93874589 13.1047664"></polyline>
                <polyline id="路径-92" points="5.06156714 3.39951598 8.56078744 3.39951598 8.56078744 22.8204494 5.06156714 22.8204494"></polyline>
                <rect id="矩形" fill="#D8D8D8" x="15.7" y="4.7" width="1.6" height="1"></rect>
                <rect id="矩形-copy-3" fill="#D8D8D8" x="20.7" y="4.7" width="1.6" height="1"></rect>
                <rect id="矩形" fill="#D8D8D8" x="15.7" y="8.7" width="1.6" height="1"></rect>
                <rect id="矩形-copy-3" fill="#D8D8D8" x="20.7" y="8.7" width="1.6" height="1"></rect>
                <rect id="矩形" fill="#D8D8D8" x="15.7" y="12.7" width="1.6" height="1"></rect>
                <rect id="矩形-copy-3" fill="#D8D8D8" x="20.7" y="12.7" width="1.6" height="1"></rect>
                <rect id="矩形" fill="#D8D8D8" x="15.7" y="16.7" width="1.6" height="1"></rect>
                <rect id="矩形-copy-3" fill="#D8D8D8" x="20.7" y="16.7" width="1.6" height="1"></rect>
                <rect id="矩形" fill="#D8D8D8" x="15.7" y="20.7" width="1.6" height="1"></rect>
                <rect id="矩形-copy-3" fill="#D8D8D8" x="20.7" y="20.7" width="1.6" height="1"></rect>
                <rect id="矩形" x="12.7" y="0.7" width="13.6" height="24.6" rx="2"></rect>
                <rect id="矩形" x="0.7" y="0.7" width="3.6" height="4.6" rx="1"></rect>
                <rect id="矩形" x="0.7" y="10.7" width="3.6" height="4.6" rx="1"></rect>
                <rect id="矩形" x="0.7" y="20.7" width="3.6" height="4.6" rx="1"></rect>
            </g>
        </g>
    </g>
</svg>