<?xml version="1.0" encoding="UTF-8"?>
<svg width="31px" height="26px" viewBox="0 0 31 26" version="1.1" xmlns="http://www.w3.org/2000/svg" xmlns:xlink="http://www.w3.org/1999/xlink">
    <!-- Generator: Sketch 58 (84663) - https://sketch.com -->
    <title>骷髅</title>
    <desc>Created with Sketch.</desc>
    <g id="Page-1" stroke="none" stroke-width="1" fill="none" fill-rule="evenodd">
        <g id="Data--Copy-6" transform="translate(-655.000000, -589.000000)" fill-rule="nonzero">
            <g id="骷髅" transform="translate(655.000000, 590.000000)">
                <path d="M7.56938866,7.97217248 L7.56938866,8.71498397 C7.56938866,9.10588924 7.88707139,9.4224345 8.2792646,9.4224345 C8.48510773,9.4224345 8.66852383,9.33392169 8.79842114,9.19460182 C8.89803934,9.46440921 9.15657805,9.65809012 9.46221878,9.65809012 C9.76788063,9.65809012 10.0264404,9.46439869 10.1262486,9.19460182 C10.2559348,9.33393221 10.4393509,9.4224345 10.6456373,9.4224345 C11.0373978,9.4224345 11.3550595,9.10588924 11.3550595,8.71498397 L11.3550595,7.97217248 C11.7939642,7.54982824 12.0653681,6.98275956 12.0653681,6.35758662 C12.0653681,5.05557145 10.8996062,4 9.46219767,4 C8.02484191,4 6.85928054,5.05556094 6.85928054,6.35758662 C6.85928054,6.98275956 7.13006177,7.55022779 7.56936756,7.97217248 L7.56938866,7.97217248 Z M10.5775964,5.24145045 C11.0183058,5.24145045 11.3744153,5.59703682 11.3744153,6.03530033 C11.3744153,6.47338509 11.0182953,6.82917123 10.5775964,6.82917123 C10.1374463,6.82917123 9.78076693,6.47337457 9.78076693,6.03530033 C9.78076693,5.59703682 10.1374463,5.24145045 10.5775964,5.24145045 Z M9.6045908,7.43092793 L9.95736522,8.13259537 C10.0355696,8.28931708 9.95633094,8.41687099 9.78096745,8.41687099 L9.14352288,8.41687099 C8.96838103,8.41687099 8.88891022,8.28931708 8.96712512,8.13259537 L9.31989954,7.43092793 C9.39812499,7.27424827 9.52636534,7.27424827 9.60458024,7.43092793 L9.6045908,7.43092793 Z M8.34668287,5.24145045 C8.7868013,5.24145045 9.14351233,5.59703682 9.14351233,6.03530033 C9.14351233,6.47338509 8.78681186,6.82917123 8.34668287,6.82917123 C7.90657498,6.82917123 7.54986396,6.47337457 7.54986396,6.03530033 C7.54986396,5.59703682 7.90656443,5.24145045 8.34668287,5.24145045 L8.34668287,5.24145045 Z M13.5397153,11.3355224 C13.140662,11.1500955 12.6671405,11.3225262 12.480991,11.7194459 C12.4575402,11.7684444 12.4401052,11.8191358 12.4280948,11.8703635 L10.6312946,11.0357796 L12.4282954,10.2009855 C12.4405168,10.2516348 12.4575297,10.3022737 12.4809804,10.3510829 C12.6671194,10.748623 13.1406304,10.9204123 13.5397047,10.7349959 C13.9387157,10.5501579 14.1111663,10.0778057 13.9250379,9.68022357 C13.8148764,9.4439581 13.6011284,9.28991764 13.3630959,9.24047749 C13.4784921,9.02754415 13.4973519,8.76565434 13.3867577,8.529126 C13.2006292,8.13155441 12.7266856,7.95977564 12.327664,8.14522353 C11.9283997,8.33066091 11.7559702,8.8024453 11.9423203,9.19998535 C11.9655705,9.24960426 11.9929367,9.29531169 12.0242818,9.33747566 L9.49998061,10.509834 L6.97633377,9.33747566 C7.00702449,9.29529066 7.03483399,9.24960426 7.05808422,9.19998535 C7.24401215,8.80245582 7.07156154,8.33067142 6.67274048,8.14522353 C6.27371891,7.95977564 5.79976469,8.13156493 5.61364679,8.529126 C5.50304199,8.76565434 5.5215113,9.02755467 5.63730862,9.24047749 C5.39887507,9.28992816 5.18557034,9.44393707 5.07495499,9.68022357 C4.88882654,10.0777847 5.06125604,10.5501474 5.46029873,10.7349959 C5.8589087,10.9204123 6.33327452,10.748623 6.5191919,10.3510829 C6.54201997,10.3018636 6.55965552,10.251435 6.57211967,10.2005859 L8.36826558,11.0355693 L6.57211967,11.8699429 C6.55964497,11.8191148 6.54201997,11.7684549 6.5191919,11.7194459 C6.33327452,11.3225262 5.85891926,11.1500955 5.46029873,11.3355224 C5.06125604,11.5209808 4.88882654,11.9927547 5.07495499,12.3903052 C5.18557034,12.6268231 5.39886452,12.7810212 5.63730862,12.8302196 C5.5215113,13.0431739 5.50305255,13.3053056 5.61364679,13.5414133 C5.79976469,13.9391531 6.27371891,14.1107321 6.67274048,13.9252737 C7.07156154,13.7406986 7.24400159,13.2681045 7.05808422,12.8705435 C7.03483399,12.8213451 7.00744664,12.7758585 6.97633377,12.7339048 L9.50020224,11.5612942 L12.0238807,12.7334948 C11.9925251,12.775869 11.965581,12.8213451 11.9423308,12.8705435 C11.7559807,13.268094 11.9284102,13.7407091 12.3276746,13.9252737 C12.7266856,14.1107321 13.2006398,13.9391637 13.3867682,13.5414133 C13.497373,13.3053056 13.4785027,13.0431529 13.3631064,12.8302196 C13.6011389,12.781221 13.8148658,12.6268231 13.9250484,12.3903052 C14.1111769,11.9927547 13.9387263,11.5209913 13.5397047,11.3355224 L13.5397153,11.3355224 Z" id="形状" fill="#FFFFFF"></path>
                <polyline id="路径-70" stroke="#FFFFFF" stroke-width="1.4" stroke-linecap="round" stroke-linejoin="round" points="3 19.0689901 0.899043705 19.0689901 0.899043705 0.641813199 18 0.641813199 18 19.0689901 12.2927599 19.0689901"></polyline>
                <polyline id="路径-71" stroke="#FFFFFF" stroke-width="1.4" stroke-linecap="round" stroke-linejoin="round" points="20 19.0840556 18 19.0840556 18 5.924099 23.6799134 5.924099 29.692656 11.9368416 29.692656 19.0840556 27.2228945 19.0840556"></polyline>
                <polyline id="路径-72" stroke="#FFFFFF" stroke-width="1.4" stroke-linecap="round" stroke-linejoin="round" points="20.9517922 8.30209111 20.9517922 12.7862557 26 12.7862557"></polyline>
                <circle id="椭圆形" stroke="#FFFFFF" stroke-width="1.4" stroke-linecap="round" stroke-linejoin="round" cx="8" cy="21" r="3"></circle>
                <circle id="椭圆形-copy-4" stroke="#FFFFFF" stroke-width="1.4" stroke-linecap="round" stroke-linejoin="round" cx="24" cy="21" r="3"></circle>
            </g>
        </g>
    </g>
</svg>