<?xml version="1.0" encoding="UTF-8"?>
<svg width="28px" height="25px" viewBox="0 0 28 25" version="1.1" xmlns="http://www.w3.org/2000/svg" xmlns:xlink="http://www.w3.org/1999/xlink">
    <!-- Generator: Sketch 58 (84663) - https://sketch.com -->
    <title>企业</title>
    <desc>Created with Sketch.</desc>
    <g id="Page-1" stroke="none" stroke-width="1" fill="none" fill-rule="evenodd">
        <g id="Data--Copy-6" transform="translate(-656.000000, -455.000000)" fill="#FFFFFF" fill-rule="nonzero">
            <g id="企业" transform="translate(656.000000, 455.000000)">
                <path d="M25.3647156,23.4720701 L25.3647156,1.86355813 C25.1614951,0.47645126 24.1552656,0 23.0807475,0 C23.0365037,0 22.9923912,0.00458538348 22.9491067,0.0132999531 L10.4958862,2.34313879 C9.45592384,2.3806916 8.31723084,3.33359412 8.31723084,4.33813175 L8.12552891,7.8094195 L4.89703808,8.38209983 C3.84810854,8.42407902 3.02099047,9.24579431 3.02280207,10.2440933 L3.19228961,23.4720701 L0.635166902,23.4720701 C0.273154678,23.4720701 0,23.900798 0,24.2465968 C0,24.5931779 0.273977433,25 0.635166902,25 L3.72049835,25 C4.08251058,25 4.80982605,24.550931 4.79337094,23.945392 L4.79337094,10.9826318 C4.69957687,9.81223596 5.57910202,9.64794242 5.62188528,9.63933657 L17.1618477,7.47066187 C17.4876587,7.49804412 18.0224495,7.79846659 17.9730842,8.38209983 L17.9730842,23.945392 C17.9730842,24.2919731 18.4264222,25 18.7876117,25 L27.385402,25 C27.7474142,25 28,24.5931779 28,24.2473791 C28,23.900798 27.7474142,23.4728524 27.385402,23.4728524 L25.3647156,23.4728524 L25.3647156,23.4720701 Z M19.5906206,23.4720701 L19.5906206,7.8094195 C19.5906206,6.78141136 18.6362247,6.04130809 17.5625294,6.04130809 C17.5181006,6.04130809 17.4646215,6.03348459 17.4218383,6.04130809 L9.74800188,7.47066187 L9.8574283,4.61351901 C9.8574283,4.27710843 10.1445698,3.78501017 10.4958862,3.78501017 C10.540315,3.78501017 23.0807475,1.37537162 23.0807475,1.37537162 C23.4065585,1.40197152 23.724142,1.51775935 23.7192623,2.28133312 L23.7192623,23.4720701 L19.5906206,23.4720701 L19.5906206,23.4720701 Z" id="形状"></path>
                <path d="M7,12.6294736 L14.6737621,11 L15,12.5332217 L7.32623792,14.1626953 L7,12.6294736 L7,12.6294736 Z M7,16.5481259 L14.6737621,14.9186523 L15,16.4518741 L7.32623792,18.0813477 L7,16.5481259 Z M7,20.4667783 L14.6737621,18.8373047 L15,20.3705264 L7.32623792,22 L7,20.4667783 Z" id="形状"></path>
            </g>
        </g>
    </g>
</svg>