<?xml version="1.0" encoding="UTF-8"?>
<svg width="28px" height="32px" viewBox="0 0 28 32" version="1.1" xmlns="http://www.w3.org/2000/svg" xmlns:xlink="http://www.w3.org/1999/xlink">
    <!-- Generator: Sketch 58 (84663) - https://sketch.com -->
    <title>安全审计报表-数据报表-监测报告_云检测</title>
    <desc>Created with Sketch.</desc>
    <g id="Page-1" stroke="none" stroke-width="1" fill="none" fill-rule="evenodd">
        <g id="Data--Copy-6" transform="translate(-912.000000, -853.000000)" fill-rule="nonzero">
            <g id="安全审计报表-数据报表-监测报告_云检测" transform="translate(913.000000, 854.000000)">
                <path d="M9.375,27.8571429 L2.08333333,27.8571429 L2.08333333,4.28571429 L6.25,4.28571429 C6.25,5.46918161 7.1827401,6.42857143 8.33333333,6.42857143 L16.6666667,6.42857143 C17.8172599,6.42857143 18.75,5.46918161 18.75,4.28571429 L22.9166667,4.28571429 L22.9166667,11.7857143 C22.9166667,12.3774479 23.3830367,12.8571429 23.9583333,12.8571429 C24.5336299,12.8571429 25,12.3774479 25,11.7857143 L25,4.28571429 C25,3.10224696 24.0672599,2.14285714 22.9166667,2.14285714 L18.75,2.14285714 C18.75,0.959389822 17.8172599,0 16.6666667,0 L8.33333333,0 C7.1827401,0 6.25,0.959389822 6.25,2.14285714 L2.08333333,2.14285714 C0.932740105,2.14285714 0,3.10224696 0,4.28571429 L0,27.8571429 C0,29.0406102 0.932740105,30 2.08333333,30 L9.375,30 C9.95029661,30 10.4166667,29.5203051 10.4166667,28.9285714 C10.4166667,28.3368378 9.95029661,27.8571429 9.375,27.8571429 Z M9.22727273,21.6 C9.80466133,21.6 10.2727273,22.070101 10.2727273,22.65 C10.2727273,23.229899 9.80466133,23.7 9.22727273,23.7 L9.22727273,23.7 L5.04545455,23.7 C4.46806594,23.7 4,23.229899 4,22.65 C4,22.070101 4.46806594,21.6 5.04545455,21.6 L5.04545455,21.6 Z M5.04545455,15.3 L9.22727273,15.3 C9.80466133,15.3 10.2727273,15.770101 10.2727273,16.35 C10.2727273,16.8912391 9.86498983,17.3368319 9.34118652,17.3938387 L9.22727273,17.4 L5.04545455,17.4 C4.46806594,17.4 4,16.929899 4,16.35 C4,15.8087609 4.40773744,15.3631681 4.93154075,15.3061613 L5.04545455,15.3 L9.22727273,15.3 Z M19.6818182,9 C20.2592068,9 20.7272727,9.47010101 20.7272727,10.05 C20.7272727,10.5912391 20.3195353,11.0368319 19.795732,11.0938387 L19.6818182,11.1 L5.04545455,11.1 C4.46806594,11.1 4,10.629899 4,10.05 C4,9.50876095 4.40773744,9.06316813 4.93154075,9.00616126 L5.04545455,9 L19.6818182,9 Z M16.6666667,2.14285714 L16.6666667,4.28571429 L8.33333333,4.28571429 L8.33333333,2.14285714 L16.6666667,2.14285714 Z" id="形状" stroke="#FFFFFF" stroke-width="1.2"></path>
                <path d="M24.9090909,15.3 L14.4545455,15.3 C13.2997683,15.3 12.3636364,16.240202 12.3636364,17.4 L12.3636364,27.9 C12.3636364,29.059798 13.2997683,30 14.4545455,30 L24.9090909,30 C26.0638681,30 27,29.059798 27,27.9 L27,17.4 C27,16.240202 26.0638681,15.3 24.9090909,15.3 Z M24.9090909,27.9 L14.4545455,27.9 L14.4545455,25.1847 L17.5909091,22.0347 L21.0325455,25.4934 C21.2286816,25.6908876 21.4949975,25.8018769 21.7727273,25.8018769 C22.050457,25.8018769 22.3167729,25.6908876 22.5129091,25.4934 L24.9090909,23.0847 L24.9090909,27.9 Z M24.9090909,20.1153 L21.7727273,23.2653 L18.3310909,19.8066 C18.1349547,19.6091124 17.8686388,19.4981231 17.5909091,19.4981231 C17.3131794,19.4981231 17.0468635,19.6091124 16.8507273,19.8066 L14.4545455,22.2153 L14.4545455,17.4 L24.9090909,17.4 L24.9090909,20.1153 Z" id="形状" fill="#FFFFFF"></path>
            </g>
        </g>
    </g>
</svg>