<?xml version="1.0" encoding="UTF-8"?>
<svg width="28px" height="18px" viewBox="0 0 28 18" version="1.1" xmlns="http://www.w3.org/2000/svg" xmlns:xlink="http://www.w3.org/1999/xlink">
    <!-- Generator: Sketch 58 (84663) - https://sketch.com -->
    <title>物流</title>
    <desc>Created with Sketch.</desc>
    <g id="Page-1" stroke="none" stroke-width="1" fill="none" fill-rule="evenodd">
        <g id="Data--Copy-6" transform="translate(-48.000000, -925.000000)" fill-rule="nonzero">
            <g id="物流" transform="translate(48.000000, 925.000000)">
                <path d="M25.4722054,14.8539333 L24.3546918,14.8539333 C23.9173727,13.1509756 22.3986294,11.8851453 20.5821112,11.8851453 C18.7635935,11.8851453 17.2451711,13.1509756 16.8075312,14.8539333 L11.6407677,14.8539333 C11.203103,13.1509756 9.68470532,11.8851453 7.86776748,11.8851453 C6.0495954,11.8851453 4.53087678,13.1509756 4.09437231,14.8539333 L2.97804353,14.8539333 C2.43731908,14.8539333 2,14.4113035 2,13.8641028 L2,10.8956666 L14.7138994,10.8956666 C16.3318023,10.8956666 17.6480053,9.56395821 17.6480053,7.9267782 L17.6480053,1 L21.5600807,1 C21.8868357,1 22.1925098,1.1651225 22.3739197,1.44067004 L26.2860198,7.37799463 C26.3929798,7.54032824 26.8012694,8.17169818 26.8012694,8.36669448 L26.8012694,13.67584 L26.8514292,13.8641028 C26.8514292,14.4113035 26.0128805,14.8539333 25.4721807,14.8539333 L25.4722054,14.8539333 Z" id="路径-2" stroke="#FFFFFF" stroke-width="1.4"></path>
                <path d="M8.21621794,17.1240462 L8.01944801,17.1223355 C6.82085421,17.1223355 5.85092784,16.0173554 5.85092784,14.6547756 C5.85092784,13.2917544 6.82085421,12.1867467 8.01944801,12.1867467 C9.21576168,12.1867467 10.1879924,13.2917268 10.1879924,14.6547756 C10.1880409,16.0173278 9.27664587,17.1240462 8.21621794,17.1240462 Z" id="路径" stroke="#FFFFFF" stroke-width="1.4"></path>
                <path d="M20.8331441,17.1240462 L20.6360346,17.1223355 C19.4374166,17.1223355 18.467854,16.0173554 18.467854,14.6547756 C18.467854,13.2917544 19.437368,12.1867467 20.6360346,12.1867467 C21.8326879,12.1867467 22.8045548,13.2917268 22.8045548,14.6547756 C22.8045063,16.0173278 21.8935478,17.1240462 20.8331684,17.1240462 L20.8331441,17.1240462 Z" id="路径" stroke="#FFFFFF" stroke-width="1.4"></path>
                <polygon id="路径" fill="#FFFFFF" points="23.0937716 7.87213621 19.9687888 7.87213621 19.9687888 2.93483673 20.7500542 2.93483673 23.093811 6.63777478 23.093811 7.87211531"></polygon>
                <rect id="矩形" stroke="#FFFFFF" stroke-width="1.4" x="0.7" y="0.896923077" width="14.6" height="7.6" rx="3.8"></rect>
            </g>
        </g>
    </g>
</svg>