<?xml version="1.0" encoding="UTF-8"?>
<svg width="27px" height="27px" viewBox="0 0 27 27" version="1.1" xmlns="http://www.w3.org/2000/svg" xmlns:xlink="http://www.w3.org/1999/xlink">
    <!-- Generator: Sketch 58 (84663) - https://sketch.com -->
    <title>交通</title>
    <desc>Created with Sketch.</desc>
    <g id="Page-1" stroke="none" stroke-width="1" fill="none" fill-rule="evenodd">
        <g id="Data--Copy-6" transform="translate(-48.000000, -852.000000)" fill-rule="nonzero" stroke="#FFFFFF" stroke-width="1.4">
            <g id="交通" transform="translate(49.000000, 853.000000)">
                <path d="M17.7519334,19.5800288 C17.7519334,20.5638169 16.9458008,21.3608744 15.9796204,21.3608744 L14.1950511,21.3608744 L14.1950511,24.9439216 L10.6365412,24.9439216 L10.6365412,21.3608744 L8.85303228,21.3608744 C8.38117368,21.36116 7.92864493,21.1734394 7.59554164,20.8392346 C7.26243835,20.5050299 7.07621259,20.0518839 7.07804239,19.5800288 L7.07804239,1.79394038 C7.07804239,0.812297783 7.88470644,0.0141798848 8.85303228,0.0141798848 L15.9791025,0.0141798848 C16.4503109,0.0146031194 16.901989,0.202487224 17.2344844,0.536379816 C17.5669798,0.870272407 17.7529682,1.32273444 17.7514155,1.79394038 L17.7514155,19.5800288 L17.7519334,19.5800288 Z M12.4584714,8.95362315 C11.4764085,8.95362315 10.6802892,9.74974244 10.6802892,10.7318054 C10.6802892,11.7138683 11.4764085,12.5099876 12.4584714,12.5099876 C13.4405344,12.5099876 14.2366536,11.7138683 14.2366536,10.7318054 C14.2366536,9.74974244 13.4405344,8.95362315 12.4584714,8.95362315 L12.4584714,8.95362315 Z M12.4584714,1.83768714 C11.4764564,1.83885934 10.6811875,2.6356291 10.6818676,3.61764456 C10.6825486,4.59966002 11.4789211,5.39532676 12.4609368,5.39513664 C13.4429524,5.39494645 14.2390168,4.59897134 14.2393171,3.61695569 C14.2394614,3.14474687 14.051833,2.69186011 13.717783,2.35810609 C13.3837329,2.02435208 12.9306799,1.83712536 12.4584714,1.83768714 L12.4584714,1.83768714 Z M19.5946772,4.25714666 C19.5946772,3.89969026 19.8865116,3.61266473 20.24128,3.6153097 L24.2762094,3.67135713 C24.8721344,3.67668383 25.1388889,4.42681207 24.6774138,4.81146918 L20.6190075,9.56501046 C20.2007625,9.91393426 19.5743815,9.6108793 19.5754652,9.06831992 L19.5946772,4.25714666 L19.5946772,4.25714666 Z M4.29953835,18.4617908 L0.242734967,13.707707 C-0.217679727,13.3251707 0.0448084359,12.5729216 0.642878985,12.5670524 L4.68047171,12.5099873 C5.0347734,12.5096844 5.32264583,12.7958811 5.3244111,13.1501785 L5.34414511,17.9624369 C5.34628512,18.5082021 4.71726543,18.8080512 4.29953835,18.4618154 L4.29953835,18.4617908 Z M4.29953835,9.56875888 L0.242217093,4.81467507 C-0.218197601,4.42999329 0.0442905619,3.67831143 0.64233645,3.67296007 L4.67992917,3.61532608 C4.85047525,3.61490243 5.01418956,3.68231792 5.13498298,3.8027135 C5.2557764,3.92310909 5.3237316,4.08660011 5.32386857,4.25714666 L5.34360569,9.06938033 C5.34628512,9.61142184 4.71726543,9.91445214 4.29953835,9.56875888 L4.29953835,9.56875888 Z M24.6763287,13.707707 L20.6179224,18.4617908 C20.1996774,18.8080266 19.5733458,18.5082021 19.5744048,17.961919 L19.5946772,13.1491428 C19.5946772,12.7948676 19.8865116,12.5067817 20.24128,12.5094267 L24.2772698,12.5665345 C24.8742799,12.5724037 25.1383464,13.3251707 24.6763287,13.707707 L24.6763287,13.707707 Z M12.4584714,16.0684715 C11.4935168,16.0923114 10.7236756,16.881406 10.7236756,17.846655 C10.7236756,18.8119041 11.4935168,19.6009986 12.4584714,19.6248373 C13.4408727,19.6251241 14.2378338,18.8295977 14.239317,17.8471976 C14.239317,17.3750827 14.0516254,16.9223354 13.717591,16.5886988 C13.3835566,16.2550622 12.9305859,16.0679099 12.4584714,16.0684715 L12.4584714,16.0684715 Z" id="形状"></path>
            </g>
        </g>
    </g>
</svg>