<?xml version="1.0" encoding="UTF-8"?>
<svg width="26px" height="24px" viewBox="0 0 26 24" version="1.1" xmlns="http://www.w3.org/2000/svg" xmlns:xlink="http://www.w3.org/1999/xlink">
    <!-- Generator: Sketch 58 (84663) - https://sketch.com -->
    <title>分组 5</title>
    <desc>Created with Sketch.</desc>
    <g id="Page-1" stroke="none" stroke-width="1" fill="none" fill-rule="evenodd">
        <g id="Data--Copy-6" transform="translate(-329.000000, -720.000000)" fill-rule="nonzero">
            <g id="分组-5" transform="translate(329.000000, 719.000000)">
                <path d="M0.96992643,9.66665923 L0.96992643,16.3029497 C0.96992643,16.8552344 1.41764168,17.3029497 1.96992643,17.3029497 L5.38537791,17.3029497 L5.38537791,17.3029497 L12.063933,23.9815048 C12.4544573,24.3720291 13.0876223,24.3720291 13.4781466,23.9815048 C13.665683,23.7939684 13.7710398,23.5396145 13.7710398,23.274398 L13.7710398,3.03694801 C13.7710398,2.48466326 13.3233246,2.03694801 12.7710398,2.03694801 C12.514895,2.03694801 12.268516,2.13523856 12.0827093,2.31155083 L5.38537791,8.66665923 L5.38537791,8.66665923 L1.96992643,8.66665923 C1.41764168,8.66665923 0.96992643,9.11437448 0.96992643,9.66665923 Z" id="路径-35" stroke="#FFFFFF" stroke-width="1.4"></path>
                <path d="M16.280511,9.6119868 L16.280511,16.8487342 C18.1906185,16.0773622 19.1456722,14.8712376 19.1456722,13.2303605 C19.1456722,11.5894834 18.1906185,10.3833588 16.280511,9.6119868 Z" id="路径-36" fill="#FFFFFF"></path>
                <path d="M21.680441,9.93103356 L21.680441,15.998008" id="路径-37" stroke="#FFFFFF" stroke-width="1.4" stroke-linecap="round"></path>
                <path d="M24.8998595,7.07682675 L24.8998595,19.0773668" id="路径-38" stroke="#FFFFFF" stroke-width="1.4" stroke-linecap="round"></path>
            </g>
        </g>
    </g>
</svg>