<?xml version="1.0" encoding="UTF-8"?>
<svg width="30px" height="29px" viewBox="0 0 30 29" version="1.1" xmlns="http://www.w3.org/2000/svg" xmlns:xlink="http://www.w3.org/1999/xlink">
    <!-- Generator: Sketch 58 (84663) - https://sketch.com -->
    <title>生态岸线-01</title>
    <desc>Created with Sketch.</desc>
    <g id="Page-1" stroke="none" stroke-width="1" fill="none" fill-rule="evenodd">
        <g id="Data--Copy-6" transform="translate(-911.000000, -253.000000)" fill-rule="nonzero">
            <g id="生态岸线-01" transform="translate(911.000000, 253.000000)">
                <path d="M26.0886849,15.8791878 C26.0886849,16.6233223 26.0125608,17.3494158 25.8757031,18.0525926 C26.5519169,18.0722356 27.1814762,18.2793924 27.7081334,18.6335232 C27.8964767,17.7449223 28,16.8249762 28,15.8791878 C28,14.5838657 27.8036509,13.336467 27.4571931,12.1551718 C26.9816764,12.600552 26.3893164,12.9163023 25.7263535,13.0411258 C25.9669854,13.9675955 26.0887581,14.9214146 26.0886849,15.8791878 L26.0886849,15.8791878 Z M4.13209567,18.1060188 C3.98473344,17.3730849 3.91072206,16.6270597 3.91117706,15.8791878 C3.91117706,14.9112487 4.03333448,13.97361 4.26301805,13.0786704 C3.59280861,13.0278912 2.97684529,12.7958672 2.46495738,12.4174265 C2.16632733,13.5202891 2,14.6792247 2,15.8791878 C2,16.7053073 2.08482002,17.5118535 2.22982162,18.2952043 C2.62776497,18.1364584 3.05821458,18.0428408 3.51157738,18.0428408 C3.72380004,18.0428408 3.92960423,18.0696584 4.13209567,18.1060188 Z M22.9699437,23.6502839 C20.9526898,25.7559135 18.1310604,27.0709482 14.9998965,27.0709482 C11.6407743,27.0709482 8.63770318,25.5578817 6.60381656,23.1773897 C6.30415127,23.762639 5.85237584,24.2490464 5.29376447,24.5862509 C7.67542016,27.2878568 11.1352359,29 14.9999655,29 C18.7448152,29 22.1091825,27.393107 24.480831,24.8369426 C23.8717002,24.5908481 23.3528417,24.1757684 22.9699437,23.6502839 L22.9699437,23.6502839 Z M14.9998275,7.05099297 C16.3506677,7.05099297 17.5086787,6.26945322 18.0904103,5.13726544 C17.5748646,4.9864603 17.0428931,4.87570735 16.499051,4.8018024 C16.1375479,5.23352997 15.603644,5.51382549 14.9997585,5.51382553 C14.3952517,5.51382553 13.8621761,5.23359966 13.5006039,4.8018024 C12.9567618,4.875777 12.4256185,4.9855548 11.9093136,5.13726544 C12.4912523,6.26945322 13.6491942,7.05099297 14.9998275,7.05099297 L14.9998275,7.05099297 Z M14.9998275,1.53723713 C15.8734256,1.53723713 16.6052659,2.1145456 16.864212,2.90862343 C17.4097795,2.98810087 17.9436143,3.09948073 18.4652334,3.24485269 C18.320991,1.43198697 16.8332241,0 14.9998275,0 C13.1663618,0 11.6796991,1.43198697 11.5346976,3.24485269 C12.0561786,3.09948073 12.5911177,2.98803122 13.1364091,2.90862343 C13.3945961,2.11454564 14.1265054,1.53723713 14.9998275,1.53723713 Z" id="形状" fill="#FFFFFF"></path>
                <path d="M18.5578884,3.35189503 C18.0313898,3.19978133 17.492702,3.08316327 16.9421038,3.00007288 C17.0063228,3.20437319 17.0501339,3.41931486 17.0501339,3.64591834 C17.0501339,4.15670552 16.8663921,4.61873177 16.5736453,4.98097665 C17.1225022,5.05838189 17.659379,5.17419821 18.1796787,5.33199706 C19.7720603,5.81552474 21.2128097,6.66428571 22.4269816,7.77689504 C22.8259476,7.22040814 23.3673518,6.78833817 24,6.53913992 C22.4780364,5.05750727 20.62049,3.94839646 18.5578884,3.35189503 L18.5578884,3.35189503 Z M13.1799263,3 C12.6296067,3.08316327 12.0897349,3.19970846 11.5634451,3.35182216 C9.44533102,3.96421282 7.54334669,5.1201166 6,6.66224488 C6.59496649,6.96107868 7.09743527,7.42237606 7.45050072,8 C8.71315029,6.77529154 10.2431238,5.8472303 11.9415853,5.33206998 C12.4625815,5.17325076 12.9986921,5.05838193 13.547549,4.98104957 C13.2550111,4.61873177 13.072941,4.15670552 13.072941,3.64599122 C13.072941,3.41924194 13.1158466,3.20430027 13.1799263,3 L13.1799263,3 Z" id="形状" fill="#FFFFFF"></path>
                <path d="M9.98699321,12.0017768 C9.93183733,11.7317862 9.88066297,11.5268738 9.82363719,11.3598366 L9.4443924,10.2489713 L9.00640246,11.0977618 C9.09094601,11.1748271 9.18272702,11.2588653 9.28221511,11.3502837 C9.37810244,11.4383935 9.65026791,11.6901686 9.98699321,12.0017768 Z M12.9945582,21.8100466 C13.4578419,22.2572993 13.9188677,22.7111338 14.0596071,22.8783365 L14.4762887,22.0575208 C13.9708788,22.0229154 13.4743033,21.9422006 12.9945582,21.8100466 Z M8.84222452,10.9486446 C8.91203496,10.4733191 8.98109074,10.0284088 8.98109074,10.0052084 C8.86723434,10.392089 8.86723434,10.392089 8.48403905,10.4999948 C8.31843631,10.4751999 8.31843631,10.4751999 8.27842181,10.4524788 C8.25901419,10.4427829 8.25879111,10.4426347 8.26362955,10.4462433 C8.30359546,10.4760505 8.37253111,10.5330368 8.4659451,10.6139397 C8.56513148,10.6998418 8.68921913,10.8102484 8.84222452,10.9486446 Z M15.0664133,21.0908347 C15.0174992,21.4972465 14.9514092,21.9227889 14.8679817,22.3675574 L15.8458644,22.3441382 C15.7551172,21.9622641 15.5070531,21.581125 15.0664133,21.0908347 Z M13.0895839,20.5152785 C12.7892656,20.2188814 12.5064886,19.9390999 12.3746302,19.8036804 C11.7701484,19.1828727 11.2882382,18.6270422 10.8837762,18.060895 C11.2910557,18.6763518 11.8429698,19.307879 12.5692019,20.0236121 C12.5356132,19.990509 12.7643457,20.2052673 13.0895839,20.5152785 Z" id="路径" stroke="#FFFFFF"></path>
                <path d="M15.5071986,21.2119685 C15.2909884,21.3719533 15.0556742,21.5422216 14.7957822,21.727945 L15.5826459,22.0728611 C15.5465676,21.7836156 15.5203703,21.4978606 15.5071986,21.2119685 Z M21.92731,14.6496913 C22.0339561,14.6181013 22.1363018,14.588609 22.2338267,14.5612494 C22.3704067,14.5229333 22.4668903,14.4972761 22.5165256,14.4847118 L21.8958933,14.0453887 C21.9001371,14.0919446 21.9068908,14.1847029 21.9137658,14.3171281 C21.9194426,14.4264756 21.9239883,14.5374218 21.92731,14.6496913 Z M17.7350847,21.4475177 C17.1347675,21.6146058 16.5003637,21.736216 15.8675452,21.809169 L16.1834585,22.7337806 C16.666632,22.4417193 17.1435632,22.0465071 17.7350847,21.4475177 Z" id="路径" stroke="#FFFFFF"></path>
                <path d="M22.8508397,7.41657001 C22.4004426,8.00428775 22.1247399,8.72720486 22.1247399,9.51963327 C22.1247399,11.4633072 23.7295494,13.0373898 25.7068231,13.0373898 C25.9325525,13.0373898 26.1511328,13.0115316 26.3660323,12.9722577 C27.0459812,12.8476935 27.6535182,12.5325989 28.1412183,12.0881439 C28.8438887,11.4453038 29.2897557,10.5372781 29.2897557,9.51956377 C29.2897557,7.57686299 27.6862203,6.00090366 25.7068939,6.00090366 C25.262655,6.00090366 24.8421286,6.09092077 24.4494203,6.23606023 C23.8064913,6.47371924 23.2562891,6.8858515 22.8508397,7.41657001 L22.8508397,7.41657001 Z M25.7068939,7.53508671 C26.8230123,7.53508671 27.7277704,8.42351015 27.7277704,9.51963327 C27.7277704,10.6148527 26.8230123,11.5032067 25.7068939,11.5032067 C24.5907755,11.5032067 23.6860174,10.6148527 23.6860174,9.51963327 C23.6860174,8.42351019 24.5907754,7.53508671 25.7068939,7.53508671 Z M28.3986589,18.5530389 C27.8585079,18.1996437 27.2128185,17.9929172 26.5192792,17.973315 C26.4838165,17.9724809 26.4521054,17.9635139 26.4169258,17.9635139 C24.4385196,17.9635139 22.8337808,19.5385001 22.8337808,21.4821045 C22.8337808,22.2620904 23.1012727,22.9760406 23.5390703,23.5593096 C23.9317786,24.0837025 24.463931,24.4979202 25.0885977,24.7435034 C25.5002053,24.9055342 25.9472755,24.9999305 26.4169966,24.9999305 C28.3951197,24.9999305 30,23.425848 30,21.4821045 C30,20.2589148 29.3634416,19.1834366 28.3986589,18.5530389 L28.3986589,18.5530389 Z M26.4169258,23.4660255 C25.3005951,23.4660255 24.3967571,22.5773935 24.3967571,21.482174 C24.3967571,20.3861204 25.3006658,19.497697 26.4169258,19.497697 C27.5338937,19.497697 28.4386517,20.3861204 28.4386517,21.482174 C28.4386517,22.5773935 27.5338937,23.4660255 26.4169258,23.4660255 Z M6.7535498,23.0874671 C7.00822981,22.6040163 7.16522819,22.0636357 7.16522819,21.482174 C7.16522819,19.7522472 5.89225296,18.3214274 4.21850006,18.0266301 C4.01082047,17.9903453 3.79974329,17.9635834 3.5820832,17.9635834 C3.11710463,17.9635834 2.67555553,18.0570065 2.26748711,18.2154227 C0.940999366,18.7320999 0,19.9964403 0,21.482174 C0,23.425987 1.60381856,25 3.5820832,25 C4.25304249,25 4.87296671,24.8074538 5.40986158,24.4933324 C5.98285615,24.1568979 6.44620668,23.6715007 6.7535498,23.0874671 L6.7535498,23.0874671 Z M3.5820832,23.4660255 C2.46688496,23.4660255 1.56219771,22.5773935 1.56219771,21.482174 C1.56219771,20.3861204 2.466885,19.497697 3.5820832,19.497697 C4.69919258,19.497697 5.60387991,20.3861204 5.60387991,21.482174 C5.60387991,22.5773935 4.69926339,23.4660255 3.5820832,23.4660255 Z M4.61764968,13.035652 C6.59584358,13.035652 8.20065309,11.4614999 8.20065309,9.51761744 C8.20065309,8.82069753 7.98745239,8.17611956 7.63105615,7.62927449 C7.27225325,7.07839774 6.76161917,6.63846095 6.15698425,6.35346475 C5.68825416,6.13367014 5.17068328,6 4.61764968,6 C2.63917268,6 1.03436314,7.5749862 1.03436314,9.51754794 C1.03436314,10.6840859 1.61939096,11.7098636 2.50864741,12.3497843 C3.03365059,12.7275085 3.66539568,12.9590505 4.35277685,13.0096547 C4.4414689,13.0159803 4.52683412,13.035652 4.61764968,13.035652 L4.61764968,13.035652 Z M2.59670244,9.51761744 C2.59670244,8.42163336 3.5016021,7.53404404 4.61772046,7.53404404 C5.73376808,7.53404404 6.6385262,8.42170286 6.6385262,9.51761744 C6.6385262,10.6138796 5.73376812,11.5015384 4.61772046,11.5015384 C3.50160206,11.5015384 2.59670244,10.6139491 2.59670244,9.51761744 Z" id="形状" fill="#FFFFFF"></path>
            </g>
        </g>
    </g>
</svg>