<?xml version="1.0" encoding="UTF-8"?>
<svg width="26px" height="24px" viewBox="0 0 26 24" version="1.1" xmlns="http://www.w3.org/2000/svg" xmlns:xlink="http://www.w3.org/1999/xlink">
    <!-- Generator: Sketch 58 (84663) - https://sketch.com -->
    <title>应急-</title>
    <desc>Created with Sketch.</desc>
    <g id="Page-1" stroke="none" stroke-width="1" fill="none" fill-rule="evenodd">
        <g id="Data--Copy-6" transform="translate(-1245.000000, -991.000000)" fill-rule="nonzero">
            <g id="应急-" transform="translate(1246.000000, 992.000000)">
                <path d="M21.8745626,15.7649367 L18.2470961,9.39877742 C18.0896315,9.15149517 17.80467,9 17.4969981,9 C17.1893263,9 16.9043648,9.15149517 16.7469002,9.39877742 L13.1254374,15.7649367 C12.9628109,16.0166726 12.9579986,16.330905 13.1128494,16.5868962 C13.2677002,16.8428874 13.5581248,17.0008144 13.8725335,17 L21.1274665,17 C21.4418752,17.0008144 21.7322998,16.8428874 21.8871506,16.5868962 C22.0420014,16.330905 22.0371891,16.0166726 21.8745626,15.7649367 Z M17.5329984,11.018384 C17.787704,11.014311 18.0030952,11.1938335 18.0280621,11.4310054 L17.9740639,13.7804214 C17.9740639,14.0083059 17.7765961,14.1930428 17.5330072,14.1930428 C17.2894183,14.1930428 17.0919504,14.0083059 17.0919504,13.7804214 L17.0379435,11.4310054 C17.0642767,11.194486 17.2788373,11.0156559 17.5330072,11.018384 L17.5329984,11.018384 Z M17.5329984,15.5909032 C17.3121316,15.5909032 17.113013,15.4664335 17.0284917,15.2755344 C16.9439705,15.0846353 16.9906918,14.8649015 17.1468695,14.7187951 C17.3030471,14.5726887 17.5379244,14.5289831 17.7419776,14.6080583 C17.9460309,14.6871334 18.0790715,14.8734167 18.0790715,15.080044 C18.0790715,15.3621819 17.8345882,15.5909032 17.5330072,15.5909032 L17.5329984,15.5909032 Z" id="形状" fill="#FFFFFF"></path>
                <path d="M0.574032179,2.19577433 L0.574032179,19.4914527 C0.574032179,20.5960222 1.46946268,21.4914527 2.57403218,21.4914527 L22.2397322,21.4914527 C23.3443017,21.4914527 24.2397322,20.5960222 24.2397322,19.4914527 L24.2397322,6.80241367 C24.2397322,5.69784417 23.3443017,4.80241367 22.2397322,4.80241367 L15.5693989,4.80241367 L15.5693989,4.80241367 L11.5,0.195774331 L2.57403218,0.195774331 C1.46946268,0.195774331 0.574032179,1.09120483 0.574032179,2.19577433 Z" id="路径-120" stroke="#FFFFFF" stroke-width="1.4"></path>
                <path d="M0.392013,4.761297 L15.382867,4.761297" id="路径-121" stroke="#FFFFFF" stroke-width="1.4"></path>
                <polyline id="路径-122" stroke="#FFFFFF" stroke-width="1.4" points="3 10.5 8.46886445 10.5 12.2114402 10.5"></polyline>
                <polyline id="路径-122-copy" stroke="#FFFFFF" stroke-width="1.4" points="3 15.5 8.46886445 15.5 12.2114402 15.5"></polyline>
            </g>
        </g>
    </g>
</svg>