<?xml version="1.0" encoding="UTF-8"?>
<svg width="29px" height="28px" viewBox="0 0 29 28" version="1.1" xmlns="http://www.w3.org/2000/svg" xmlns:xlink="http://www.w3.org/1999/xlink">
    <!-- Generator: Sketch 58 (84663) - https://sketch.com -->
    <title>注册服务</title>
    <desc>Created with Sketch.</desc>
    <g id="Page-1" stroke="none" stroke-width="1" fill="none" fill-rule="evenodd">
        <g id="Data--Copy-6" transform="translate(-1531.000000, -188.000000)" fill-rule="nonzero" stroke="#FFFFFF">
            <g id="注册服务" transform="translate(1532.000000, 189.000000)">
                <circle id="椭圆形" stroke-width="1.4" cx="3.5" cy="3.5" r="3.5"></circle>
                <circle id="椭圆形-copy" stroke-width="1.4" cx="23.5" cy="3.5" r="3.5"></circle>
                <circle id="椭圆形" stroke-width="1.4" cx="3.5" cy="22.5" r="3.5"></circle>
                <circle id="椭圆形-copy" stroke-width="1.4" cx="23.5" cy="22.5" r="3.5"></circle>
                <path d="M3.15099573,9.23505786 L3.15099573,10.8059308 C3.15099573,11.3582156 3.59871098,11.8059308 4.15099573,11.8059308 L6.00229806,11.8059308 L6.00229806,11.8059308" id="路径-14" stroke-width="1.4"></path>
                <path d="M3.2,14.440989 L3.2,16.0118619 C3.2,16.5641467 3.64771525,17.0118619 4.2,17.0118619 L6.05130234,17.0118619 L6.05130234,17.0118619" id="路径-14" stroke-width="1.4" transform="translate(4.625651, 15.726425) scale(1, -1) translate(-4.625651, -15.726425) "></path>
                <path d="M21,14 L21,15.5708729 C21,16.1231577 21.4477153,16.5708729 22,16.5708729 L23.8513023,16.5708729 L23.8513023,16.5708729" id="路径-14" stroke-width="1.4" transform="translate(22.425651, 15.285436) rotate(-180.000000) translate(-22.425651, -15.285436) "></path>
                <path d="M21,9 L21,10.5708729 C21,11.1231577 21.4477153,11.5708729 22,11.5708729 L23.8513023,11.5708729 L23.8513023,11.5708729" id="路径-14" stroke-width="1.4" transform="translate(22.425651, 10.285436) scale(1, -1) rotate(-180.000000) translate(-22.425651, -10.285436) "></path>
                <path d="M9.81751352,19.1842073 L9.81751352,20.7550803 C9.81751352,21.307365 10.2652288,21.7550803 10.8175135,21.7550803 L12.6688159,21.7550803 L12.6688159,21.7550803" id="路径-14" stroke-width="1.4" transform="translate(11.243165, 20.469644) rotate(-88.000000) translate(-11.243165, -20.469644) "></path>
                <path d="M14.8175135,19.1842073 L14.8175135,20.7550803 C14.8175135,21.307365 15.2652288,21.7550803 15.8175135,21.7550803 L17.6688159,21.7550803 L17.6688159,21.7550803" id="路径-14" stroke-width="1.4" transform="translate(16.243165, 20.469644) scale(1, -1) rotate(-268.000000) translate(-16.243165, -20.469644) "></path>
                <path d="M10.5,9.5208982 L9.29916666,9.5208982 C8.74688191,9.5208982 8.29916666,9.96861345 8.29916666,10.5208982 L8.29916666,14.4678238 C8.29916666,15.0201086 8.74688191,15.4678238 9.29916666,15.4678238 L17.321863,15.4678238 C17.8741478,15.4678238 18.321863,15.0201086 18.321863,14.4678238 L18.321863,10.5208982 C18.321863,9.96861345 17.8741478,9.5208982 17.321863,9.5208982 L16.4004509,9.5208982 L16.4004509,9.5208982" id="路径-15" stroke-width="2.4"></path>
                <path d="M13.5,10.4048959 C14.3681028,10.4048959 17,4.56489378 17,3.5 C17,1.56700338 15.4329966,-1.8562929e-13 13.5,-1.8562929e-13 C11.5670034,-1.8562929e-13 10,1.56700338 10,3.5 C10,4.50943974 12.5764431,10.4048959 13.5,10.4048959 Z" id="椭圆形" stroke-width="1.4"></path>
            </g>
        </g>
    </g>
</svg>