<?xml version="1.0" encoding="UTF-8"?>
<svg width="28px" height="24px" viewBox="0 0 28 24" version="1.1" xmlns="http://www.w3.org/2000/svg" xmlns:xlink="http://www.w3.org/1999/xlink">
    <!-- Generator: Sketch 58 (84663) - https://sketch.com -->
    <title>热成像</title>
    <desc>Created with Sketch.</desc>
    <g id="Page-1" stroke="none" stroke-width="1" fill="none" fill-rule="evenodd">
        <g id="Data--Copy-6" transform="translate(-658.000000, -991.000000)" fill="#FFFFFF" fill-rule="nonzero" stroke="#FFFFFF" stroke-width="0.2">
            <g id="热成像" transform="translate(659.000000, 992.000000)">
                <path d="M21.9135142,0 L4.07498827,0 C2.23539028,0 1.65006365,0.594617539 1.65006365,2.39705193 L1.65006365,16.7979453 C1.65006365,18.5464925 2.23539028,19.2191536 4.07870464,19.2191536 L21.9153724,19.2191536 C23.719665,19.2191536 24.3681697,18.8363685 24.3681697,16.7979453 L24.3681697,2.39705193 C24.3681697,0.832464538 23.8683194,0 21.9153724,0 L21.9135142,0 Z M23.1343384,17.2476248 C23.1223721,17.6991718 22.7554116,18.0603857 22.303732,18.0652239 L3.62159241,18.0652239 C3.17513266,18.0581202 2.81700055,17.6941411 2.81700055,17.2476248 L2.81700055,1.94737241 C2.81700055,1.50512563 3.17377107,1.15381829 3.62159241,1.15381829 L22.303732,1.15381829 C22.7510511,1.14661872 23.1211801,1.50018715 23.1343384,1.94737241 L23.1343384,17.2476248 L23.1343384,17.2476248 Z M25.3084087,21.0141552 L0.616915697,21.0141552 C0.169094375,21.0141552 0,21.2965986 0,21.6477945 C0,22.0008487 0.161661642,22.2944411 0.616915697,22.2944411 L25.3084087,22.2944411 C25.7543719,22.2944411 25.9903607,22.0064232 25.9903607,21.6552273 C25.9903607,21.3021731 25.75623,21.0141552 25.3084087,21.0141552 Z M20.9844243,11.5894673 L16.123426,3.58071244 C15.9761943,3.33780801 15.7125076,3.18974861 15.4284668,3.19049469 L10.593483,3.19049469 C10.26408,3.17902448 9.9597278,3.36558652 9.82048019,3.66433053 C9.56033501,4.12515913 7.16514128,8.04591847 5.00407818,11.5708855 C4.80928191,11.8864327 4.85780364,12.2946314 5.1211435,12.5557208 C7.21714467,14.6241584 10.0439098,15.7831722 12.9886767,15.7815227 C15.9431826,15.7815227 18.7713322,14.6220168 20.8562099,12.5594372 C21.126962,12.3108919 21.1816715,11.9044788 20.9862825,11.5931837 L20.9844243,11.5894673 Z M12.9942513,14.5049514 C10.6640938,14.5049514 7.94557677,13.4922434 6.21189502,11.9871178 C6.65971635,11.2494204 10.5228721,4.55439866 10.645512,4.34999888 L15.3578559,4.34999888 L19.7784657,11.9871178 C18.0447839,13.4866689 15.3244087,14.5049514 12.9961094,14.5049514 L12.9942513,14.5049514 Z M12.9942513,9.46928421 C13.8192831,9.46928421 14.6108677,9.1478191 15.1887616,8.57178337 C15.3968777,8.37295812 15.4804958,8.2001474 15.409885,7.9251368 C15.337416,7.64269347 15.1125762,7.50147181 14.8319911,7.41971189 C14.5588386,7.3360938 14.2485226,7.48846454 14.045981,7.70029703 C13.4633006,8.269658 12.5326347,8.269658 11.9499542,7.70029703 C11.7492708,7.49589725 11.4631111,7.34166834 11.1639442,7.41971189 C10.87221,7.49403908 10.6585193,7.64269347 10.5879084,7.9251368 C10.5135812,8.20758014 10.593483,8.37295812 10.8071737,8.57178337 C11.379493,9.1478191 12.1710776,9.46928421 12.9942513,9.46928421 L12.9942513,9.46928421 Z M16.8109525,11.110057 C17.0004869,10.8777845 17.0896795,10.6919665 17.0339341,10.4615522 C16.9596069,10.1809671 16.7403417,9.93754551 16.454182,9.891091 C16.1810296,9.84649469 15.8707136,10.0267381 15.6700302,10.2385706 C14.1860668,11.6925507 11.8117266,11.6925507 10.3277633,10.2385706 C10.1252217,10.0341709 9.82605473,9.85950196 9.54175322,9.891091 C9.25559354,9.92453824 9.04747739,10.1865416 8.96571747,10.4615522 C8.898823,10.6733847 8.97129201,10.9112317 9.1849827,11.110057 C11.3032918,13.1856219 14.6926435,13.1856219 16.8109525,11.110057 L16.8109525,11.110057 Z" id="形状"></path>
            </g>
        </g>
    </g>
</svg>