<?xml version="1.0" encoding="UTF-8"?>
<svg width="27px" height="25px" viewBox="0 0 27 25" version="1.1" xmlns="http://www.w3.org/2000/svg" xmlns:xlink="http://www.w3.org/1999/xlink">
    <!-- Generator: Sketch 58 (84663) - https://sketch.com -->
    <title>监控</title>
    <desc>Created with Sketch.</desc>
    <g id="Page-1" stroke="none" stroke-width="1" fill="none" fill-rule="evenodd">
        <g id="Data--Copy-6" transform="translate(-659.000000, -923.000000)" fill="#FFFFFF">
            <g id="监控" transform="translate(672.500000, 935.500000) scale(-1, 1) translate(-672.500000, -935.500000) translate(659.000000, 923.000000)">
                <path d="M3.70234836,16 C3.53560993,16.000192 3.37334267,15.9411926 3.24005779,15.8319134 L0.308154295,13.4336109 C0.104164437,13.2667061 -0.0109055732,13.0005221 0.000816580095,12.7226664 C0.0125387334,12.4448107 0.14953446,12.1912791 0.366715164,12.0455152 L17.7212008,0.401560198 L17.7246037,0.399538067 C18.8427764,-0.341930808 20.2953458,-0.0246025484 21.0654937,1.12938875 C21.0722741,1.13947171 21.0787499,1.14955466 21.0849208,1.15999772 L23.8716665,5.74549767 C23.9871084,5.93541342 24.0269033,6.16832062 23.9819319,6.39084712 C23.9369605,6.61337363 23.811078,6.80644315 23.6331313,6.9258126 L13.3311926,13.8346576 C13.00969,14.0529969 12.5900709,13.9814807 12.3449524,13.6665715 C11.9850828,13.2488825 11.5595096,12.9049109 11.0884078,12.6509633 C10.1588746,12.1591423 9.24168344,12.1951251 8.36299106,12.7575545 C5.72937723,14.4428204 4.20689621,15.7952657 4.19178619,15.8087281 C4.05389048,15.9324071 3.88089971,16 3.70237376,16 L3.70234836,16 Z M2.13857508,12.8284676 L3.69467907,14.101939 C4.3573108,13.557321 5.68597717,12.5218793 7.58265351,11.3079361 C8.93348972,10.4435998 10.3977654,10.3955396 11.8170157,11.1691016 C12.2543657,11.4106234 12.6627359,11.7100633 13.0328775,12.0606396 L22.1469905,5.94854175 L19.8114632,2.10430506 C19.5084208,1.67086038 18.9551565,1.5550572 18.5265524,1.83536168 L2.13857508,12.8284676 Z" id="形状" fill-rule="nonzero"></path>
                <path d="M10.290176,20 C10.0182228,20 9.76448154,19.8497659 9.61480863,19.6002279 L7.13364398,15.4661886 C6.97450011,15.2009444 6.95620499,14.8625418 7.08565022,14.5784537 C7.21509545,14.2943656 7.47261522,14.1077519 7.76120431,14.088908 C8.0497934,14.0700641 8.32560827,14.221853 8.48475212,14.4870972 L10.5196271,17.8792646 L23.0819197,8.77466092 L22.2861605,7.39547565 C22.116922,7.12705153 22.0952018,6.77826904 22.2295863,6.48700824 C22.3639707,6.19574744 22.6328284,6.0088917 22.9298749,6.00030848 C23.2269214,5.99172527 23.5043421,6.16279619 23.6524676,6.44589382 L24.8740912,8.56308269 C25.110398,8.97256106 25.0045856,9.51461227 24.6362407,9.78153297 L10.7348125,19.8538287 C10.6028348,19.949381 10.448219,20.0002098 10.290176,20 Z" id="路径"></path>
                <path d="M8.02932075,21 C7.76138829,20.9999454 7.51380656,20.8324984 7.37973436,20.5606652 L6.10067024,17.9668279 C5.89343888,17.5462374 6.01640727,17.0084224 6.37532784,16.7655844 C6.73424841,16.5227464 7.19320524,16.6668433 7.40043664,17.0874337 L8.29167322,18.8947407 L9.4146417,18.0772557 C9.76668439,17.8209157 10.2294063,17.9475333 10.44816,18.3600641 C10.6669137,18.7725949 10.5588617,19.314822 10.206819,19.5711621 L8.42555782,20.8680952 C8.30656125,20.9545022 8.1693113,21.0001818 8.02932075,21 L8.02932075,21 Z M18.3389293,20.2366855 C17.2625996,20.2366855 16.2922579,19.4768992 15.8803921,18.3116287 C15.4685263,17.1463582 15.6962506,15.8050956 16.4573731,14.9132962 C17.2184955,14.0214969 18.3631182,13.7547944 19.3574826,14.2375572 C20.3518471,14.7203199 21.0001201,15.857471 21,17.1187361 C20.9981736,18.8399805 19.807793,20.2347373 18.3389293,20.2366855 L18.3389293,20.2366855 Z M18.3389293,15.7591982 C17.6981724,15.7591982 17.1787363,16.3678841 17.1787363,17.1187361 C17.1787363,17.8695882 17.6981724,18.4782741 18.3389293,18.4782741 C18.9796862,18.4782741 19.4991223,17.8695882 19.4991223,17.1187361 C19.4984679,16.3682019 18.9794149,15.759965 18.3389293,15.7591982 Z" id="形状" fill-rule="nonzero"></path>
                <path d="M18.0000243,16.5 C17.9975256,16.6782171 18.1875715,16.8434299 18.4979917,16.9328985 C18.8084119,17.0223672 19.1915881,17.0223672 19.5020083,16.9328985 C19.8124285,16.8434299 20.0024744,16.6782171 19.9999757,16.5 C20.0024744,16.3217829 19.8124285,16.1565701 19.5020083,16.0671015 C19.1915881,15.9776328 18.8084119,15.9776328 18.4979917,16.0671015 C18.1875715,16.1565701 17.9975256,16.3217829 18.0000243,16.5 L18.0000243,16.5 Z" id="路径"></path>
                <path d="M26.2234272,22 L19.8072313,22 C18.2571885,21.9981754 17.001199,20.655786 17,18.9996582 C17,18.9282814 17.0028155,18.8532947 17.0090097,18.7699944 C17.0274268,18.5126658 17.1568661,18.279146 17.359211,18.1382004 C17.5615558,17.9972549 17.8137634,17.9649345 18.0415648,18.0507568 C18.4075365,18.1886488 18.8133233,18.1289928 19.1308387,17.8906194 C19.4483541,17.652246 19.6384187,17.2645689 19.6410386,16.8499583 L19.6410386,16.8297212 C19.6410386,16.3714788 19.9887221,16 20.4176114,16 L26.2234272,16 C26.6523165,16 27,16.3714788 27,16.8297212 L27,21.1702515 C27,21.3903119 26.9181925,21.6013618 26.7725561,21.7569706 C26.6269198,21.9125794 26.4293916,22 26.2234272,22 L26.2234272,22 Z M18.7759047,19.7630071 C19.009987,20.1249549 19.3954609,20.3410582 19.8072313,20.3411866 L25.4468288,20.3411866 L25.4468288,17.6604542 L21.0858121,17.6604542 C20.7776556,18.7910963 19.8696433,19.6175986 18.7759047,19.7630071 L18.7759047,19.7630071 Z" id="形状" fill-rule="nonzero"></path>
                <path d="M26,25 C25.7347835,25 25.4804296,24.9089862 25.2928932,24.7469806 C25.1053568,24.5849749 25,24.3652481 25,24.1361376 L25,13.8638624 C25,13.3867644 25.4477153,13 26,13 C26.5522847,13 27,13.3867644 27,13.8638624 L27,24.1361376 C27,24.6132356 26.5522847,25 26,25 L26,25 Z" id="路径"></path>
            </g>
        </g>
    </g>
</svg>