<?xml version="1.0" encoding="UTF-8"?>
<svg width="27px" height="22px" viewBox="0 0 27 22" version="1.1" xmlns="http://www.w3.org/2000/svg" xmlns:xlink="http://www.w3.org/1999/xlink">
    <!-- Generator: Sketch 58 (84663) - https://sketch.com -->
    <title>应急5</title>
    <desc>Created with Sketch.</desc>
    <g id="Page-1" stroke="none" stroke-width="1" fill="none" fill-rule="evenodd">
        <g id="Data--Copy-6" transform="translate(-1245.000000, -858.000000)" fill="#FFFFFF" fill-rule="nonzero">
            <g id="应急5" transform="translate(1245.000000, 857.187804)">
                <path d="M21.1524064,22.8121961 C18.4090909,22.8121961 16.2433155,20.5388627 16.2433155,17.7521961 C16.2433155,14.9655294 18.4090909,12.6921961 21.1524064,12.6921961 C23.8957219,12.6921961 26.0614973,14.9655294 26.0614973,17.7521961 C26.0614973,20.5388627 23.8957219,22.8121961 21.1524064,22.8121961 Z M22.6684492,17.7521961 L21.1524064,17.7521961 L21.1524064,16.2121961 C21.1524064,15.0388627 19.9251337,15.0388627 19.9251337,16.2121961 L19.9251337,18.8521961 C19.9251337,18.9255294 19.9973262,18.9988627 20.0695187,19.0721961 L22.6684492,19.0721961 C23.7513369,18.9988627 23.7513369,17.7521961 22.6684492,17.7521961 L22.6684492,17.7521961 Z M23.1737968,11.2255294 L22.5962567,11.2255294 C22.3074866,11.2255294 22.0187166,11.2255294 21.7299465,11.2988627 L21.2245989,11.2988627 L21.2245989,10.7855294 C21.0802139,6.53219607 17.9037433,3.23219607 13.7165775,3.23219607 C9.45721925,3.23219607 6.20855615,6.53219607 6.20855615,11.0055294 C6.20855615,15.4055294 9.45721925,18.7788627 13.7165775,18.7788627 C14.0053476,18.7788627 14.3663102,18.7788627 14.7272727,18.7055294 L15.3048128,18.6321961 L15.2326203,19.2188627 C15.1604278,19.5121961 15.1604278,19.8055294 15.1604278,20.0988627 L15.3048128,21.1988627 L14.8716578,21.2721961 C14.5106952,21.3455294 14.1497326,21.3455294 13.7165775,21.3455294 C8.22994652,21.3455294 3.82620321,16.7255294 3.82620321,11.0788627 C3.82620321,5.43219607 8.30213904,0.812196073 13.7165775,0.812196073 C16.315508,0.812196073 18.842246,1.83886274 20.7192513,3.74552941 C22.5240642,5.65219607 23.6069519,8.14552941 23.6791444,10.7855294 L23.6791444,11.2988627 L23.1737968,11.2255294 L23.1737968,11.2255294 Z M5.34224599,3.52552941 C3.17647059,5.65219607 2.23796791,7.99886274 2.23796791,11.0788627 C2.23796791,14.0121961 3.32085561,16.7255294 5.34224599,18.7788627 L5.63101604,19.0721961 L5.34224599,19.3655294 C5.19786096,19.5121961 5.05347594,19.6588627 4.90909091,19.8788627 L4.47593583,20.3188627 L4.18716578,20.6855294 L3.7540107,20.2455294 C3.68181818,20.1721961 3.68181818,20.1721961 3.60962567,20.1721961 C1.29946524,17.7521961 0,14.5255294 0,11.1521961 C0,7.70552941 1.29946524,4.55219607 3.60962567,2.13219607 L3.68181818,2.05886274 L3.97058824,1.76552941 L4.25935829,1.98552941 C4.3315508,2.05886274 4.40374332,2.05886274 4.47593583,2.13219607 L4.54812834,2.20552941 C4.69251337,2.27886274 4.8368984,2.42552941 4.98128342,2.57219607 C5.12566845,2.71886274 5.19786096,2.79219607 5.34224599,2.86552941 L5.70320856,3.15886274 L5.34224599,3.52552941 Z M27,11.8121961 L26.9278075,12.6921961 L26.2058824,12.1788627 C25.7727273,11.9588627 25.4117647,11.7388627 25.0508021,11.6655294 L24.7620321,11.5921961 L24.7620321,11.1521961 C24.7620321,8.21886274 23.6791444,5.65219607 21.657754,3.59886274 L21.2967914,3.23219607 L21.657754,2.86552941 C21.9465241,2.64552941 22.3796791,2.27886274 22.6684492,1.98552941 L22.9572193,1.69219607 L23.3181818,2.05886274 C25.6283422,4.47886274 26.9278075,7.70552941 26.9278075,11.1521961 C27,11.2255294 27,11.5188627 27,11.8121961 Z M15.1604278,8.07219607 C14.9438503,9.53886274 14.6550802,10.8588627 14.4385027,12.1055294 C14.3663102,12.3988627 14.2941176,12.6921961 14.2941176,12.9855294 L13.9331551,14.8188627 C14.3663102,14.8921961 14.7272727,15.0388627 15.0160428,15.3321961 C15.3048128,15.6988627 15.4491979,16.1388627 15.4491979,16.5788627 C15.4491979,17.0921961 15.3048128,17.4588627 15.0160428,17.7521961 C14.7272727,18.1188627 14.2941176,18.2655294 13.7887701,18.2655294 C13.2834225,18.2655294 12.8502674,18.0455294 12.4893048,17.6788627 C12.2005348,17.3121961 11.9839572,16.8721961 11.9839572,16.4321961 C11.9839572,15.9188627 12.2005348,15.5521961 12.4893048,15.2588627 C12.7780749,14.8921961 13.1390374,14.7455294 13.5721925,14.6721961 L13.2834225,13.4255294 C13.2112299,12.9855294 13.0668449,12.5455294 12.9946524,12.0321961 C12.7780749,11.0788627 12.5614973,9.83219607 12.2727273,8.21886274 C11.9117647,6.09219607 11.8395722,5.57886274 11.8395722,5.43219607 C11.8395722,4.99219607 12.1283422,4.47886274 12.4171123,4.25886274 C12.6336898,4.03886274 13.1390374,3.81886274 13.644385,3.81886274 L13.7165775,3.81886274 C14.2941176,3.81886274 14.6550802,4.11219607 14.9438503,4.33219607 C15.3048128,4.62552941 15.5213904,5.06552941 15.5213904,5.43219607 C15.5213904,5.50552941 15.5213904,5.87219607 15.1604278,8.07219607 Z" id="形状"></path>
            </g>
        </g>
    </g>
</svg>