<?xml version="1.0" encoding="UTF-8"?>
<svg width="27px" height="23px" viewBox="0 0 27 23" version="1.1" xmlns="http://www.w3.org/2000/svg" xmlns:xlink="http://www.w3.org/1999/xlink">
    <!-- Generator: Sketch 58 (84663) - https://sketch.com -->
    <title>ico_医生工作站_预检总检测试</title>
    <desc>Created with Sketch.</desc>
    <g id="Page-1" stroke="none" stroke-width="1" fill="none" fill-rule="evenodd">
        <g id="Data--Copy-6" transform="translate(-49.000000, -186.000000)" fill="#FFFFFF" stroke="#FFFFFF" stroke-width="0.3">
            <g id="ico_医生工作站_预检总检测试" transform="translate(50.000000, 187.000000)">
                <path d="M23.2142857,1.3125 C23.4608414,1.3125 23.6607143,1.50837542 23.6607143,1.75 L23.6607143,19.25 C23.6607143,19.4916246 23.4608414,19.6875 23.2142857,19.6875 L1.78571429,19.6875 C1.53915859,19.6875 1.33928571,19.4916246 1.33928571,19.25 L1.33928571,1.75 C1.33928571,1.50837542 1.53915859,1.3125 1.78571429,1.3125 L23.2142857,1.3125 Z M23.2142857,0 L1.78571429,0 C0.799491518,0 0,0.783501688 0,1.75 L0,19.25 C0,20.2164983 0.799491518,21 1.78571429,21 L23.2142857,21 C24.2005085,21 25,20.2164983 25,19.25 L25,1.75 C25,0.783501688 24.2005085,0 23.2142857,0 Z" id="形状" fill-rule="nonzero"></path>
                <path d="M25,6.63636364 L0,6.63636364 L0,8 L25,8 L25,6.63636364 Z M4.01785714,3 C3.52474576,3 3.125,3.40701386 3.125,3.90909091 C3.125,4.41116795 3.52474576,4.81818182 4.01785714,4.81818182 C4.51096853,4.81818182 4.91071429,4.41116795 4.91071429,3.90909091 C4.91071429,3.40701386 4.51096853,3 4.01785714,3 Z M6.69642857,3 C6.20331719,3 5.80357143,3.40701386 5.80357143,3.90909091 C5.80357143,4.41116795 6.20331719,4.81818182 6.69642857,4.81818182 C7.18953996,4.81818182 7.58928571,4.41116795 7.58928571,3.90909091 C7.58928571,3.40701386 7.18953996,3 6.69642857,3 Z M9.375,3 C8.88188862,3 8.48214286,3.40701386 8.48214286,3.90909091 C8.48214286,4.41116795 8.88188862,4.81818182 9.375,4.81818182 C9.86811138,4.81818182 10.2678571,4.41116795 10.2678571,3.90909091 C10.2678571,3.40701386 9.86811138,3 9.375,3 Z" id="形状" fill-rule="nonzero"></path>
                <path d="M13,18.9997002 C12.7920983,19.0071261 12.6060298,18.8759074 12.55,18.6823525 L10.21,10.7790901 L8.9005,13.9438729 C8.83479665,14.1036335 8.67781117,14.2109855 8.5,14.2177483 L4.45,14.2177483 C4.20147186,14.2177483 4,14.0231162 4,13.7830254 C4,13.5429346 4.20147186,13.3483025 4.45,13.3483025 L8.194,13.3483025 L9.8815,9.27494888 C9.95363228,9.09862888 10.1357283,8.98780303 10.3315,9.00107345 C10.5243481,9.01100942 10.6891311,9.13871025 10.741,9.31842117 L12.901,16.6521965 L13.45,13.7047753 C13.4895853,13.4956333 13.6799483,13.344835 13.9,13.3483025 L21.55,13.3483025 C21.7985281,13.3483025 22,13.5429346 22,13.7830254 C22,14.0231162 21.7985281,14.2177483 21.55,14.2177483 L14.2735,14.2177483 L13.45,18.6432274 C13.412787,18.8413403 13.2396206,18.9888411 13.0315,18.9997002 L13,18.9997002 Z" id="路径"></path>
            </g>
        </g>
    </g>
</svg>