<?xml version="1.0" encoding="UTF-8"?>
<svg width="28px" height="29px" viewBox="0 0 28 29" version="1.1" xmlns="http://www.w3.org/2000/svg" xmlns:xlink="http://www.w3.org/1999/xlink">
    <!-- Generator: Sketch 58 (84663) - https://sketch.com -->
    <title>特种设备</title>
    <desc>Created with Sketch.</desc>
    <g id="Page-1" stroke="none" stroke-width="1" fill="none" fill-rule="evenodd">
        <g id="Data--Copy-6" transform="translate(-912.000000, -385.000000)" fill="#FFFFFF" fill-rule="nonzero" stroke="#FFFFFF" stroke-width="0.3">
            <g id="特种设备" transform="translate(913.000000, 386.000000)">
                <path d="M25.5910596,21.4632353 C25.8062914,21.4632353 26,21.2867647 26,21.0441176 L26,18.4191176 C26,18.1985294 25.8278146,18 25.5910596,18 L0.408940397,18 C0.193708609,18 0,18.1764706 0,18.4191176 L0,21.0441176 C0,21.2647059 0.17218543,21.4632353 0.408940397,21.4632353 L2.77649007,21.4632353 L2.77649007,23.5367647 L0.408940397,23.5367647 C0.193708609,23.5367647 0,23.7132353 0,23.9558824 L0,26.5808824 C0,26.8014706 0.17218543,27 0.408940397,27 L25.5695364,27 C25.7847682,27 25.9784768,26.8235294 25.9784768,26.5808824 L25.9784768,23.9558824 C25.9784768,23.7352941 25.8062914,23.5367647 25.5695364,23.5367647 L23.2019868,23.5367647 L23.2019868,21.4411765 L25.5910596,21.4411765 L25.5910596,21.4632353 Z M24.6655629,24.4852941 C24.8807947,24.4852941 25.0745033,24.6617647 25.0745033,24.9044118 L25.0745033,25.6544118 C25.0745033,25.875 24.9023179,26.0735294 24.6655629,26.0735294 L1.33443709,26.0735294 C1.1192053,26.0735294 0.925496689,25.8970588 0.925496689,25.6544118 L0.925496689,24.9044118 C0.925496689,24.6838235 1.09768212,24.4852941 1.33443709,24.4852941 L3.70198675,24.4852941 L3.70198675,20.5147059 L1.33443709,20.5147059 C1.1192053,20.5147059 0.925496689,20.3382353 0.925496689,20.0955882 L0.925496689,19.3455882 C0.925496689,19.125 1.09768212,18.9264706 1.33443709,18.9264706 L24.6655629,18.9264706 C24.8807947,18.9264706 25.0745033,19.1029412 25.0745033,19.3455882 L25.0745033,20.0955882 C25.0745033,20.3161765 24.9023179,20.5147059 24.6655629,20.5147059 L22.2980132,20.5147059 L22.2980132,24.4852941 L24.6655629,24.4852941 Z" id="形状"></path>
                <path d="M14.0023256,14.9778434 C16.2418605,14.7119645 18,12.6957164 18,10.2363368 C18,8.2422452 16.8069767,6.44756278 15.0697674,5.76070901 L15.0697674,4.85228951 L16.4511628,3.8774003 C16.5976744,3.788774 16.6813953,3.61152142 16.6813953,3.43426883 L16.6813953,0.531757755 C16.6813953,0.243722304 16.4511628,0 16.1790698,0 L10.8418605,0 C10.5697674,0 10.3395349,0.243722304 10.3395349,0.531757755 L10.3395349,3.47858198 C10.3395349,3.65583456 10.4232558,3.83308715 10.5697674,3.92171344 L11.9511628,4.89660266 L11.9511628,8.5745938 C11.9511628,8.86262925 12.1813953,9.10635155 12.4534884,9.10635155 C12.8511628,9.10635155 13.4790698,9.08419498 13.5209302,9.08419498 C14.3372093,9.08419498 14.6302326,9.70457903 14.6302326,10.2584934 C14.6302326,10.7016248 14.3790698,11.1004431 14.0232558,11.2998523 L13.0186047,11.2998523 C12.6627907,11.1004431 12.4116279,10.7237814 12.4116279,10.2584934 C12.4116279,9.9704579 12.1813953,9.7267356 11.9093023,9.7267356 L9.50232558,9.7267356 C9.23023256,9.7267356 9,9.9704579 9,10.2584934 C9,12.6957164 10.7581395,14.7341211 12.9976744,15 L14.0023256,14.9778434 Z M11.3232558,3.19054653 L11.3232558,1.06351551 L15.655814,1.06351551 L15.655814,3.19054653 L14.4,4.07680945 L12.5581395,4.07680945 L11.3232558,3.19054653 Z M14.0023256,12.4076809 C14.9232558,12.1639586 15.5930233,11.2776957 15.5930233,10.2363368 C15.5930233,9.12850812 14.8604651,8.02067947 13.5,8.02067947 L12.9348837,8.02067947 L12.9348837,5.14032496 L14.0651163,5.14032496 L14.0651163,6.1816839 C14.0651163,6.4254062 14.2116279,6.62481536 14.4418605,6.69128508 C15.9488372,7.13441654 16.9953488,8.59675037 16.9953488,10.2584934 C16.9953488,12.1196455 15.6976744,13.6706056 14.0023256,13.9364845 L14.0023256,12.4076809 L14.0023256,12.4076809 Z M12.9976744,13.9143279 C11.4697674,13.6706056 10.255814,12.3855244 10.0255814,10.7680945 L11.4488372,10.7680945 C11.6372093,11.5657312 12.2232558,12.2082718 12.9976744,12.4076809 L12.9976744,13.9143279 L12.9976744,13.9143279 Z" id="形状"></path>
                <path d="M20.9783617,18.3620474 L14.5301391,15.5393258 L14.5301391,10.5305868 C14.5301391,10.2334582 14.2921175,10 13.9891808,10 C13.6862442,10 13.4482226,10.2334582 13.4482226,10.5305868 L13.4482226,15.5393258 L7,18.3620474 L20.9783617,18.3620474 Z M9.2503864,18.3620474 L13.9891808,16.4519351 L18.7279753,18.3620474 L9.2503864,18.3620474 Z M7,18.3620474 L8.08191654,18.3620474 L8.08191654,27 L7,27 L7,18.3620474 Z M19.9180835,18.3620474 L21,18.3620474 L21,27 L19.9180835,27 L19.9180835,18.3620474 Z" id="形状"></path>
                <path d="M9,23.1011236 L19,23.1011236 L19,24 L9,24 L9,23.1011236 Z M9,20 L19,20 L19,20.8988764 L9,20.8988764 L9,20 Z" id="形状"></path>
            </g>
        </g>
    </g>
</svg>