<?xml version="1.0" encoding="UTF-8"?>
<svg width="29px" height="20px" viewBox="0 0 29 20" version="1.1" xmlns="http://www.w3.org/2000/svg" xmlns:xlink="http://www.w3.org/1999/xlink">
    <!-- Generator: Sketch 58 (84663) - https://sketch.com -->
    <title>摆渡车；接驳车；巴士；公交车；机场大巴</title>
    <desc>Created with Sketch.</desc>
    <g id="Page-1" stroke="none" stroke-width="1" fill="none" fill-rule="evenodd">
        <g id="Data--Copy-6" transform="translate(-1244.000000, -458.000000)" fill="#FFFFFF" fill-rule="nonzero">
            <g id="摆渡车；接驳车；巴士；公交车；机场大巴" transform="translate(1244.000000, 458.000000)">
                <path d="M10.8759063,7.72727273 L10.8759063,1.81818182 L1.8125,1.81818182 L1.8125,7.72727273 L5.452,7.72727273 L5.452,1.81818182 L7.2645,1.81818182 L7.2645,7.72727273 L10.8759063,7.72727273 Z M12.6884063,7.72727273 L16.5041719,7.72727273 C16.3768207,7.35043858 16.3120673,6.95517215 16.3125,6.55727273 L16.3125,1.81818182 L12.6884063,1.81818182 L12.6884063,7.72727273 L12.6884063,7.72727273 Z M1.8125,9.54545455 L1.8125,14.5454545 L3.20359375,14.5454545 C3.85107758,13.4199009 5.04829623,12.7266993 6.34375,12.7272727 C7.63920377,12.7266993 8.83642242,13.4199009 9.48390625,14.5454545 L18.6098437,14.5454545 C19.2573276,13.4199009 20.4545462,12.7266993 21.75,12.7272727 C23.0454538,12.7266993 24.2426724,13.4199009 24.8901562,14.5454545 L27.1875,14.5454545 L27.1875,3.63636364 C27.1875,2.63220955 26.3760161,1.81818182 25.375,1.81818182 L18.125,1.81818182 L18.125,6.55727273 C18.125,7.56142682 18.9364839,8.37545455 19.9375,8.37545455 L27.1875,8.37545455 L27.1875,10.1936364 L19.9375,10.1936364 C19.1988475,10.1948263 18.4776257,9.96857934 17.87125,9.54545455 L1.8125,9.54545455 Z M18.125,16.3636364 L9.96875,16.3636364 C9.96875,18.3719445 8.34578222,20 6.34375,20 C4.34171778,20 2.71875,18.3719445 2.71875,16.3636364 L1.8125,16.3636364 C0.811483891,16.3636364 0,15.5496086 0,14.5454545 L0,1.81818182 C0,0.814027728 0.811483891,0 1.8125,0 L25.375,0 C27.3770322,0 29,1.62805546 29,3.63636364 L29,14.5454545 C29,15.5496086 28.1885161,16.3636364 27.1875,16.3636364 L25.375,16.3636364 C25.375,18.3719445 23.7520322,20 21.75,20 C19.7479678,20 18.125,18.3719445 18.125,16.3636364 Z M6.34375,18.1818182 C7.34476611,18.1818182 8.15625,17.3677905 8.15625,16.3636364 C8.15625,15.3594823 7.34476611,14.5454545 6.34375,14.5454545 C5.34273389,14.5454545 4.53125,15.3594823 4.53125,16.3636364 C4.53125,17.3677905 5.34273389,18.1818182 6.34375,18.1818182 Z M21.75,18.1818182 C22.7510161,18.1818182 23.5625,17.3677905 23.5625,16.3636364 C23.5625,15.3594823 22.7510161,14.5454545 21.75,14.5454545 C20.7489839,14.5454545 19.9375,15.3594823 19.9375,16.3636364 C19.9375,17.3677905 20.7489839,18.1818182 21.75,18.1818182 Z" id="形状"></path>
            </g>
        </g>
    </g>
</svg>