<?xml version="1.0" encoding="UTF-8"?>
<svg width="26px" height="27px" viewBox="0 0 26 27" version="1.1" xmlns="http://www.w3.org/2000/svg" xmlns:xlink="http://www.w3.org/1999/xlink">
    <!-- Generator: Sketch 58 (84663) - https://sketch.com -->
    <title>齿轮-</title>
    <desc>Created with Sketch.</desc>
    <g id="Page-1" stroke="none" stroke-width="1" fill="none" fill-rule="evenodd">
        <g id="Data--Copy-6" transform="translate(-329.000000, -653.000000)" fill-rule="nonzero" stroke="#FFFFFF">
            <g id="齿轮-" transform="translate(330.000000, 654.000000)">
                <path d="M18.6478037,25 L17.404077,25 C17.1669627,25 17.0983547,25 16.4525785,23.3690871 L16.0215725,23.1903421 C14.6940584,23.8049279 14.5342789,23.8049279 14.46589,23.8049279 C14.378075,23.8049279 14.2795331,23.7661978 14.2175831,23.7030404 L13.3379395,22.82418 C13.1628574,22.6480517 13.1177169,22.6027455 13.8153875,20.9880946 L13.6416891,20.5695296 C12,19.9697399 12,19.8974309 12,19.647418 L12,18.4037792 C12,18.155013 12,18.0912939 13.6358804,17.4454172 L13.8096062,17.0255918 C13.0733025,15.4415469 13.1239366,15.3905963 13.3008133,15.2131117 L14.1817173,14.3346074 C14.243544,14.2726831 14.342127,14.2340488 14.4292982,14.2340488 C14.4931387,14.2340488 14.6590283,14.2340488 16.0093386,14.8154256 L16.4376184,14.6374889 C17.038213,13 17.1142874,13 17.3518538,13 L18.5958819,13 C18.8323934,13 18.9013028,13 19.547079,14.6319267 L19.9773316,14.8090825 C21.303914,14.1960859 21.4635702,14.1960859 21.533014,14.1960859 C21.6204043,14.1960859 21.7181379,14.2344872 21.780088,14.2960417 L22.6619235,15.1736417 C22.8336081,15.3462902 22.8820639,15.3951995 22.18427,17.0105354 L22.3579684,17.4319226 C24,18.0300409 24,18.1017745 24,18.3515544 L24,19.5949741 C24,19.8439732 23.999041,19.9080348 22.3629551,20.5542403 L22.1902842,20.9742986 C22.9269167,22.5563159 22.8760771,22.6082666 22.7008718,22.7859567 L21.8179539,23.666379 C21.7551682,23.7285362 21.6573387,23.7671842 21.5704004,23.7671842 C21.5075873,23.7671842 21.3423142,23.7671842 19.9923327,23.1846703 L19.5620802,23.3623878 C18.961239,25 18.8912884,25 18.6478037,25 Z M17.5829813,24.3212293 L18.4646114,24.3212293 C18.5819767,24.0645445 18.8084326,23.485209 18.9901728,22.9851971 C19.0225725,22.896489 19.0905504,22.8247554 19.1767763,22.7896284 L19.8705425,22.5024335 C19.9513844,22.4687724 20.0442683,22.4697862 20.1256308,22.5054886 C20.6241626,22.7213745 21.2135919,22.9637153 21.4805853,23.0553415 L22.0975236,22.4378102 C21.9986392,22.1709599 21.7481129,21.6057492 21.5255202,21.1296713 C21.4856541,21.0425525 21.4825854,20.9412129 21.5195198,20.8516281 L21.804994,20.1591847 C21.8399145,20.0745867 21.9078924,20.0073467 21.9916797,19.9748364 C22.4942256,19.7767742 23.0786819,19.5318441 23.3352361,19.4081324 L23.3352361,18.5445338 C23.0756132,18.4266035 22.4958147,18.2023468 21.9966253,18.0215605 C21.9088103,17.9896941 21.837476,17.9220431 21.8009663,17.8334583 L21.5154921,17.1399053 C21.4805716,17.0533481 21.4805716,16.9558583 21.5180402,16.8702328 C21.7316321,16.3786738 21.9697191,15.7971737 22.0635209,15.5266107 L21.4456236,14.9109974 C21.1811784,15.0081447 20.6072572,15.2607743 20.122014,15.4862503 C20.0402406,15.5250078 19.9444112,15.5275012 19.8595416,15.4922509 L19.1663097,15.2065219 C19.082906,15.1721758 19.0150514,15.1037165 18.9821447,15.018091 C18.7845678,14.5160377 18.5410009,13.9322908 18.4162652,13.6777295 L17.534731,13.6777295 C17.4167492,13.9348664 17.1909098,14.5145581 17.0094985,15.0135562 C16.9778522,15.1031685 16.9094496,15.1746555 16.8228949,15.2101524 L16.1314303,15.4969911 C16.0494468,15.5309061 15.9572097,15.5300953 15.8758351,15.4947443 C15.3773033,15.2782967 14.7857779,15.0363943 14.5194969,14.946371 L13.902134,15.5621898 C14.0017581,15.8294922 14.2508186,16.3947029 14.4737126,16.8717946 C14.5145377,16.9589134 14.5160172,17.0599242 14.4796171,17.1498378 L14.1924305,17.8420346 C14.1572086,17.9271121 14.0903951,17.9937767 14.0059502,18.0266569 C13.5036099,18.2244862 12.9200303,18.4678134 12.6645173,18.5918676 L12.6645173,19.4559046 C12.9224278,19.5746432 13.5031852,19.7996808 14.0024705,19.9809055 C14.0906739,20.0137337 14.1612281,20.0818031 14.197198,20.1687748 L14.4823434,20.860766 C14.5180174,20.9462957 14.5165378,21.0435526 14.480124,21.1290959 C14.2665321,21.6214358 14.0284451,22.2030455 13.9348214,22.4729372 L14.5522118,23.0889889 C14.8164789,22.9912799 15.390455,22.7386777 15.8752871,22.5136127 C15.9581429,22.4749785 16.0532187,22.4729372 16.1380883,22.5075162 L16.831649,22.7946837 C16.9159843,22.8288243 16.9818251,22.8964753 17.0151838,22.9820049 C17.2139253,23.4840719 17.4582319,24.0676133 17.5829813,24.3212293 L17.5829813,24.3212293 Z M17.9999452,21.1536053 C16.814908,21.1536053 15.8499016,20.186626 15.8499016,19.0002946 C15.8499016,17.8140179 16.8148943,16.8484223 17.9999452,16.8484223 C19.1847769,16.8484223 20.1490572,17.8140179 20.1490572,19.0002946 C20.1490572,20.1866397 19.1847769,21.1536053 17.9999452,21.1536053 L17.9999452,21.1536053 Z M17.9999452,17.5266176 C17.1811967,17.5266176 16.5153916,18.1878932 16.5153916,19.0002946 C16.5153916,19.8139289 17.1811967,20.4753005 17.9999452,20.4753005 C18.8184882,20.4753005 19.4842933,19.8139426 19.4842933,19.0002946 C19.4842933,18.1873178 18.8184745,17.5266176 17.9999452,17.5266176 L17.9999452,17.5266176 Z" id="形状" stroke-width="0.5" fill="#FFFFFF"></path>
                <path d="M20.5979559,9.73324521 L20.5979559,2.39034613 C20.5979559,1.28577663 19.7025254,0.390346126 18.5979559,0.390346126 L2.48612992,0.390346126 C1.38156043,0.390346126 0.486129925,1.28577663 0.486129925,2.39034613 L0.486129925,21.1121252 C0.486129925,22.2166947 1.38156043,23.1121252 2.48612992,23.1121252 L10,23.1121252 L10,23.1121252" id="路径-32" stroke-width="1.4" stroke-linecap="round"></path>
                <path d="M3.6975123,16.7445486 L10.7499046,16.7445486" id="路径-33" stroke-width="1.4" stroke-linecap="round"></path>
                <path d="M3.89610883,11.4207114 L17.7938374,11.4207114" id="路径-34" stroke-width="1.4" stroke-linecap="round"></path>
                <path d="M3.89610883,6.42071144 L17.7938374,6.42071144" id="路径-34" stroke-width="1.4" stroke-linecap="round"></path>
            </g>
        </g>
    </g>
</svg>