<?xml version="1.0" encoding="UTF-8"?>
<svg width="25px" height="24px" viewBox="0 0 25 24" version="1.1" xmlns="http://www.w3.org/2000/svg" xmlns:xlink="http://www.w3.org/1999/xlink">
    <!-- Generator: Sketch 58 (84663) - https://sketch.com -->
    <title>首页</title>
    <desc>Created with Sketch.</desc>
    <g id="Page-1" stroke="none" stroke-width="1" fill="none" fill-rule="evenodd">
        <g id="Data--Copy-6" transform="translate(-50.000000, -51.000000)" fill="#FFFFFF" fill-rule="nonzero" stroke="#FFFFFF" stroke-width="0.4">
            <g id="首页" transform="translate(51.000000, 52.000000)">
                <path d="M20.7037189,22 L2.29357518,22 C1.02436887,21.9955218 -0.00168442615,20.9637853 0,19.6937231 L0,2.2968 C-0.00131114786,1.03186191 1.02069598,0.0044776455 2.28478106,0 L9.52301506,0 L12.8001762,3.62627693 L20.6999983,3.62627693 C21.9727539,3.63075511 23.0016844,4.66537074 23,5.93898461 L23,19.6910154 C23.0016844,20.9625731 21.9744196,21.9955218 20.7037189,22 Z M2.28478106,1.20864616 C1.68577528,1.21107096 1.2016777,1.69806594 1.20242746,2.29747693 L1.20242746,19.6944 C1.20167828,20.2988027 1.68991855,20.789792 2.29391341,20.7920308 L20.7040572,20.7920308 C21.3095465,20.789792 21.7989982,20.2975904 21.798249,19.6916923 L21.798249,5.93898461 C21.7989982,5.33121726 21.3080321,4.83750031 20.7006748,4.83526154 L12.2674557,4.83526154 L8.98995632,1.20864616 L2.28478106,1.20864616 Z M20.4848807,1.90384616 L13.8933525,1.90384616 C13.5721987,1.90198534 13.3127832,1.64103553 13.3126026,1.31966154 C13.3126026,0.998211144 13.5721214,0.737153083 13.8933525,0.73547693 L20.4848807,0.73547693 C20.8061667,0.737152348 21.0657872,0.998156262 21.0659689,1.31966154 C21.0657872,1.64116682 20.8061667,1.90217074 20.4848807,1.90384616 L20.4848807,1.90384616 Z M16.5572932,12.1088 L12.0749999,7.6004923 C11.9211124,7.445203 11.7116157,7.35785236 11.4930662,7.35785236 C11.2745167,7.35785236 11.0650199,7.445203 10.9111325,7.6004923 L6.42647149,12.1088 C6.19089193,12.3452337 6.1202962,12.7001318 6.24744207,13.0088148 C6.37458794,13.3174977 6.67458789,13.5195439 7.0082361,13.5212 L7.64817717,13.5212 L7.64817717,16.8381231 C7.64742798,17.3019782 8.022105,17.6788745 8.4856476,17.6805538 L11.1560148,17.6805538 L11.1560148,16.6225231 L11.1509412,16.6225231 L11.1509412,15.0889538 L11.1560148,15.0889538 L11.1560148,15.0855692 L11.8399264,15.0855692 L11.8399264,17.6805538 L14.4974406,17.6805538 C14.9611155,17.6790607 15.3359981,17.3021099 15.3352493,16.8381231 L15.3352493,13.5212 L15.9748521,13.5212 C16.3086233,13.5198152 16.6088717,13.3178686 16.7361904,13.0091252 C16.863509,12.7003817 16.7929575,12.3453211 16.5572932,12.1088 L16.5572932,12.1088 Z M14.2833377,12.4635077 L14.2833377,16.6232 L12.8843968,16.6232 L12.8843968,14.8584615 C12.885146,14.4024573 12.5168292,14.0319255 12.0611323,14.0302462 L10.9293972,14.0302462 C10.4702286,14.031925 10.098992,14.4050751 10.0993679,14.8645538 L10.0993679,16.6215077 L8.70042697,16.6215077 L8.70042697,12.4618154 L7.56192718,12.4618154 L7.6485154,12.3744923 L9.00754455,11.0077846 L10.0594561,9.9500923 L11.4918823,8.5096 L15.4221758,12.4618154 L14.2833377,12.4618154 L14.2833377,12.4635077 Z" id="形状"></path>
            </g>
        </g>
    </g>
</svg>