<?xml version="1.0" encoding="UTF-8"?>
<svg width="30px" height="28px" viewBox="0 0 30 28" version="1.1" xmlns="http://www.w3.org/2000/svg" xmlns:xlink="http://www.w3.org/1999/xlink">
    <!-- Generator: Sketch 58 (84663) - https://sketch.com -->
    <title>左侧菜单_重点场所</title>
    <desc>Created with Sketch.</desc>
    <g id="Page-1" stroke="none" stroke-width="1" fill="none" fill-rule="evenodd">
        <g id="Data--Copy-6" transform="translate(-912.000000, -589.000000)" fill-rule="nonzero">
            <g id="左侧菜单_重点场所" transform="translate(912.000000, 589.000000)">
                <path d="M24.0938201,27 L22.9537373,27 C22.7363825,27 22.6734918,27 22.0815303,25.5049965 L21.6864414,25.3411469 C20.4695536,25.9045173 20.323089,25.9045173 20.2603992,25.9045173 C20.1799021,25.9045173 20.089572,25.8690146 20.0327845,25.8111204 L19.2264445,25.0054983 C19.0659526,24.8440474 19.0245738,24.8025167 19.6641052,23.3224201 L19.5048817,22.9387355 C18,22.3889283 18,22.322645 18,22.0934665 L18,20.9534642 C18,20.7254286 18,20.6670194 19.499557,20.0749657 L19.6588057,19.6901258 C18.9838606,18.2380846 19.0302752,18.1913799 19.1924122,18.0286857 L19.9999075,17.2233902 C20.056582,17.1666261 20.1469498,17.1312114 20.2268567,17.1312114 C20.2853772,17.1312114 20.4374426,17.1312114 21.6752271,17.6641401 L22.0678169,17.5010315 C22.6183619,16 22.6880968,16 22.905866,16 L24.046225,16 C24.2630273,16 24.3261943,16 24.9181557,17.4959328 L25.3125539,17.6583256 C26.5285878,17.0964121 26.6749394,17.0964121 26.7385961,17.0964121 C26.818704,17.0964121 26.9082931,17.1316133 26.9650806,17.1880382 L27.7734299,17.9925049 C27.9308074,18.150766 27.9752252,18.1955995 27.3355808,19.6763241 L27.4948044,20.0625957 C29,20.6108708 29,20.6766266 29,20.9055916 L29,22.0453929 C29,22.2736421 28.9991209,22.3323652 27.4993755,22.9247203 L27.3410938,23.3097738 C28.0163403,24.7599563 27.9697374,24.8075777 27.8091324,24.9704603 L26.9997911,25.7775141 C26.9422375,25.8344916 26.8525605,25.8699188 26.7728671,25.8699188 C26.7152884,25.8699188 26.5637881,25.8699188 25.326305,25.3359478 L24.9319068,25.4988555 C24.3811358,27 24.3170143,27 24.0938201,27 Z M23.1177329,26.3777935 L23.9258938,26.3777935 C24.0334786,26.1424991 24.2410632,25.6114416 24.4076584,25.1530973 C24.4373582,25.0717816 24.4996712,25.0060258 24.5787116,24.973826 L25.2146639,24.710564 C25.288769,24.679708 25.3739126,24.6806373 25.4484949,24.7133645 C25.9054824,24.91126 26.4457926,25.1334057 26.6905365,25.2173964 L27.2560633,24.651326 C27.1654192,24.4067133 26.9357701,23.8886035 26.7317269,23.4521987 C26.695183,23.3723398 26.69237,23.2794452 26.7262265,23.1973257 L26.9879112,22.562586 C27.0199216,22.4850378 27.0822347,22.4234011 27.1590397,22.3936 C27.6197068,22.2120431 28.1554584,21.9875238 28.3906331,21.8741213 L28.3906331,21.0824894 C28.1526454,20.9743866 27.6211635,20.7688179 27.1635732,20.6030971 C27.0830761,20.5738863 27.0176863,20.5118728 26.9842191,20.4306702 L26.7225344,19.7949132 C26.6905239,19.7155691 26.6905239,19.6262035 26.7248702,19.5477134 C26.9206628,19.0971176 27.1389092,18.5640759 27.2248942,18.3160598 L26.6584883,17.7517476 C26.4160802,17.8407993 25.8899858,18.0723764 25.4451795,18.2790627 C25.3702205,18.3145905 25.2823769,18.3168761 25.2045798,18.2845633 L24.5691172,18.0226451 C24.4926638,17.9911612 24.4304638,17.9284068 24.4002993,17.8499167 C24.2191871,17.3897012 23.9959175,16.8545999 23.8815764,16.621252 L23.0735034,16.621252 C22.9653535,16.8569608 22.758334,17.3883449 22.5920402,17.8457599 C22.5630311,17.9279044 22.5003288,17.9934342 22.420987,18.0259731 L21.7871444,18.2889085 C21.7119929,18.3199973 21.6274422,18.319254 21.5528489,18.2868489 C21.0958613,18.0884386 20.5536297,17.8666948 20.3095389,17.7841734 L19.7436228,18.348674 C19.834945,18.5937012 20.0632503,19.111811 20.2675699,19.5491451 C20.3049929,19.629004 20.3063491,19.7215972 20.2729824,19.804018 L20.0097279,20.4385317 C19.9774412,20.5165194 19.9161955,20.5776287 19.8387877,20.6077689 C19.378309,20.7891123 18.8433611,21.0121623 18.6091409,21.1258787 L18.6091409,21.9179125 C18.8455588,22.0267563 19.3779197,22.2330407 19.835598,22.3991634 C19.9164511,22.4292559 19.9811258,22.4916528 20.0140981,22.5713769 L20.2754814,23.2057022 C20.3081826,23.2841044 20.3068263,23.3732565 20.273447,23.4516712 C20.0776544,23.9029829 19.859408,24.4361251 19.7735863,24.6835258 L20.3395275,25.2482398 C20.5817723,25.1586732 21.1079171,24.9271213 21.5523465,24.7208117 C21.6282976,24.685397 21.7154505,24.6835258 21.7932476,24.7152232 L22.4290116,24.97846 C22.506319,25.0097556 22.566673,25.071769 22.5972518,25.1501712 C22.7794315,25.6103993 23.0033793,26.1453122 23.1177329,26.3777935 L23.1177329,26.3777935 Z M23.4999498,23.4741382 C22.4136657,23.4741382 21.5290765,22.5877405 21.5290765,21.50027 C21.5290765,20.4128498 22.4136531,19.5277204 23.4999498,19.5277204 C24.5860455,19.5277204 25.4699691,20.4128498 25.4699691,21.50027 C25.4699691,22.587753 24.5860455,23.4741382 23.4999498,23.4741382 L23.4999498,23.4741382 Z M23.4999498,20.1493994 C22.7494303,20.1493994 22.139109,20.7555688 22.139109,21.50027 C22.139109,22.2461015 22.7494303,22.8523588 23.4999498,22.8523588 C24.2502808,22.8523588 24.8606022,22.246114 24.8606022,21.50027 C24.8606022,20.7550413 24.2502683,20.1493994 23.4999498,20.1493994 L23.4999498,20.1493994 Z" id="形状" stroke="#FFFFFF" stroke-width="0.3" fill="#FFFFFF"></path>
                <path d="M12.0593216,25.3 L12.0593216,26 L12.7593216,25.3 L12.0593216,25.3 Z M0.7,25.3 L0,25.3 L0.7,26 L0.7,25.3 Z M0.7,5.08509878 L0.7,4.61944976 L0.270531763,5.26505999 L0.7,5.08509878 Z M25.3,11.7471791 L25.3,7.22079333 L14.8747799,7.22079333 L14.8747799,20.0495215 C15.1277698,18.624562 15.6928109,17.2466129 16.562288,16.0198088 C18.5591851,13.2022512 21.8608757,11.6064716 25.3,11.7471791 Z M14.8747799,23.5298262 L14.8747799,25.3 L15.3614194,25.3 C15.1432434,24.7214515 14.9812156,24.1288572 14.8747799,23.529822 Z" id="形状" stroke="#FFFFFF" stroke-width="1.4"></path>
                <polygon id="路径" fill="#FFFFFF" points="9.47566028 18.6042226 3.36108233 18.6042226 3.36108233 17.0139475 9.47734336 17.0139475 9.47734336 18.6042226"></polygon>
                <polygon id="路径" fill="#FFFFFF" points="9.47566028 15.4852207 3.36108233 15.4852207 3.36108233 13.8949456 9.47734336 13.8949456 9.47734336 15.4852207"></polygon>
                <polygon id="路径" fill="#FFFFFF" points="9.47566028 12.3662188 3.36108233 12.3662188 3.36108233 10.7759437 9.47734336 10.7759437 9.47734336 12.3662188"></polygon>
                <polygon id="路径" fill="#FFFFFF" points="9.47566028 9.24721689 3.36108233 9.24721689 3.36108233 7.65694179 9.47734336 7.65694179 9.47734336 9.24721689"></polygon>
            </g>
        </g>
    </g>
</svg>