<?xml version="1.0" encoding="UTF-8"?>
<svg width="25px" height="25px" viewBox="0 0 25 25" version="1.1" xmlns="http://www.w3.org/2000/svg" xmlns:xlink="http://www.w3.org/1999/xlink">
    <!-- Generator: Sketch 58 (84663) - https://sketch.com -->
    <title>人像</title>
    <desc>Created with Sketch.</desc>
    <g id="Page-1" stroke="none" stroke-width="1" fill="none" fill-rule="evenodd">
        <g id="Data--Copy-6" transform="translate(-914.000000, -55.000000)" fill="#FFFFFF">
            <g id="人像" transform="translate(914.000000, 55.000000)">
                <path d="M19.7600503,16.7562814 C20.4330606,16.7562814 20.9786432,16.2106988 20.9786432,15.5376884 C20.9786432,14.8646781 20.4330606,14.3190955 19.7600503,14.3190955 C19.0870399,14.3190955 18.5414573,14.8646781 18.5414573,15.5376884 C18.5414573,16.2106988 19.0870399,16.7562814 19.7600503,16.7562814 Z M6.48994975,23.1155779 L3.40577889,23.1155779 C2.56584385,23.1148852 1.88511484,22.4341562 1.88442211,21.5942211 L1.88442211,18.6796482 C1.88442211,18.1592794 1.46257985,17.7374372 0.942211055,17.7374372 C0.421842258,17.7374372 6.21724894e-14,18.1592794 6.21724894e-14,18.6796482 L6.21724894e-14,21.5942211 C0.00207707653,23.4743198 1.52568018,24.9979229 3.40577889,25 L6.48994975,25 C7.01031855,25 7.4321608,24.5781577 7.4321608,24.0577889 C7.4321608,23.5374201 7.01031855,23.1155779 6.48994975,23.1155779 L6.48994975,23.1155779 Z M0.942211055,7.22864322 C1.46257985,7.22864322 1.88442211,6.80680096 1.88442211,6.28643216 L1.88442211,3.40703518 C1.88442211,2.5678392 2.56658291,1.88442211 3.40577889,1.88442211 L6.48994975,1.88442211 C7.01031855,1.88442211 7.4321608,1.46257985 7.4321608,0.942211055 C7.4321608,0.421842258 7.01031855,2.97539771e-14 6.48994975,2.97539771e-14 L3.40577889,2.97539771e-14 C1.52547698,0.0027690996 0.00207564492,1.52673237 0,3.40703518 L0,6.28643216 C0,6.80653266 0.422110553,7.22864322 0.942211055,7.22864322 L0.942211055,7.22864322 Z M24.0577889,17.7361809 C23.5374201,17.7361809 23.1155779,18.1580232 23.1155779,18.678392 L23.1155779,21.5929648 C23.1155779,22.4321608 22.4334171,23.1143216 21.5942211,23.1143216 L18.8517588,23.1143216 C18.33139,23.1143216 17.9095477,23.5361639 17.9095477,24.0565327 C17.9095477,24.5769015 18.33139,24.9987437 18.8517588,24.9987437 L21.5942211,24.9987437 C23.4743198,24.9966666 24.9979229,23.4730635 25,21.5929648 L25,18.678392 C25,18.1580232 24.5781577,17.7361809 24.0577889,17.7361809 L24.0577889,17.7361809 Z M21.5942211,0 L18.8517588,0 C18.33139,0 17.9095477,0.421842258 17.9095477,0.942211055 C17.9095477,1.46257985 18.33139,1.88442211 18.8517588,1.88442211 L21.5942211,1.88442211 C22.4334171,1.88442211 23.1155779,2.5678392 23.1155779,3.40703518 L23.1155779,6.28643216 C23.1155779,6.80680094 23.5374202,7.22864316 24.0577889,7.22864316 C24.5781577,7.22864316 25,6.80680094 25,6.28643216 L25,3.40703518 C24.9979244,1.52673237 23.474523,0.0027690996 21.5942211,0 Z" id="形状" fill-rule="nonzero"></path>
                <path d="M3.84615385,18.3755689 L3.84615385,21.1521766 C3.84615385,21.6838674 4.27265804,22.1153846 4.79817212,22.1153846 L20.2018279,22.1153846 C20.7276131,22.1153846 21.1538462,21.6841417 21.1538462,21.1521766 L21.1538462,18.3755689 C21.1538462,17.8436039 20.727613,17.412361 20.2018279,17.412361 C19.6760427,17.412361 19.2498096,17.8436039 19.2498096,18.3755689 L19.2498096,20.1889686 L5.7501904,20.1889686 L5.7501904,18.3755689 C5.76129301,15.1389134 8.00751549,12.3507331 11.1386139,11.6870524 C11.5384014,11.603842 11.84128,11.2720504 11.8915523,10.8622379 C11.9418247,10.4524255 11.7283036,10.0557884 11.3607515,9.87622135 C10.4446655,9.43883661 9.86026779,8.50591603 9.86037065,7.48104407 C9.86037065,6.00926221 11.0446814,4.81103143 12.4993653,4.81103143 C13.9540493,4.81103143 15.1370906,6.00926221 15.1370906,7.48104407 C15.1378172,8.50609901 14.5532256,9.43932915 13.6367098,9.87622135 C13.6176695,9.88521129 13.6075146,9.90319117 13.5884742,9.91346539 C13.5344223,9.94677544 13.4838167,9.98549842 13.4374207,10.0290504 C13.3904544,10.0701472 13.3434882,10.1086756 13.3066768,10.1574781 C13.2724042,10.2024278 13.2482864,10.2525146 13.2228992,10.3038857 C13.1900386,10.3634875 13.1632446,10.4263112 13.1429297,10.4913902 C13.1378522,10.5119386 13.1238893,10.52735 13.1188119,10.5478984 C13.1111957,10.587711 13.1213506,10.6249551 13.1188119,10.6647676 C13.1120428,10.729637 13.1116176,10.7950239 13.1175425,10.8599778 C13.1268411,10.9258689 13.1434475,10.9904903 13.1670475,11.0526194 C13.1797411,11.0898635 13.1784717,11.1283918 13.1949733,11.1630673 C13.2038588,11.1823314 13.2216299,11.1938899 13.2317847,11.2118698 C13.2643964,11.2675006 13.3031487,11.3192032 13.3472963,11.3659831 C13.3879157,11.4135014 13.4259964,11.4597353 13.474232,11.4969794 C13.5186596,11.5316549 13.5668952,11.5547719 13.6176695,11.5817417 C13.6770886,11.6157652 13.7401078,11.6429063 13.8055344,11.6626512 C13.8245748,11.6677883 13.8398071,11.6819153 13.8601168,11.6857682 C15.2822272,11.9898221 16.5708468,12.7463392 17.5374461,13.8446384 C17.7050567,14.0360131 17.9411616,14.1518832 18.1934717,14.1665875 C18.4457818,14.1812918 18.693475,14.0936167 18.8816959,13.9229793 C19.0705444,13.7532121 19.1848487,13.5143826 19.1993761,13.2592121 C19.2139036,13.0040417 19.1274596,12.7535129 18.9591267,12.5629296 C18.1338483,11.6396015 17.1251189,10.9030467 15.9989845,10.4014908 C16.6743437,9.58190965 17.0432528,8.54809777 17.0411272,7.48104407 C17.0390285,4.94388796 15.0070462,2.88744773 12.4993653,2.88461538 C9.99118873,2.88673984 7.95843387,4.9433871 7.95633409,7.48104407 C7.95633409,8.56497416 8.32698654,9.57955328 8.97816705,10.3809424 C5.92155369,11.7679619 3.84615385,14.8849031 3.84615385,18.3755689 Z" id="路径"></path>
            </g>
        </g>
    </g>
</svg>