<?xml version="1.0" encoding="UTF-8"?>
<svg width="29px" height="25px" viewBox="0 0 29 25" version="1.1" xmlns="http://www.w3.org/2000/svg" xmlns:xlink="http://www.w3.org/1999/xlink">
    <!-- Generator: Sketch 58 (84663) - https://sketch.com -->
    <title>指挥调度</title>
    <desc>Created with Sketch.</desc>
    <g id="Page-1" stroke="none" stroke-width="1" fill="none" fill-rule="evenodd">
        <g id="Data--Copy-6" transform="translate(-656.000000, -321.000000)" fill="#FFFFFF">
            <g id="指挥调度" transform="translate(656.000000, 321.000000)">
                <path d="M23,8.96065818 L23,3.56689442 C23,1.60191122 21.2779948,0 19.1501953,0 L3.8498047,0 C1.7287435,0 0,1.60435263 0,3.58189163 L0,21.4181076 C0,22.3685074 0.405410561,23.2799458 1.12697299,23.951751 C1.84853542,24.6235562 2.82708859,25.000647 3.84718426,25 L7.60377603,25 L7.60377603,23.2142849 L3.84718426,23.2142849 C3.33545067,23.2148403 2.84446682,23.0258571 2.48237061,22.6889583 C2.1202744,22.3520595 1.91676567,21.8948783 1.91666666,21.4181076 L1.91666666,3.58189163 C1.9199664,2.58926042 2.78437547,1.78609375 3.8498047,1.78571422 L19.1501953,1.78571422 C20.2182129,1.78571422 21.0833334,2.58789054 21.0833333,3.56689442 L21.0833333,8.96065818 L23,8.96065818 Z" id="路径"></path>
                <path d="M5.98083654,6.48364427 L15.7875802,6.48364427 C16.3291283,6.48355961 16.7680924,6.0685491 16.7680924,5.55663695 C16.7680924,5.04472481 16.3291283,4.62971429 15.7875802,4.62962963 L5.98083654,4.62962963 C5.63043671,4.62957487 5.30662912,4.80624949 5.13141248,5.09308904 C4.95619584,5.37992859 4.95619584,5.73334531 5.13141248,6.02018486 C5.30662912,6.30702442 5.63043671,6.48369903 5.98083654,6.48364427 Z M5.98083654,12.0456882 L13.8262314,12.0456882 C14.3677796,12.0456035 14.8067436,11.630593 14.8067436,11.1186808 C14.8067436,10.6067687 14.3677796,10.1917582 13.8262314,10.1916735 L5.98083654,10.1916735 C5.63043671,10.1916188 5.30662912,10.3682934 5.13141248,10.6551329 C4.95619584,10.9419725 4.95619584,11.2953892 5.13141248,11.5822287 C5.30662912,11.8690683 5.63043671,12.0457429 5.98083654,12.0456882 L5.98083654,12.0456882 Z M5.98083654,17.607732 L7.94218526,17.607732 C8.29258509,17.6077868 8.61639268,17.4311121 8.79160932,17.1442726 C8.96682596,16.857433 8.96682596,16.5040163 8.79160932,16.2171768 C8.61639268,15.9303372 8.29258509,15.7536626 7.94218526,15.7537174 L5.98083654,15.7537174 C5.43928837,15.753802 5.00032433,16.1688125 5.00032433,16.6807247 C5.00032433,17.1926368 5.43928837,17.6076473 5.98083654,17.607732 L5.98083654,17.607732 Z M19.0594316,11.4185097 L26.5420536,23.3138965 L11.5768096,23.3138965 L19.0594316,11.4185097 L19.0594316,11.4185097 Z M19.0594316,8.93151678 C18.7396055,8.93036934 18.4436148,9.09119835 18.2837029,9.35302158 L9.24924032,23.718738 C9.0803901,23.9809998 9.07572449,24.3092976 9.23706085,24.5757523 C9.3983972,24.842207 9.70022245,25.0046825 10.024969,25 L28.0938942,25 C28.4187091,25.0048168 28.7206635,24.842394 28.8820949,24.5759139 C29.0435263,24.3094337 29.0388951,23.9810555 28.870006,23.718738 L19.8355434,9.38706013 C19.6756028,9.12504009 19.3794525,8.96406563 19.0594316,8.96519939 L19.0594316,8.93151678 Z" id="形状" fill-rule="nonzero"></path>
                <path d="M19,14.8148148 C19.5333334,14.8148148 19.8,15.1148959 19.8,15.7150577 L19.8,19.170691 C19.8,19.7705952 19.5333334,20.0705472 19,20.0705472 C18.4666667,20.0705472 18.2,19.7705952 18.2,19.170691 L18.2,15.7150577 C18.2,15.1146382 18.4666667,14.8145573 19,14.8148148 Z M18,22.0233279 C18,22.644549 18.4477152,23.1481481 19,23.1481481 C19.5522847,23.1481481 20,22.644549 20,22.0233279 C20,21.4021069 19.5522848,20.8985077 19,20.8985077 C18.7347835,20.8985077 18.4804296,21.0170152 18.2928932,21.2279599 C18.1053568,21.4389046 18,21.725007 18,22.0233279 Z" id="形状" fill-rule="nonzero"></path>
            </g>
        </g>
    </g>
</svg>