<?xml version="1.0" encoding="UTF-8"?>
<svg width="29px" height="25px" viewBox="0 0 29 25" version="1.1" xmlns="http://www.w3.org/2000/svg" xmlns:xlink="http://www.w3.org/1999/xlink">
    <!-- Generator: Sketch 58 (84663) - https://sketch.com -->
    <title>企业管理</title>
    <desc>Created with Sketch.</desc>
    <g id="Page-1" stroke="none" stroke-width="1" fill="none" fill-rule="evenodd">
        <g id="Data--Copy-6" transform="translate(-48.000000, -318.000000)" fill="#FFFFFF" stroke="#FFFFFF" stroke-width="0.5">
            <g id="企业管理" transform="translate(49.000000, 319.000000)">
                <path d="M26.3164557,23 L0.683544304,23 C0.341772152,23 0,22.75 0,22.5 C0,22.25 0.341772152,22 0.683544304,22 L26.3164557,22 C26.6582278,22 27,22.25 27,22.5 C27,22.75 26.6582278,23 26.3164557,23 Z" id="路径"></path>
                <path d="M8.23404255,6.21518987 L5.68085106,6.21518987 C5.34042553,6.21518987 5,5.91139241 5,5.60759494 C5,5.30379747 5.34042553,5 5.68085106,5 L8.23404255,5 C8.57446809,5 8.91489362,5.30379747 8.91489362,5.60759494 C8.91489362,5.91139241 8.57446809,6.21518987 8.23404255,6.21518987 Z M13.6808511,6.21518987 L11.1276596,6.21518987 C10.787234,6.21518987 10.4468085,5.91139241 10.4468085,5.60759494 C10.4468085,5.30379747 10.787234,5 11.1276596,5 L13.6808511,5 C14.0212766,5 14.3617021,5.30379747 14.3617021,5.60759494 C14.3617021,5.91139241 14.0212766,6.21518987 13.6808511,6.21518987 Z M19.6382979,12.5949367 L19.6382979,10.3164557 C19.6382979,10.0126582 19.9787234,9.70886076 20.3191489,9.70886076 C20.6595745,9.70886076 21,10.0126582 21,10.3164557 L21,12.5949367 C21,12.8987342 20.6595745,13.2025316 20.3191489,13.2025316 C19.9787234,13.2025316 19.6382979,12.8987342 19.6382979,12.5949367 Z M8.23404255,11.5316456 L5.68085106,11.5316456 C5.34042553,11.5316456 5,11.2278481 5,10.9240506 C5,10.6202532 5.34042553,10.3164557 5.68085106,10.3164557 L8.23404255,10.3164557 C8.57446809,10.3164557 8.91489362,10.6202532 8.91489362,10.9240506 C8.91489362,11.2278481 8.57446809,11.5316456 8.23404255,11.5316456 Z M13.6808511,11.5316456 L11.1276596,11.5316456 C10.787234,11.5316456 10.4468085,11.2278481 10.4468085,10.9240506 C10.4468085,10.6202532 10.787234,10.3164557 11.1276596,10.3164557 L13.6808511,10.3164557 C14.0212766,10.3164557 14.3617021,10.6202532 14.3617021,10.9240506 C14.3617021,11.2278481 14.0212766,11.5316456 13.6808511,11.5316456 Z M8.23404255,17 L5.68085106,17 C5.34042553,17 5,16.6962025 5,16.3924051 C5,16.0886076 5.34042553,15.7848101 5.68085106,15.7848101 L8.23404255,15.7848101 C8.57446809,15.7848101 8.91489362,16.0886076 8.91489362,16.3924051 C8.91489362,16.6962025 8.57446809,17 8.23404255,17 Z M13.6808511,17 L11.1276596,17 C10.787234,17 10.4468085,16.6962025 10.4468085,16.3924051 C10.4468085,16.0886076 10.787234,15.7848101 11.1276596,15.7848101 L13.6808511,15.7848101 C14.0212766,15.7848101 14.3617021,16.0886076 14.3617021,16.3924051 C14.3617021,16.6962025 14.0212766,17 13.6808511,17 Z" id="形状" fill-rule="nonzero"></path>
                <path d="M1,22.8456376 L1,1.85234899 C1,0.771812081 1.86956522,0 3.08695652,0 L14.9130435,0 C16.1304348,0 17,0.771812081 17,1.85234899 L17,22.3825503 C17,22.6912752 16.6521739,23 16.3043478,23 C15.9565217,23 15.6086957,22.6912752 15.6086957,22.3825503 L15.6086957,1.85234899 C15.6086957,1.54362416 15.2608696,1.23489933 14.9130435,1.23489933 L3.08695652,1.23489933 C2.73913043,1.23489933 2.39130435,1.54362416 2.39130435,1.85234899 L2.39130435,22.8456376 L1,22.8456376 Z" id="路径"></path>
                <path d="M17,6 L23.0408163,6 C24.1836735,6 25,6.75471698 25,7.81132075 L25,13.3962264 C25,13.6981132 24.6734694,14 24.3469388,14 C24.0204082,14 23.6938776,13.6981132 23.6938776,13.3962264 L23.6938776,7.66037736 C23.6938776,7.35849057 23.3673469,7.05660377 23.0408163,7.05660377 L17,7.05660377" id="路径"></path>
                <path d="M26.5,14.9230769 L19.5,14.9230769 C19.1666667,14.9230769 19,14.7692308 19,14.4615385 C19,14.1538462 19.1666667,14 19.5,14 L26.5,14 C26.8333333,14 27,14.1538462 27,14.4615385 C27,14.7692308 26.8333333,14.9230769 26.5,14.9230769 L26.5,14.9230769 Z M26.5,17.3846154 L19.5,17.3846154 C19.1666667,17.3846154 19,17.2307692 19,16.9230769 C19,16.6153846 19.1666667,16.4615385 19.5,16.4615385 L26.5,16.4615385 C26.8333333,16.4615385 27,16.6153846 27,16.9230769 C27,17.2307692 26.8333333,17.3846154 26.5,17.3846154 L26.5,17.3846154 Z M26.5,20 L19.5,20 C19.1666667,20 19,19.8461538 19,19.5384615 C19,19.2307692 19.1666667,19.0769231 19.5,19.0769231 L26.5,19.0769231 C26.8333333,19.0769231 27,19.2307692 27,19.5384615 C27,19.8461538 26.8333333,20 26.5,20 L26.5,20 Z" id="形状" fill-rule="nonzero"></path>
            </g>
        </g>
    </g>
</svg>